{"glyphs":{"0":{"ha":833,"x_min":83,"x_max":750,"o":"m 417 -11 q 168 117 253 -11 q 83 494 83 246 q 168 872 83 743 q 417 1000 253 1000 q 666 873 582 1000 q 750 496 750 746 q 665 118 750 247 q 417 -11 581 -11 m 417 46 q 621 156 554 46 q 688 496 688 267 q 622 834 688 725 q 417 943 556 943 q 213 833 279 943 q 146 496 146 724 q 213 157 146 268 q 417 46 279 46 z "},"1":{"ha":833,"x_min":197,"x_max":696,"o":"m 696 53 l 696 0 l 197 0 l 197 53 l 418 53 l 418 904 l 213 767 l 213 833 l 418 971 l 418 981 l 424 975 l 444 989 l 476 989 l 476 53 l 696 53 z "},"2":{"ha":833,"x_min":107,"x_max":742,"o":"m 742 53 l 742 0 l 129 0 l 129 44 l 485 446 q 600 606 565 536 q 635 747 635 676 q 581 893 635 842 q 426 944 526 944 q 278 914 349 944 q 136 821 207 883 l 107 869 q 251 965 165 929 q 424 1000 338 1000 q 623 933 550 1000 q 696 749 696 865 q 656 582 696 664 q 525 399 615 500 l 211 53 l 742 53 z "},"3":{"ha":833,"x_min":92,"x_max":717,"o":"m 536 508 q 671 422 625 483 q 717 267 717 360 q 635 65 717 139 q 415 -10 553 -10 q 238 24 322 -10 q 92 121 153 58 l 121 169 q 263 76 190 107 q 417 46 335 46 q 592 102 529 46 q 656 263 656 158 q 590 422 656 368 q 396 475 524 475 l 297 475 l 297 531 l 375 531 q 565 590 497 531 q 633 756 633 649 q 579 895 633 846 q 426 944 525 944 q 279 914 350 944 q 136 821 208 883 l 107 869 q 249 966 165 932 q 425 1000 333 1000 q 622 934 549 1000 q 696 754 696 868 q 653 601 696 667 q 536 508 610 536 z "},"4":{"ha":833,"x_min":81,"x_max":775,"o":"m 775 233 l 618 233 l 618 0 l 560 0 l 560 233 l 117 233 l 115 231 l 115 233 l 81 233 l 81 279 l 568 989 l 618 989 l 618 288 l 775 288 l 775 233 m 560 288 l 560 874 l 154 288 l 560 288 z "},"5":{"ha":833,"x_min":126,"x_max":754,"o":"m 449 610 q 672 524 590 610 q 754 299 754 439 q 717 140 754 210 q 609 30 679 69 q 444 -10 539 -10 q 272 25 357 -10 q 126 121 188 60 l 156 169 q 444 46 294 46 q 626 115 558 46 q 693 300 693 185 q 627 483 693 413 q 454 553 561 553 q 310 519 369 553 q 206 413 250 485 l 150 413 l 150 989 l 719 989 l 719 935 l 210 935 l 210 500 q 312 581 250 553 q 449 610 374 610 z "},"6":{"ha":833,"x_min":89,"x_max":754,"o":"m 442 608 q 606 569 535 608 q 715 460 676 531 q 754 299 754 390 q 715 140 754 210 q 606 29 675 69 q 447 -11 536 -11 q 182 113 275 -11 q 89 464 89 236 q 184 860 89 719 q 451 1000 279 1000 q 613 966 535 1000 q 753 869 690 932 l 724 821 q 587 915 653 885 q 450 944 521 944 q 228 817 308 944 q 149 463 149 689 l 149 411 q 260 556 181 503 q 442 608 339 608 m 446 44 q 625 115 557 44 q 693 300 693 185 q 624 483 693 414 q 443 553 554 553 q 309 521 368 553 q 217 431 250 489 q 185 300 185 374 q 257 115 185 186 q 446 44 329 44 z "},"7":{"ha":833,"x_min":106,"x_max":726,"o":"m 726 989 l 726 946 l 251 0 l 188 0 l 661 936 l 106 936 l 106 989 l 726 989 z "},"8":{"ha":833,"x_min":76,"x_max":757,"o":"m 550 507 q 703 416 649 482 q 757 258 757 350 q 666 62 757 133 q 417 -10 575 -10 q 167 62 258 -10 q 76 258 76 133 q 132 415 76 349 q 283 507 188 481 q 146 594 193 533 q 99 739 99 654 q 138 876 99 817 q 250 968 178 936 q 417 1000 322 1000 q 583 968 511 1000 q 695 876 656 936 q 735 739 735 817 q 687 594 735 656 q 550 507 639 533 m 161 739 q 231 594 161 650 q 417 526 300 538 q 603 594 533 538 q 672 739 672 650 q 606 890 672 835 q 417 944 539 944 q 228 890 294 944 q 161 739 161 835 m 417 46 q 624 101 553 46 q 694 260 694 156 q 618 410 694 354 q 417 476 542 467 q 215 410 292 467 q 139 260 139 354 q 210 101 139 156 q 417 46 281 46 z "},"9":{"ha":833,"x_min":81,"x_max":746,"o":"m 388 1000 q 653 876 560 1000 q 746 525 746 753 q 651 129 746 269 q 383 -11 556 -11 q 222 23 300 -11 q 82 119 144 57 l 111 168 q 249 74 183 104 q 385 44 314 44 q 606 172 526 44 q 686 526 686 300 l 686 579 q 575 433 654 486 q 393 381 496 381 q 229 419 300 381 q 119 528 158 458 q 81 690 81 599 q 120 849 81 779 q 230 960 160 919 q 388 1000 300 1000 m 392 436 q 526 468 467 436 q 617 558 585 500 q 650 689 650 615 q 578 874 650 803 q 390 944 506 944 q 210 874 279 944 q 142 689 142 804 q 211 506 142 575 q 392 436 281 436 z "},"\u0000":{"ha":0,"x_min":0,"x_max":0,"o":""},"\r":{"ha":347,"x_min":0,"x_max":0,"o":""}," ":{"ha":347,"x_min":0,"x_max":0,"o":""},"A":{"ha":1001,"x_min":47,"x_max":954,"o":"m 774 274 l 226 274 l 110 0 l 47 0 l 472 989 l 529 989 l 954 0 l 892 0 l 774 274 m 750 329 l 500 913 l 250 329 l 750 329 z "},"Á":{"ha":1001,"x_min":47,"x_max":954,"o":"m 774 274 l 226 274 l 110 0 l 47 0 l 472 989 l 529 989 l 954 0 l 892 0 l 774 274 m 750 329 l 500 913 l 250 329 l 750 329 m 475 1074 l 615 1282 l 700 1282 l 526 1074 l 475 1074 z "},"Ă":{"ha":1001,"x_min":47,"x_max":954,"o":"m 774 274 l 226 274 l 110 0 l 47 0 l 472 989 l 529 989 l 954 0 l 892 0 l 774 274 m 750 329 l 500 913 l 250 329 l 750 329 m 501 1092 q 372 1126 429 1092 q 285 1239 315 1160 l 340 1264 q 413 1173 376 1197 q 501 1149 450 1149 q 588 1173 551 1149 q 661 1264 625 1197 l 717 1239 q 501 1092 657 1092 z "},"Ắ":{"ha":1001,"x_min":47,"x_max":954,"o":"m 774 274 l 226 274 l 110 0 l 47 0 l 472 989 l 529 989 l 954 0 l 892 0 l 774 274 m 750 329 l 500 913 l 250 329 l 750 329 m 476 1214 l 615 1413 l 701 1413 l 525 1214 l 476 1214 m 501 1067 q 372 1101 429 1067 q 285 1214 315 1135 l 343 1239 q 415 1149 379 1172 q 501 1125 450 1125 q 587 1149 551 1125 q 658 1239 622 1172 l 717 1214 q 501 1067 657 1067 z "},"Ặ":{"ha":1001,"x_min":47,"x_max":954,"o":"m 774 274 l 226 274 l 110 0 l 47 0 l 472 989 l 529 989 l 954 0 l 892 0 l 774 274 m 750 329 l 500 913 l 250 329 l 750 329 m 547 -153 l 547 -243 l 454 -243 l 454 -153 l 547 -153 m 501 1092 q 372 1126 429 1092 q 285 1239 315 1160 l 340 1264 q 413 1173 376 1197 q 501 1149 450 1149 q 588 1173 551 1149 q 661 1264 625 1197 l 717 1239 q 501 1092 657 1092 z "},"Ằ":{"ha":1001,"x_min":47,"x_max":954,"o":"m 774 274 l 226 274 l 110 0 l 47 0 l 472 989 l 529 989 l 954 0 l 892 0 l 774 274 m 750 329 l 500 913 l 250 329 l 750 329 m 300 1413 l 386 1413 l 525 1214 l 476 1214 l 300 1413 m 501 1067 q 285 1214 344 1067 l 343 1239 q 415 1149 379 1172 q 501 1125 450 1125 q 587 1149 551 1125 q 658 1239 622 1172 l 717 1214 q 629 1101 686 1135 q 501 1067 572 1067 z "},"Ẳ":{"ha":1001,"x_min":47,"x_max":954,"o":"m 774 274 l 226 274 l 110 0 l 47 0 l 472 989 l 529 989 l 954 0 l 892 0 l 774 274 m 750 329 l 500 913 l 250 329 l 750 329 m 531 1214 l 472 1214 l 472 1236 q 486 1272 472 1260 q 529 1297 500 1283 q 558 1313 549 1306 q 568 1331 568 1319 q 551 1353 568 1346 q 506 1361 535 1361 q 417 1344 461 1361 l 400 1396 q 504 1419 449 1419 q 600 1395 565 1419 q 635 1329 635 1371 q 620 1293 635 1306 q 575 1265 606 1281 q 542 1247 553 1256 q 531 1226 531 1239 l 531 1214 m 501 1067 q 285 1214 344 1067 l 343 1239 q 415 1149 379 1172 q 501 1125 450 1125 q 587 1149 551 1125 q 658 1239 622 1172 l 717 1214 q 629 1101 686 1135 q 501 1067 572 1067 z "},"Ẵ":{"ha":1001,"x_min":47,"x_max":954,"o":"m 774 274 l 226 274 l 110 0 l 47 0 l 472 989 l 529 989 l 954 0 l 892 0 l 774 274 m 750 329 l 500 913 l 250 329 l 750 329 m 285 1283 q 314 1388 285 1350 q 396 1426 343 1426 q 453 1414 426 1426 q 518 1376 481 1401 q 565 1349 546 1358 q 600 1340 583 1340 q 653 1365 635 1340 q 669 1422 671 1389 l 717 1422 q 688 1318 717 1357 q 606 1279 658 1279 q 548 1292 575 1279 q 483 1329 521 1304 q 435 1358 453 1349 q 401 1367 417 1367 q 349 1342 367 1367 q 332 1283 331 1317 l 285 1283 m 501 1067 q 285 1214 344 1067 l 343 1239 q 415 1149 379 1172 q 501 1125 450 1125 q 587 1149 551 1125 q 658 1239 622 1172 l 717 1214 q 629 1101 686 1135 q 501 1067 572 1067 z "},"Â":{"ha":1001,"x_min":47,"x_max":954,"o":"m 774 274 l 226 274 l 110 0 l 47 0 l 472 989 l 529 989 l 954 0 l 892 0 l 774 274 m 750 329 l 500 913 l 250 329 l 750 329 m 318 1074 l 475 1282 l 526 1282 l 683 1074 l 611 1074 l 501 1232 l 390 1074 l 318 1074 z "},"Ấ":{"ha":1001,"x_min":47,"x_max":954,"o":"m 774 274 l 226 274 l 110 0 l 47 0 l 472 989 l 529 989 l 954 0 l 892 0 l 774 274 m 750 329 l 500 913 l 250 329 l 750 329 m 611 1214 l 756 1413 l 843 1413 l 663 1214 l 611 1214 m 318 1074 l 475 1285 l 526 1285 l 683 1074 l 611 1074 l 501 1235 l 390 1074 l 318 1074 z "},"Ậ":{"ha":1001,"x_min":47,"x_max":954,"o":"m 774 274 l 226 274 l 110 0 l 47 0 l 472 989 l 529 989 l 954 0 l 892 0 l 774 274 m 750 329 l 500 913 l 250 329 l 750 329 m 547 -153 l 547 -243 l 454 -243 l 454 -153 l 547 -153 m 318 1074 l 475 1282 l 526 1282 l 683 1074 l 611 1074 l 501 1232 l 390 1074 l 318 1074 z "},"Ầ":{"ha":1001,"x_min":47,"x_max":954,"o":"m 774 274 l 226 274 l 110 0 l 47 0 l 472 989 l 529 989 l 954 0 l 892 0 l 774 274 m 750 329 l 500 913 l 250 329 l 750 329 m 524 1413 l 610 1413 l 722 1214 l 672 1214 l 524 1413 m 318 1074 l 475 1285 l 526 1285 l 683 1074 l 611 1074 l 501 1235 l 390 1074 l 318 1074 z "},"Ẩ":{"ha":1001,"x_min":47,"x_max":954,"o":"m 774 274 l 226 274 l 110 0 l 47 0 l 472 989 l 529 989 l 954 0 l 892 0 l 774 274 m 750 329 l 500 913 l 250 329 l 750 329 m 669 1214 l 610 1214 l 610 1236 q 624 1272 610 1260 q 667 1297 638 1283 q 697 1312 686 1304 q 707 1331 707 1319 q 643 1361 707 1361 q 556 1344 600 1361 l 539 1396 q 642 1419 588 1419 q 740 1395 704 1419 q 775 1329 775 1371 q 760 1293 775 1306 q 714 1265 744 1281 q 681 1247 692 1256 q 669 1226 669 1239 l 669 1214 m 318 1074 l 475 1285 l 526 1285 l 683 1074 l 611 1074 l 501 1235 l 390 1074 l 318 1074 z "},"Ẫ":{"ha":1001,"x_min":47,"x_max":954,"o":"m 774 274 l 226 274 l 110 0 l 47 0 l 472 989 l 529 989 l 954 0 l 892 0 l 774 274 m 750 329 l 500 913 l 250 329 l 750 329 m 285 1304 q 315 1401 285 1364 q 396 1438 344 1438 q 453 1428 426 1438 q 518 1399 479 1418 q 567 1376 549 1383 q 600 1369 585 1369 q 652 1392 633 1369 q 669 1443 671 1415 l 717 1443 q 687 1347 717 1383 q 606 1310 657 1310 q 549 1319 575 1310 q 483 1349 522 1329 q 435 1371 454 1364 q 401 1378 417 1378 q 349 1355 368 1378 q 332 1304 331 1332 l 285 1304 m 318 1074 l 475 1285 l 526 1285 l 683 1074 l 611 1074 l 501 1235 l 390 1074 l 318 1074 z "},"Ȁ":{"ha":1001,"x_min":47,"x_max":954,"o":"m 774 274 l 226 274 l 110 0 l 47 0 l 472 989 l 529 989 l 954 0 l 892 0 l 774 274 m 750 329 l 500 913 l 250 329 l 750 329 m 271 1282 l 344 1282 l 443 1074 l 406 1074 l 271 1282 m 422 1282 l 499 1282 l 596 1074 l 558 1074 l 422 1282 z "},"Ä":{"ha":1001,"x_min":47,"x_max":954,"o":"m 774 274 l 226 274 l 110 0 l 47 0 l 472 989 l 529 989 l 954 0 l 892 0 l 774 274 m 750 329 l 500 913 l 250 329 l 750 329 m 431 1222 l 431 1138 l 344 1138 l 344 1222 l 431 1222 m 657 1222 l 657 1138 l 571 1138 l 571 1222 l 657 1222 z "},"Ạ":{"ha":1001,"x_min":47,"x_max":954,"o":"m 774 274 l 226 274 l 110 0 l 47 0 l 472 989 l 529 989 l 954 0 l 892 0 l 774 274 m 750 329 l 500 913 l 250 329 l 750 329 m 547 -153 l 547 -243 l 454 -243 l 454 -153 l 547 -153 z "},"À":{"ha":1001,"x_min":47,"x_max":954,"o":"m 774 274 l 226 274 l 110 0 l 47 0 l 472 989 l 529 989 l 954 0 l 892 0 l 774 274 m 750 329 l 500 913 l 250 329 l 750 329 m 301 1282 l 386 1282 l 526 1074 l 475 1074 l 301 1282 z "},"Ả":{"ha":1001,"x_min":47,"x_max":954,"o":"m 774 274 l 226 274 l 110 0 l 47 0 l 472 989 l 529 989 l 954 0 l 892 0 l 774 274 m 750 329 l 500 913 l 250 329 l 750 329 m 531 1074 l 472 1074 l 472 1094 q 487 1133 472 1119 q 529 1164 501 1147 q 558 1183 549 1174 q 568 1203 568 1192 q 551 1224 568 1217 q 506 1231 535 1231 q 417 1214 461 1231 l 400 1267 q 504 1289 450 1289 q 601 1265 567 1289 q 635 1200 635 1242 q 619 1158 635 1172 q 572 1126 603 1143 q 541 1108 551 1117 q 531 1086 531 1099 l 531 1074 z "},"Ȃ":{"ha":1001,"x_min":47,"x_max":954,"o":"m 774 274 l 226 274 l 110 0 l 47 0 l 472 989 l 529 989 l 954 0 l 892 0 l 774 274 m 750 329 l 500 913 l 250 329 l 750 329 m 501 1265 q 629 1231 572 1265 q 717 1118 686 1197 l 661 1094 q 588 1184 625 1160 q 501 1208 551 1208 q 413 1184 450 1208 q 340 1094 376 1160 l 285 1118 q 501 1265 344 1265 z "},"Ā":{"ha":1001,"x_min":47,"x_max":954,"o":"m 774 274 l 226 274 l 110 0 l 47 0 l 472 989 l 529 989 l 954 0 l 892 0 l 774 274 m 750 329 l 500 913 l 250 329 l 750 329 m 296 1210 l 706 1210 l 706 1150 l 296 1150 l 296 1210 z "},"Ą":{"ha":1001,"x_min":47,"x_max":1022,"o":"m 1022 -235 q 914 -267 978 -267 q 801 -226 844 -267 q 757 -124 757 -186 q 787 -27 757 -69 q 875 39 817 15 l 774 274 l 226 274 l 110 0 l 47 0 l 472 989 l 529 989 l 954 0 l 951 0 q 852 -33 885 0 q 819 -118 819 -67 q 846 -187 819 -162 q 917 -212 872 -212 q 1000 -186 954 -212 l 1022 -235 m 750 329 l 500 913 l 250 329 l 750 329 z "},"Å":{"ha":1001,"x_min":47,"x_max":954,"o":"m 774 274 l 226 274 l 110 0 l 47 0 l 458 956 q 391 1002 417 968 q 365 1081 365 1036 q 405 1175 365 1136 q 501 1214 444 1214 q 597 1175 557 1214 q 638 1081 638 1136 q 611 1002 638 1036 q 543 956 585 968 l 954 0 l 892 0 l 774 274 m 429 1081 q 449 1027 429 1049 q 501 1006 469 1006 q 552 1027 532 1006 q 572 1081 572 1049 q 552 1133 572 1113 q 501 1154 532 1154 q 449 1133 469 1154 q 429 1081 429 1113 m 750 329 l 500 913 l 250 329 l 750 329 z "},"Ǻ":{"ha":1001,"x_min":47,"x_max":954,"o":"m 774 274 l 226 274 l 110 0 l 47 0 l 458 956 q 391 1002 417 968 q 365 1081 365 1036 q 405 1175 365 1136 q 501 1214 444 1214 q 579 1189 543 1214 l 703 1315 l 793 1315 l 611 1160 q 638 1081 638 1125 q 611 1002 638 1036 q 543 956 585 968 l 954 0 l 892 0 l 774 274 m 429 1081 q 449 1027 429 1049 q 501 1006 469 1006 q 552 1027 532 1006 q 572 1081 572 1049 q 552 1133 572 1113 q 501 1154 532 1154 q 449 1133 469 1154 q 429 1081 429 1113 m 750 329 l 500 913 l 250 329 l 750 329 z "},"Ã":{"ha":1001,"x_min":47,"x_max":954,"o":"m 774 274 l 226 274 l 110 0 l 47 0 l 472 989 l 529 989 l 954 0 l 892 0 l 774 274 m 750 329 l 500 913 l 250 329 l 750 329 m 285 1114 q 314 1213 285 1176 q 396 1250 343 1250 q 452 1238 426 1250 q 518 1201 478 1226 q 565 1174 546 1183 q 600 1165 583 1165 q 653 1190 635 1165 q 669 1246 671 1214 l 717 1246 q 688 1147 717 1185 q 606 1110 658 1110 q 547 1122 575 1110 q 483 1158 519 1135 q 435 1185 453 1176 q 401 1193 417 1193 q 349 1169 367 1193 q 332 1114 331 1146 l 285 1114 z "},"Æ":{"ha":1383,"x_min":19,"x_max":1304,"o":"m 744 933 l 785 529 l 1276 529 l 1276 474 l 790 474 l 831 56 l 1304 56 l 1304 0 l 785 0 l 758 274 l 244 274 l 82 0 l 19 0 l 608 989 l 1304 989 l 1304 933 l 744 933 m 693 933 l 635 933 l 276 329 l 753 329 l 693 933 z "},"Ǽ":{"ha":1383,"x_min":19,"x_max":1304,"o":"m 744 933 l 785 529 l 1276 529 l 1276 474 l 790 474 l 831 56 l 1304 56 l 1304 0 l 785 0 l 758 274 l 244 274 l 82 0 l 19 0 l 608 989 l 1304 989 l 1304 933 l 744 933 m 693 933 l 635 933 l 276 329 l 753 329 l 693 933 m 668 1074 l 808 1282 l 893 1282 l 719 1074 l 668 1074 z "},"B":{"ha":933,"x_min":135,"x_max":835,"o":"m 656 507 q 788 423 740 485 q 835 268 835 361 q 752 68 835 136 q 515 0 669 0 l 135 0 l 135 989 l 500 989 q 731 922 650 989 q 813 729 813 856 q 772 592 813 649 q 656 507 731 535 m 193 531 l 493 531 q 685 583 619 531 q 750 738 750 636 q 493 935 750 935 l 193 935 l 193 531 m 514 54 q 709 105 646 54 q 772 261 772 156 q 514 474 772 474 l 193 474 l 193 54 l 514 54 z "},"C":{"ha":950,"x_min":94,"x_max":871,"o":"m 535 -11 q 300 49 399 -11 q 148 224 201 110 q 94 496 94 339 q 148 766 94 653 q 300 940 201 879 q 535 1000 399 1000 q 871 867 743 1000 l 842 818 q 697 914 768 885 q 533 943 625 943 q 255 826 354 943 q 156 496 156 708 q 254 164 156 282 q 533 46 353 46 q 697 75 625 46 q 842 171 768 104 l 871 122 q 535 -11 743 -11 z "},"Ć":{"ha":950,"x_min":94,"x_max":871,"o":"m 535 -11 q 300 49 399 -11 q 148 224 201 110 q 94 496 94 339 q 148 766 94 653 q 300 940 201 879 q 535 1000 399 1000 q 871 867 743 1000 l 842 818 q 697 914 768 885 q 533 943 625 943 q 255 826 354 943 q 156 496 156 708 q 254 164 156 282 q 533 46 353 46 q 697 75 625 46 q 842 171 768 104 l 871 122 q 535 -11 743 -11 m 510 1074 l 650 1282 l 735 1282 l 561 1074 l 510 1074 z "},"Č":{"ha":950,"x_min":94,"x_max":871,"o":"m 535 -11 q 300 49 399 -11 q 148 224 201 110 q 94 496 94 339 q 148 766 94 653 q 300 940 201 879 q 535 1000 399 1000 q 871 867 743 1000 l 842 818 q 697 914 768 885 q 533 943 625 943 q 255 826 354 943 q 156 496 156 708 q 254 164 156 282 q 533 46 353 46 q 697 75 625 46 q 842 171 768 104 l 871 122 q 535 -11 743 -11 m 718 1282 l 561 1074 l 510 1074 l 353 1282 l 425 1282 l 536 1124 l 646 1282 l 718 1282 z "},"Ç":{"ha":950,"x_min":94,"x_max":871,"o":"m 533 46 q 697 75 625 46 q 842 171 768 104 l 871 122 q 550 -11 746 -7 l 546 -62 q 588 -57 564 -57 q 658 -81 626 -57 q 689 -154 689 -106 q 649 -235 689 -204 q 542 -267 610 -267 q 478 -260 511 -267 q 422 -240 446 -254 l 442 -192 q 544 -211 486 -211 q 608 -196 586 -211 q 629 -154 629 -181 q 617 -122 629 -133 q 579 -111 604 -111 q 507 -126 546 -111 l 481 -107 l 490 -10 q 279 63 368 0 q 142 237 190 126 q 94 496 94 347 q 148 766 94 653 q 300 940 201 879 q 535 1000 399 1000 q 871 867 743 1000 l 842 818 q 697 914 768 885 q 533 943 625 943 q 255 826 354 943 q 156 496 156 708 q 254 164 156 282 q 533 46 353 46 z "},"Ḉ":{"ha":950,"x_min":94,"x_max":871,"o":"m 561 1074 l 510 1074 l 650 1282 l 735 1282 l 561 1074 m 533 46 q 697 75 625 46 q 842 171 768 104 l 871 122 q 550 -11 746 -7 l 546 -62 q 588 -57 564 -57 q 658 -81 626 -57 q 689 -154 689 -106 q 649 -235 689 -204 q 542 -267 610 -267 q 478 -260 511 -267 q 422 -240 446 -254 l 442 -192 q 544 -211 486 -211 q 608 -196 586 -211 q 629 -154 629 -181 q 617 -122 629 -133 q 579 -111 604 -111 q 507 -126 546 -111 l 481 -107 l 490 -10 q 279 63 368 0 q 142 237 190 126 q 94 496 94 347 q 148 766 94 653 q 300 940 201 879 q 535 1000 399 1000 q 871 867 743 1000 l 842 818 q 697 914 768 885 q 533 943 625 943 q 255 826 354 943 q 156 496 156 708 q 254 164 156 282 q 533 46 353 46 z "},"Ĉ":{"ha":950,"x_min":94,"x_max":871,"o":"m 535 -11 q 300 49 399 -11 q 148 224 201 110 q 94 496 94 339 q 148 766 94 653 q 300 940 201 879 q 535 1000 399 1000 q 871 867 743 1000 l 842 818 q 697 914 768 885 q 533 943 625 943 q 255 826 354 943 q 156 496 156 708 q 254 164 156 282 q 533 46 353 46 q 697 75 625 46 q 842 171 768 104 l 871 122 q 535 -11 743 -11 m 353 1074 l 510 1282 l 561 1282 l 718 1074 l 646 1074 l 536 1232 l 425 1074 l 353 1074 z "},"Ċ":{"ha":950,"x_min":94,"x_max":871,"o":"m 535 -11 q 300 49 399 -11 q 148 224 201 110 q 94 496 94 339 q 148 766 94 653 q 300 940 201 879 q 535 1000 399 1000 q 871 867 743 1000 l 842 818 q 697 914 768 885 q 533 943 625 943 q 255 826 354 943 q 156 496 156 708 q 254 164 156 282 q 533 46 353 46 q 697 75 625 46 q 842 171 768 104 l 871 122 q 535 -11 743 -11 m 581 1224 l 581 1135 l 490 1135 l 490 1224 l 581 1224 z "},"D":{"ha":1018,"x_min":135,"x_max":924,"o":"m 135 989 l 439 989 q 798 861 672 989 q 924 496 924 733 q 797 129 924 258 q 439 0 671 0 l 135 0 l 135 989 m 438 53 q 753 165 647 53 q 860 496 860 276 q 753 826 860 715 q 438 936 647 936 l 192 936 l 192 53 l 438 53 z "},"Ǆ":{"ha":1810,"x_min":135,"x_max":1756,"o":"m 135 989 l 439 989 q 798 861 672 989 q 924 496 924 733 q 797 129 924 258 q 439 0 671 0 l 135 0 l 135 989 m 438 53 q 753 165 647 53 q 860 496 860 276 q 753 826 860 715 q 438 936 647 936 l 192 936 l 192 53 l 438 53 m 1756 0 l 1090 0 l 1089 -3 l 1089 0 l 1056 0 l 1056 43 l 1672 935 l 1056 935 l 1056 989 l 1710 989 l 1711 992 l 1711 989 l 1742 989 l 1742 946 l 1128 54 l 1756 54 l 1756 0 m 1583 1282 l 1426 1074 l 1375 1074 l 1218 1282 l 1290 1282 l 1401 1124 l 1511 1282 l 1583 1282 z "},"Ð":{"ha":1024,"x_min":6,"x_max":929,"o":"m 444 989 q 803 862 678 989 q 929 496 929 735 q 803 129 929 258 q 444 0 676 0 l 140 0 l 140 476 l 6 476 l 6 529 l 140 529 l 140 989 l 444 989 m 443 53 q 759 165 653 53 q 865 496 865 276 q 759 826 865 715 q 443 936 653 936 l 199 936 l 199 529 l 474 529 l 474 476 l 199 476 l 199 53 l 443 53 z "},"Ď":{"ha":1018,"x_min":135,"x_max":924,"o":"m 135 989 l 439 989 q 798 861 672 989 q 924 496 924 733 q 797 129 924 258 q 439 0 671 0 l 135 0 l 135 989 m 438 53 q 753 165 647 53 q 860 496 860 276 q 753 826 860 715 q 438 936 647 936 l 192 936 l 192 53 l 438 53 m 690 1282 l 533 1074 l 482 1074 l 325 1282 l 397 1282 l 508 1124 l 618 1282 l 690 1282 z "},"Đ":{"ha":1024,"x_min":6,"x_max":929,"o":"m 444 989 q 803 862 678 989 q 929 496 929 735 q 803 129 929 258 q 444 0 676 0 l 140 0 l 140 476 l 6 476 l 6 529 l 140 529 l 140 989 l 444 989 m 443 53 q 759 165 653 53 q 865 496 865 276 q 759 826 865 715 q 443 936 653 936 l 199 936 l 199 529 l 474 529 l 474 476 l 199 476 l 199 53 l 443 53 z "},"Ḍ":{"ha":1018,"x_min":135,"x_max":924,"o":"m 135 989 l 439 989 q 798 861 672 989 q 924 496 924 733 q 797 129 924 258 q 439 0 671 0 l 135 0 l 135 989 m 438 53 q 753 165 647 53 q 860 496 860 276 q 753 826 860 715 q 438 936 647 936 l 192 936 l 192 53 l 438 53 m 556 -153 l 556 -243 l 463 -243 l 463 -153 l 556 -153 z "},"Ḏ":{"ha":1018,"x_min":135,"x_max":924,"o":"m 135 989 l 439 989 q 798 861 672 989 q 924 496 924 733 q 797 129 924 258 q 439 0 671 0 l 135 0 l 135 989 m 438 53 q 753 165 647 53 q 860 496 860 276 q 753 826 860 715 q 438 936 647 936 l 192 936 l 192 53 l 438 53 m 304 -167 l 714 -167 l 714 -228 l 304 -228 l 304 -167 z "},"ǅ":{"ha":1729,"x_min":135,"x_max":1663,"o":"m 135 989 l 439 989 q 798 861 672 989 q 924 496 924 733 q 797 129 924 258 q 439 0 671 0 l 135 0 l 135 989 m 438 53 q 753 165 647 53 q 860 496 860 276 q 753 826 860 715 q 438 936 647 936 l 192 936 l 192 53 l 438 53 m 1663 51 l 1663 0 l 1089 0 l 1089 39 l 1574 644 l 1110 644 l 1110 694 l 1646 694 l 1646 647 l 1169 51 l 1663 51 m 1558 1067 l 1403 786 l 1349 786 l 1193 1067 l 1265 1067 l 1376 844 l 1486 1067 l 1558 1067 z "},"E":{"ha":808,"x_min":135,"x_max":729,"o":"m 135 989 l 729 989 l 729 935 l 193 935 l 193 529 l 701 529 l 701 474 l 193 474 l 193 54 l 729 54 l 729 0 l 135 0 l 135 989 z "},"É":{"ha":808,"x_min":135,"x_max":729,"o":"m 135 989 l 729 989 l 729 935 l 193 935 l 193 529 l 701 529 l 701 474 l 193 474 l 193 54 l 729 54 l 729 0 l 135 0 l 135 989 m 422 1074 l 563 1282 l 647 1282 l 474 1074 l 422 1074 z "},"Ĕ":{"ha":808,"x_min":135,"x_max":729,"o":"m 135 989 l 729 989 l 729 935 l 193 935 l 193 529 l 701 529 l 701 474 l 193 474 l 193 54 l 729 54 l 729 0 l 135 0 l 135 989 m 449 1092 q 319 1126 376 1092 q 232 1239 263 1160 l 288 1264 q 360 1173 324 1197 q 449 1149 397 1149 q 535 1173 499 1149 q 608 1264 572 1197 l 664 1239 q 449 1092 604 1092 z "},"Ě":{"ha":808,"x_min":135,"x_max":729,"o":"m 135 989 l 729 989 l 729 935 l 193 935 l 193 529 l 701 529 l 701 474 l 193 474 l 193 54 l 729 54 l 729 0 l 135 0 l 135 989 m 631 1282 l 474 1074 l 422 1074 l 265 1282 l 338 1282 l 449 1124 l 558 1282 l 631 1282 z "},"Ȩ":{"ha":808,"x_min":135,"x_max":729,"o":"m 193 935 l 193 529 l 701 529 l 701 474 l 193 474 l 193 54 l 729 54 l 729 0 l 467 0 l 461 -62 q 503 -57 479 -57 q 573 -81 542 -57 q 604 -154 604 -106 q 565 -235 604 -204 q 457 -267 525 -267 q 394 -260 426 -267 q 338 -240 361 -254 l 357 -192 q 460 -211 401 -211 q 523 -196 501 -211 q 544 -154 544 -181 q 532 -122 544 -133 q 494 -111 519 -111 q 422 -126 461 -111 l 396 -107 l 407 0 l 135 0 l 135 989 l 729 989 l 729 935 l 193 935 z "},"Ḝ":{"ha":808,"x_min":135,"x_max":729,"o":"m 449 1092 q 319 1126 376 1092 q 232 1239 263 1160 l 288 1264 q 360 1173 324 1197 q 449 1149 397 1149 q 535 1173 499 1149 q 608 1264 572 1197 l 664 1239 q 449 1092 604 1092 m 193 935 l 193 529 l 701 529 l 701 474 l 193 474 l 193 54 l 729 54 l 729 0 l 467 0 l 461 -62 q 503 -57 479 -57 q 573 -81 542 -57 q 604 -154 604 -106 q 565 -235 604 -204 q 457 -267 525 -267 q 394 -260 426 -267 q 338 -240 361 -254 l 357 -192 q 460 -211 401 -211 q 523 -196 501 -211 q 544 -154 544 -181 q 532 -122 544 -133 q 494 -111 519 -111 q 422 -126 461 -111 l 396 -107 l 407 0 l 135 0 l 135 989 l 729 989 l 729 935 l 193 935 z "},"Ê":{"ha":808,"x_min":135,"x_max":729,"o":"m 135 989 l 729 989 l 729 935 l 193 935 l 193 529 l 701 529 l 701 474 l 193 474 l 193 54 l 729 54 l 729 0 l 135 0 l 135 989 m 265 1074 l 422 1282 l 474 1282 l 631 1074 l 558 1074 l 449 1232 l 338 1074 l 265 1074 z "},"Ế":{"ha":808,"x_min":135,"x_max":790,"o":"m 135 989 l 729 989 l 729 935 l 193 935 l 193 529 l 701 529 l 701 474 l 193 474 l 193 54 l 729 54 l 729 0 l 135 0 l 135 989 m 558 1214 l 703 1413 l 790 1413 l 610 1214 l 558 1214 m 265 1074 l 422 1285 l 474 1285 l 631 1074 l 558 1074 l 449 1235 l 338 1074 l 265 1074 z "},"Ệ":{"ha":808,"x_min":135,"x_max":729,"o":"m 135 989 l 729 989 l 729 935 l 193 935 l 193 529 l 701 529 l 701 474 l 193 474 l 193 54 l 729 54 l 729 0 l 135 0 l 135 989 m 494 -153 l 494 -243 l 401 -243 l 401 -153 l 494 -153 m 265 1074 l 422 1282 l 474 1282 l 631 1074 l 558 1074 l 449 1232 l 338 1074 l 265 1074 z "},"Ề":{"ha":808,"x_min":135,"x_max":729,"o":"m 135 989 l 729 989 l 729 935 l 193 935 l 193 529 l 701 529 l 701 474 l 193 474 l 193 54 l 729 54 l 729 0 l 135 0 l 135 989 m 471 1413 l 557 1413 l 669 1214 l 619 1214 l 471 1413 m 265 1074 l 422 1285 l 474 1285 l 631 1074 l 558 1074 l 449 1235 l 338 1074 l 265 1074 z "},"Ể":{"ha":808,"x_min":135,"x_max":729,"o":"m 135 989 l 729 989 l 729 935 l 193 935 l 193 529 l 701 529 l 701 474 l 193 474 l 193 54 l 729 54 l 729 0 l 135 0 l 135 989 m 617 1214 l 557 1214 l 557 1236 q 571 1272 557 1260 q 614 1297 585 1283 q 644 1312 633 1304 q 654 1331 654 1319 q 590 1361 654 1361 q 503 1344 547 1361 l 486 1396 q 589 1419 535 1419 q 687 1395 651 1419 q 722 1329 722 1371 q 707 1293 722 1306 q 661 1265 692 1281 q 628 1247 639 1256 q 617 1226 617 1239 l 617 1214 m 265 1074 l 422 1285 l 474 1285 l 631 1074 l 558 1074 l 449 1235 l 338 1074 l 265 1074 z "},"Ễ":{"ha":808,"x_min":135,"x_max":729,"o":"m 135 989 l 729 989 l 729 935 l 193 935 l 193 529 l 701 529 l 701 474 l 193 474 l 193 54 l 729 54 l 729 0 l 135 0 l 135 989 m 232 1304 q 262 1401 232 1364 q 343 1438 292 1438 q 400 1428 374 1438 q 465 1399 426 1418 q 514 1376 496 1383 q 547 1369 532 1369 q 599 1392 581 1369 q 617 1443 618 1415 l 664 1443 q 634 1347 664 1383 q 553 1310 604 1310 q 496 1319 522 1310 q 431 1349 469 1329 q 383 1371 401 1364 q 349 1378 364 1378 q 297 1355 315 1378 q 279 1304 278 1332 l 232 1304 m 265 1074 l 422 1285 l 474 1285 l 631 1074 l 558 1074 l 449 1235 l 338 1074 l 265 1074 z "},"Ȅ":{"ha":808,"x_min":135,"x_max":729,"o":"m 135 989 l 729 989 l 729 935 l 193 935 l 193 529 l 701 529 l 701 474 l 193 474 l 193 54 l 729 54 l 729 0 l 135 0 l 135 989 m 218 1282 l 292 1282 l 390 1074 l 353 1074 l 218 1282 m 369 1282 l 446 1282 l 543 1074 l 506 1074 l 369 1282 z "},"Ë":{"ha":808,"x_min":135,"x_max":729,"o":"m 135 989 l 729 989 l 729 935 l 193 935 l 193 529 l 701 529 l 701 474 l 193 474 l 193 54 l 729 54 l 729 0 l 135 0 l 135 989 m 378 1222 l 378 1138 l 292 1138 l 292 1222 l 378 1222 m 604 1222 l 604 1138 l 518 1138 l 518 1222 l 604 1222 z "},"Ė":{"ha":808,"x_min":135,"x_max":729,"o":"m 135 989 l 729 989 l 729 935 l 193 935 l 193 529 l 701 529 l 701 474 l 193 474 l 193 54 l 729 54 l 729 0 l 135 0 l 135 989 m 493 1224 l 493 1135 l 403 1135 l 403 1224 l 493 1224 z "},"Ẹ":{"ha":808,"x_min":135,"x_max":729,"o":"m 135 989 l 729 989 l 729 935 l 193 935 l 193 529 l 701 529 l 701 474 l 193 474 l 193 54 l 729 54 l 729 0 l 135 0 l 135 989 m 494 -153 l 494 -243 l 401 -243 l 401 -153 l 494 -153 z "},"È":{"ha":808,"x_min":135,"x_max":729,"o":"m 135 989 l 729 989 l 729 935 l 193 935 l 193 529 l 701 529 l 701 474 l 193 474 l 193 54 l 729 54 l 729 0 l 135 0 l 135 989 m 249 1282 l 333 1282 l 474 1074 l 422 1074 l 249 1282 z "},"Ẻ":{"ha":808,"x_min":135,"x_max":729,"o":"m 135 989 l 729 989 l 729 935 l 193 935 l 193 529 l 701 529 l 701 474 l 193 474 l 193 54 l 729 54 l 729 0 l 135 0 l 135 989 m 478 1074 l 419 1074 l 419 1094 q 434 1133 419 1119 q 476 1164 449 1147 q 506 1183 496 1174 q 515 1203 515 1192 q 499 1224 515 1217 q 453 1231 482 1231 q 364 1214 408 1231 l 347 1267 q 451 1289 397 1289 q 548 1265 514 1289 q 582 1200 582 1242 q 566 1158 582 1172 q 519 1126 550 1143 q 488 1108 499 1117 q 478 1086 478 1099 l 478 1074 z "},"Ȇ":{"ha":808,"x_min":135,"x_max":729,"o":"m 135 989 l 729 989 l 729 935 l 193 935 l 193 529 l 701 529 l 701 474 l 193 474 l 193 54 l 729 54 l 729 0 l 135 0 l 135 989 m 449 1265 q 576 1231 519 1265 q 664 1118 633 1197 l 608 1094 q 535 1184 572 1160 q 449 1208 499 1208 q 360 1184 397 1208 q 288 1094 324 1160 l 232 1118 q 449 1265 292 1265 z "},"Ē":{"ha":808,"x_min":135,"x_max":729,"o":"m 135 989 l 729 989 l 729 935 l 193 935 l 193 529 l 701 529 l 701 474 l 193 474 l 193 54 l 729 54 l 729 0 l 135 0 l 135 989 m 243 1210 l 653 1210 l 653 1150 l 243 1150 l 243 1210 z "},"Ḗ":{"ha":808,"x_min":135,"x_max":729,"o":"m 135 989 l 729 989 l 729 935 l 193 935 l 193 529 l 701 529 l 701 474 l 193 474 l 193 54 l 729 54 l 729 0 l 135 0 l 135 989 m 243 1210 l 653 1210 l 653 1150 l 243 1150 l 243 1210 m 422 1299 l 563 1507 l 647 1507 l 474 1299 l 422 1299 z "},"Ḕ":{"ha":808,"x_min":135,"x_max":729,"o":"m 135 989 l 729 989 l 729 935 l 193 935 l 193 529 l 701 529 l 701 474 l 193 474 l 193 54 l 729 54 l 729 0 l 135 0 l 135 989 m 243 1210 l 653 1210 l 653 1150 l 243 1150 l 243 1210 m 249 1507 l 333 1507 l 474 1299 l 422 1299 l 249 1507 z "},"Ę":{"ha":808,"x_min":135,"x_max":774,"o":"m 774 -235 q 665 -267 726 -267 q 551 -227 594 -267 q 508 -124 508 -187 q 567 0 508 -50 l 135 0 l 135 989 l 729 989 l 729 935 l 193 935 l 193 529 l 701 529 l 701 474 l 193 474 l 193 54 l 729 54 l 729 0 l 713 0 q 607 -33 643 0 q 571 -118 571 -65 q 597 -187 571 -162 q 668 -212 624 -212 q 750 -186 704 -212 l 774 -235 z "},"Ẽ":{"ha":808,"x_min":135,"x_max":729,"o":"m 135 989 l 729 989 l 729 935 l 193 935 l 193 529 l 701 529 l 701 474 l 193 474 l 193 54 l 729 54 l 729 0 l 135 0 l 135 989 m 232 1114 q 261 1213 232 1176 q 343 1250 290 1250 q 399 1238 374 1250 q 465 1201 425 1226 q 512 1174 493 1183 q 547 1165 531 1165 q 600 1190 582 1165 q 617 1246 618 1214 l 664 1246 q 635 1147 664 1185 q 553 1110 606 1110 q 494 1122 522 1110 q 431 1158 467 1135 q 382 1185 400 1176 q 349 1193 364 1193 q 296 1169 314 1193 q 279 1114 278 1146 l 232 1114 z "},"F":{"ha":769,"x_min":135,"x_max":715,"o":"m 135 989 l 715 989 l 715 935 l 192 935 l 192 529 l 688 529 l 688 475 l 192 475 l 192 0 l 135 0 l 135 989 z "},"G":{"ha":1004,"x_min":94,"x_max":881,"o":"m 881 499 l 881 56 q 736 8 829 26 q 547 -11 643 -11 q 303 49 406 -11 q 148 224 201 110 q 94 496 94 338 q 148 767 94 654 q 302 940 201 881 q 542 1000 403 1000 q 874 867 749 1000 l 844 818 q 700 914 772 885 q 538 943 628 943 q 256 826 356 943 q 156 496 156 710 q 257 161 156 278 q 547 44 358 44 q 697 58 624 44 q 826 96 769 72 l 826 442 l 553 442 l 553 499 l 881 499 z "},"Ğ":{"ha":1004,"x_min":94,"x_max":881,"o":"m 881 499 l 881 56 q 736 8 829 26 q 547 -11 643 -11 q 303 49 406 -11 q 148 224 201 110 q 94 496 94 338 q 148 767 94 654 q 302 940 201 881 q 542 1000 403 1000 q 874 867 749 1000 l 844 818 q 700 914 772 885 q 538 943 628 943 q 256 826 356 943 q 156 496 156 710 q 257 161 156 278 q 547 44 358 44 q 697 58 624 44 q 826 96 769 72 l 826 442 l 553 442 l 553 499 l 881 499 m 538 1092 q 408 1126 465 1092 q 321 1239 351 1160 l 376 1264 q 449 1173 413 1197 q 538 1149 486 1149 q 624 1173 588 1149 q 697 1264 661 1197 l 753 1239 q 538 1092 693 1092 z "},"Ǧ":{"ha":1004,"x_min":94,"x_max":881,"o":"m 881 499 l 881 56 q 736 8 829 26 q 547 -11 643 -11 q 303 49 406 -11 q 148 224 201 110 q 94 496 94 338 q 148 767 94 654 q 302 940 201 881 q 542 1000 403 1000 q 874 867 749 1000 l 844 818 q 700 914 772 885 q 538 943 628 943 q 256 826 356 943 q 156 496 156 710 q 257 161 156 278 q 547 44 358 44 q 697 58 624 44 q 826 96 769 72 l 826 442 l 553 442 l 553 499 l 881 499 m 719 1282 l 563 1074 l 511 1074 l 354 1282 l 426 1282 l 538 1124 l 647 1282 l 719 1282 z "},"Ĝ":{"ha":1004,"x_min":94,"x_max":881,"o":"m 881 499 l 881 56 q 736 8 829 26 q 547 -11 643 -11 q 303 49 406 -11 q 148 224 201 110 q 94 496 94 338 q 148 767 94 654 q 302 940 201 881 q 542 1000 403 1000 q 874 867 749 1000 l 844 818 q 700 914 772 885 q 538 943 628 943 q 256 826 356 943 q 156 496 156 710 q 257 161 156 278 q 547 44 358 44 q 697 58 624 44 q 826 96 769 72 l 826 442 l 553 442 l 553 499 l 881 499 m 354 1074 l 511 1282 l 563 1282 l 719 1074 l 647 1074 l 538 1232 l 426 1074 l 354 1074 z "},"Ģ":{"ha":1004,"x_min":94,"x_max":881,"o":"m 881 499 l 881 56 q 736 8 829 26 q 547 -11 643 -11 q 303 49 406 -11 q 148 224 201 110 q 94 496 94 338 q 148 767 94 654 q 302 940 201 881 q 542 1000 403 1000 q 874 867 749 1000 l 844 818 q 700 914 772 885 q 538 943 628 943 q 256 826 356 943 q 156 496 156 710 q 257 161 156 278 q 547 44 358 44 q 697 58 624 44 q 826 96 769 72 l 826 442 l 553 442 l 553 499 l 881 499 m 596 -107 l 596 -182 q 581 -274 596 -233 q 531 -351 567 -315 l 493 -321 q 531 -261 521 -289 q 543 -197 542 -233 l 497 -197 l 497 -107 l 596 -107 z "},"Ġ":{"ha":1004,"x_min":94,"x_max":881,"o":"m 881 499 l 881 56 q 736 8 829 26 q 547 -11 643 -11 q 303 49 406 -11 q 148 224 201 110 q 94 496 94 338 q 148 767 94 654 q 302 940 201 881 q 542 1000 403 1000 q 874 867 749 1000 l 844 818 q 700 914 772 885 q 538 943 628 943 q 256 826 356 943 q 156 496 156 710 q 257 161 156 278 q 547 44 358 44 q 697 58 624 44 q 826 96 769 72 l 826 442 l 553 442 l 553 499 l 881 499 m 582 1224 l 582 1135 l 492 1135 l 492 1224 l 582 1224 z "},"Ḡ":{"ha":1004,"x_min":94,"x_max":881,"o":"m 881 499 l 881 56 q 736 8 829 26 q 547 -11 643 -11 q 303 49 406 -11 q 148 224 201 110 q 94 496 94 338 q 148 767 94 654 q 302 940 201 881 q 542 1000 403 1000 q 874 867 749 1000 l 844 818 q 700 914 772 885 q 538 943 628 943 q 256 826 356 943 q 156 496 156 710 q 257 161 156 278 q 547 44 358 44 q 697 58 624 44 q 826 96 769 72 l 826 442 l 553 442 l 553 499 l 881 499 m 332 1210 l 742 1210 l 742 1150 l 332 1150 l 332 1210 z "},"H":{"ha":1054,"x_min":135,"x_max":919,"o":"m 919 989 l 919 0 l 860 0 l 860 475 l 193 475 l 193 0 l 135 0 l 135 989 l 193 989 l 193 529 l 860 529 l 860 989 l 919 989 z "},"Ħ":{"ha":1065,"x_min":6,"x_max":1060,"o":"m 1060 739 l 925 739 l 925 0 l 865 0 l 865 475 l 200 475 l 200 0 l 140 0 l 140 739 l 6 739 l 6 793 l 140 793 l 140 989 l 200 989 l 200 793 l 865 793 l 865 989 l 925 989 l 925 793 l 1060 793 l 1060 739 m 865 739 l 200 739 l 200 529 l 865 529 l 865 739 z "},"Ḫ":{"ha":1054,"x_min":135,"x_max":919,"o":"m 919 989 l 919 0 l 860 0 l 860 475 l 193 475 l 193 0 l 135 0 l 135 989 l 193 989 l 193 529 l 860 529 l 860 989 l 919 989 m 528 -283 q 400 -245 457 -283 q 311 -121 343 -207 l 368 -97 q 438 -197 399 -167 q 528 -228 478 -228 q 617 -197 578 -228 q 686 -97 656 -167 l 743 -119 q 656 -244 713 -206 q 528 -283 599 -283 z "},"Ĥ":{"ha":1054,"x_min":135,"x_max":919,"o":"m 919 989 l 919 0 l 860 0 l 860 475 l 193 475 l 193 0 l 135 0 l 135 989 l 193 989 l 193 529 l 860 529 l 860 989 l 919 989 m 343 1074 l 500 1282 l 551 1282 l 708 1074 l 636 1074 l 526 1232 l 415 1074 l 343 1074 z "},"Ḥ":{"ha":1054,"x_min":135,"x_max":919,"o":"m 919 989 l 919 0 l 860 0 l 860 475 l 193 475 l 193 0 l 135 0 l 135 989 l 193 989 l 193 529 l 860 529 l 860 989 l 919 989 m 574 -153 l 574 -243 l 481 -243 l 481 -153 l 574 -153 z "},"I":{"ha":326,"x_min":135,"x_max":192,"o":"m 135 989 l 192 989 l 192 0 l 135 0 l 135 989 z "},"Í":{"ha":326,"x_min":135,"x_max":363,"o":"m 135 989 l 192 989 l 192 0 l 135 0 l 135 989 m 138 1074 l 278 1282 l 363 1282 l 189 1074 l 138 1074 z "},"Ĭ":{"ha":326,"x_min":-53,"x_max":379,"o":"m 135 989 l 192 989 l 192 0 l 135 0 l 135 989 m 164 1092 q 35 1126 92 1092 q -53 1239 -22 1160 l 3 1264 q 76 1173 39 1197 q 164 1149 113 1149 q 251 1173 214 1149 q 324 1264 288 1197 l 379 1239 q 164 1092 319 1092 z "},"Î":{"ha":326,"x_min":-19,"x_max":346,"o":"m 135 989 l 192 989 l 192 0 l 135 0 l 135 989 m -19 1074 l 138 1282 l 189 1282 l 346 1074 l 274 1074 l 164 1232 l 53 1074 l -19 1074 z "},"Ȉ":{"ha":326,"x_min":-67,"x_max":258,"o":"m 135 989 l 192 989 l 192 0 l 135 0 l 135 989 m -67 1282 l 7 1282 l 106 1074 l 68 1074 l -67 1282 m 85 1282 l 161 1282 l 258 1074 l 221 1074 l 85 1282 z "},"Ï":{"ha":326,"x_min":7,"x_max":319,"o":"m 135 989 l 192 989 l 192 0 l 135 0 l 135 989 m 93 1222 l 93 1138 l 7 1138 l 7 1222 l 93 1222 m 319 1222 l 319 1138 l 233 1138 l 233 1222 l 319 1222 z "},"Ḯ":{"ha":326,"x_min":7,"x_max":363,"o":"m 135 989 l 192 989 l 192 0 l 135 0 l 135 989 m 93 1222 l 93 1138 l 7 1138 l 7 1222 l 93 1222 m 319 1222 l 319 1138 l 233 1138 l 233 1222 l 319 1222 m 138 1299 l 278 1507 l 363 1507 l 189 1299 l 138 1299 z "},"İ":{"ha":326,"x_min":118,"x_max":208,"o":"m 135 989 l 192 989 l 192 0 l 135 0 l 135 989 m 208 1224 l 208 1135 l 118 1135 l 118 1224 l 208 1224 z "},"Ị":{"ha":326,"x_min":117,"x_max":210,"o":"m 135 989 l 192 989 l 192 0 l 135 0 l 135 989 m 210 -153 l 210 -243 l 117 -243 l 117 -153 l 210 -153 z "},"Ì":{"ha":326,"x_min":-36,"x_max":192,"o":"m 135 989 l 192 989 l 192 0 l 135 0 l 135 989 m -36 1282 l 49 1282 l 189 1074 l 138 1074 l -36 1282 z "},"Ỉ":{"ha":326,"x_min":63,"x_max":297,"o":"m 135 989 l 192 989 l 192 0 l 135 0 l 135 989 m 193 1074 l 135 1074 l 135 1094 q 149 1133 135 1119 q 192 1164 164 1147 q 221 1183 211 1174 q 231 1203 231 1192 q 214 1224 231 1217 q 168 1231 197 1231 q 79 1214 124 1231 l 63 1267 q 167 1289 113 1289 q 263 1265 229 1289 q 297 1200 297 1242 q 281 1158 297 1172 q 235 1126 265 1143 q 203 1108 214 1117 q 193 1086 193 1099 l 193 1074 z "},"Ȋ":{"ha":326,"x_min":-53,"x_max":379,"o":"m 135 989 l 192 989 l 192 0 l 135 0 l 135 989 m 164 1265 q 292 1231 235 1265 q 379 1118 349 1197 l 324 1094 q 251 1184 288 1160 q 164 1208 214 1208 q 76 1184 113 1208 q 3 1094 39 1160 l -53 1118 q 164 1265 7 1265 z "},"Ī":{"ha":326,"x_min":-42,"x_max":368,"o":"m 135 989 l 192 989 l 192 0 l 135 0 l 135 989 m -42 1210 l 368 1210 l 368 1150 l -42 1150 l -42 1210 z "},"Į":{"ha":326,"x_min":-4,"x_max":261,"o":"m 261 -235 q 151 -267 217 -267 q 39 -226 82 -267 q -4 -124 -4 -186 q 32 -22 -4 -67 q 135 43 68 22 l 135 989 l 192 989 l 192 0 l 188 0 q 94 -34 128 0 q 60 -118 60 -68 q 85 -187 60 -162 q 154 -212 111 -212 q 194 -206 171 -212 q 239 -186 218 -199 l 261 -235 z "},"Ĩ":{"ha":326,"x_min":-53,"x_max":379,"o":"m 135 989 l 192 989 l 192 0 l 135 0 l 135 989 m -53 1114 q -24 1213 -53 1176 q 58 1250 6 1250 q 115 1238 89 1250 q 181 1201 140 1226 q 227 1174 208 1183 q 263 1165 246 1165 q 315 1190 297 1165 q 332 1246 333 1214 l 379 1246 q 350 1147 379 1185 q 268 1110 321 1110 q 210 1122 238 1110 q 146 1158 182 1135 q 97 1185 115 1176 q 64 1193 79 1193 q 11 1169 29 1193 q -6 1114 -7 1146 l -53 1114 z "},"J":{"ha":417,"x_min":-11,"x_max":282,"o":"m -11 -190 q 89 -203 47 -203 q 194 -158 163 -203 q 225 -7 225 -112 l 225 989 l 282 989 l 282 -10 q 238 -201 282 -143 q 93 -258 193 -258 q -11 -247 51 -258 l -11 -190 z "},"Ĵ":{"ha":417,"x_min":-11,"x_max":436,"o":"m -11 -190 q 89 -203 47 -203 q 194 -158 163 -203 q 225 -7 225 -112 l 225 989 l 282 989 l 282 -10 q 238 -201 282 -143 q 93 -258 193 -258 q -11 -247 51 -258 l -11 -190 m 71 1074 l 228 1282 l 279 1282 l 436 1074 l 364 1074 l 254 1232 l 143 1074 l 71 1074 z "},"K":{"ha":840,"x_min":135,"x_max":832,"o":"m 746 0 l 192 478 l 192 0 l 135 0 l 135 989 l 192 989 l 192 526 l 717 989 l 800 989 l 251 503 l 832 0 l 746 0 z "},"Ķ":{"ha":840,"x_min":135,"x_max":832,"o":"m 746 0 l 192 478 l 192 0 l 135 0 l 135 989 l 192 989 l 192 526 l 717 989 l 800 989 l 251 503 l 832 0 l 746 0 m 472 -107 l 472 -182 q 458 -274 472 -233 q 407 -351 443 -315 l 369 -321 q 408 -261 397 -289 q 419 -197 418 -233 l 374 -197 l 374 -107 l 472 -107 z "},"L":{"ha":739,"x_min":135,"x_max":718,"o":"m 135 989 l 192 989 l 192 53 l 718 53 l 718 0 l 135 0 l 135 989 z "},"Ǉ":{"ha":1028,"x_min":135,"x_max":894,"o":"m 135 989 l 192 989 l 192 53 l 676 53 l 676 0 l 135 0 l 135 989 m 599 -190 q 699 -203 657 -203 q 803 -158 772 -203 q 835 -7 835 -114 l 835 989 l 894 989 l 894 -10 q 849 -200 894 -142 q 703 -258 804 -258 q 599 -247 661 -258 l 599 -190 z "},"Ĺ":{"ha":739,"x_min":135,"x_max":718,"o":"m 135 989 l 192 989 l 192 53 l 718 53 l 718 0 l 135 0 l 135 989 m 138 1074 l 278 1282 l 363 1282 l 189 1074 l 138 1074 z "},"Ľ":{"ha":739,"x_min":135,"x_max":718,"o":"m 135 989 l 192 989 l 192 53 l 718 53 l 718 0 l 135 0 l 135 989 m 310 725 l 310 989 l 385 989 l 349 725 l 310 725 z "},"Ļ":{"ha":739,"x_min":135,"x_max":718,"o":"m 135 989 l 192 989 l 192 53 l 718 53 l 718 0 l 135 0 l 135 989 m 478 -107 l 478 -182 q 463 -274 478 -233 q 413 -351 449 -315 l 375 -321 q 413 -261 403 -289 q 425 -197 424 -233 l 379 -197 l 379 -107 l 478 -107 z "},"Ŀ":{"ha":739,"x_min":135,"x_max":718,"o":"m 135 989 l 192 989 l 192 53 l 718 53 l 718 0 l 135 0 l 135 989 m 507 543 l 507 447 l 410 447 l 410 543 l 507 543 z "},"Ḷ":{"ha":739,"x_min":135,"x_max":718,"o":"m 135 989 l 192 989 l 192 53 l 718 53 l 718 0 l 135 0 l 135 989 m 475 -153 l 475 -243 l 382 -243 l 382 -153 l 475 -153 z "},"ǈ":{"ha":1042,"x_min":135,"x_max":936,"o":"m 135 989 l 192 989 l 192 53 l 718 53 l 718 0 l 135 0 l 135 989 m 671 -235 q 739 -247 707 -247 q 828 -214 796 -247 q 861 -93 861 -181 l 861 694 l 918 694 l 918 -111 q 872 -256 918 -208 q 746 -303 825 -303 q 671 -293 717 -303 l 671 -235 m 936 972 l 936 883 l 846 883 l 846 972 l 936 972 z "},"Ḻ":{"ha":739,"x_min":135,"x_max":718,"o":"m 135 989 l 192 989 l 192 53 l 718 53 l 718 0 l 135 0 l 135 989 m 224 -167 l 633 -167 l 633 -228 l 224 -228 l 224 -167 z "},"Ł":{"ha":744,"x_min":11,"x_max":724,"o":"m 724 53 l 724 0 l 140 0 l 140 454 l 11 379 l 11 442 l 140 517 l 140 989 l 199 989 l 199 550 l 464 703 l 464 640 l 199 488 l 199 53 l 724 53 z "},"M":{"ha":1178,"x_min":135,"x_max":1043,"o":"m 1043 989 l 1043 0 l 986 0 l 988 847 l 614 0 l 567 0 l 190 840 l 192 0 l 135 0 l 135 989 l 185 989 l 590 68 l 993 989 l 1043 989 z "},"Ṃ":{"ha":1178,"x_min":135,"x_max":1043,"o":"m 1043 989 l 1043 0 l 986 0 l 988 847 l 614 0 l 567 0 l 190 840 l 192 0 l 135 0 l 135 989 l 185 989 l 590 68 l 993 989 l 1043 989 m 635 -153 l 635 -243 l 542 -243 l 542 -153 l 635 -153 z "},"N":{"ha":1026,"x_min":135,"x_max":892,"o":"m 892 989 l 892 0 l 844 0 l 189 890 l 189 0 l 135 0 l 135 989 l 183 989 l 838 101 l 838 989 l 892 989 z "},"Ǌ":{"ha":1443,"x_min":135,"x_max":1308,"o":"m 892 989 l 892 0 l 844 0 l 189 890 l 189 0 l 135 0 l 135 989 l 183 989 l 838 101 l 838 989 l 892 989 m 1015 -190 q 1115 -203 1074 -203 q 1220 -158 1189 -203 q 1251 -7 1251 -112 l 1251 989 l 1308 989 l 1308 -10 q 1264 -201 1308 -143 q 1119 -258 1219 -258 q 1015 -247 1078 -258 l 1015 -190 z "},"Ń":{"ha":1026,"x_min":135,"x_max":892,"o":"m 892 989 l 892 0 l 844 0 l 189 890 l 189 0 l 135 0 l 135 989 l 183 989 l 838 101 l 838 989 l 892 989 m 488 1074 l 628 1282 l 713 1282 l 539 1074 l 488 1074 z "},"Ň":{"ha":1026,"x_min":135,"x_max":892,"o":"m 892 989 l 892 0 l 844 0 l 189 890 l 189 0 l 135 0 l 135 989 l 183 989 l 838 101 l 838 989 l 892 989 m 696 1282 l 539 1074 l 488 1074 l 331 1282 l 403 1282 l 514 1124 l 624 1282 l 696 1282 z "},"Ņ":{"ha":1026,"x_min":135,"x_max":892,"o":"m 892 989 l 892 0 l 844 0 l 189 890 l 189 0 l 135 0 l 135 989 l 183 989 l 838 101 l 838 989 l 892 989 m 563 -107 l 563 -182 q 548 -274 563 -233 q 497 -351 533 -315 l 460 -321 q 498 -261 488 -289 q 510 -197 508 -233 l 464 -197 l 464 -107 l 563 -107 z "},"Ṅ":{"ha":1026,"x_min":135,"x_max":892,"o":"m 892 989 l 892 0 l 844 0 l 189 890 l 189 0 l 135 0 l 135 989 l 183 989 l 838 101 l 838 989 l 892 989 m 558 1224 l 558 1135 l 468 1135 l 468 1224 l 558 1224 z "},"Ṇ":{"ha":1026,"x_min":135,"x_max":892,"o":"m 892 989 l 892 0 l 844 0 l 189 890 l 189 0 l 135 0 l 135 989 l 183 989 l 838 101 l 838 989 l 892 989 m 560 -153 l 560 -243 l 467 -243 l 467 -153 l 560 -153 z "},"Ŋ":{"ha":1026,"x_min":135,"x_max":892,"o":"m 892 989 l 892 -19 q 839 -185 892 -124 q 672 -256 786 -247 l 600 -261 l 596 -206 l 667 -201 q 838 -24 838 -186 l 838 10 l 189 890 l 189 0 l 135 0 l 135 989 l 183 989 l 838 101 l 838 989 l 892 989 z "},"ǋ":{"ha":1329,"x_min":135,"x_max":1224,"o":"m 892 989 l 892 0 l 844 0 l 189 890 l 189 0 l 135 0 l 135 989 l 183 989 l 838 101 l 838 989 l 892 989 m 958 -235 q 1026 -247 994 -247 q 1116 -214 1083 -247 q 1149 -93 1149 -181 l 1149 694 l 1206 694 l 1206 -111 q 1159 -256 1206 -208 q 1033 -303 1113 -303 q 958 -293 1004 -303 l 958 -235 m 1224 972 l 1224 883 l 1133 883 l 1133 972 l 1224 972 z "},"Ṉ":{"ha":1026,"x_min":135,"x_max":892,"o":"m 892 989 l 892 0 l 844 0 l 189 890 l 189 0 l 135 0 l 135 989 l 183 989 l 838 101 l 838 989 l 892 989 m 308 -167 l 718 -167 l 718 -228 l 308 -228 l 308 -167 z "},"Ñ":{"ha":1026,"x_min":135,"x_max":892,"o":"m 892 989 l 892 0 l 844 0 l 189 890 l 189 0 l 135 0 l 135 989 l 183 989 l 838 101 l 838 989 l 892 989 m 297 1114 q 326 1213 297 1176 q 408 1250 356 1250 q 465 1238 439 1250 q 531 1201 490 1226 q 577 1174 558 1183 q 613 1165 596 1165 q 665 1190 647 1165 q 682 1246 683 1214 l 729 1246 q 700 1147 729 1185 q 618 1110 671 1110 q 560 1122 588 1110 q 496 1158 532 1135 q 447 1185 465 1176 q 414 1193 429 1193 q 361 1169 379 1193 q 344 1114 343 1146 l 297 1114 z "},"O":{"ha":1054,"x_min":94,"x_max":960,"o":"m 526 -11 q 297 50 394 -11 q 147 225 199 111 q 94 494 94 339 q 147 764 94 650 q 296 939 199 878 q 526 1000 393 1000 q 758 939 660 1000 q 908 765 856 878 q 960 496 960 651 q 908 226 960 340 q 758 50 856 111 q 526 -11 660 -11 m 526 46 q 799 164 701 46 q 896 496 896 282 q 799 826 896 710 q 526 943 703 943 q 253 826 350 943 q 157 496 157 708 q 254 165 157 283 q 526 46 351 46 z "},"Ó":{"ha":1054,"x_min":94,"x_max":960,"o":"m 526 -11 q 297 50 394 -11 q 147 225 199 111 q 94 494 94 339 q 147 764 94 650 q 296 939 199 878 q 526 1000 393 1000 q 758 939 660 1000 q 908 765 856 878 q 960 496 960 651 q 908 226 960 340 q 758 50 856 111 q 526 -11 660 -11 m 526 46 q 799 164 701 46 q 896 496 896 282 q 799 826 896 710 q 526 943 703 943 q 253 826 350 943 q 157 496 157 708 q 254 165 157 283 q 526 46 351 46 m 500 1074 l 640 1282 l 725 1282 l 551 1074 l 500 1074 z "},"Ŏ":{"ha":1054,"x_min":94,"x_max":960,"o":"m 526 -11 q 297 50 394 -11 q 147 225 199 111 q 94 494 94 339 q 147 764 94 650 q 296 939 199 878 q 526 1000 393 1000 q 758 939 660 1000 q 908 765 856 878 q 960 496 960 651 q 908 226 960 340 q 758 50 856 111 q 526 -11 660 -11 m 526 46 q 799 164 701 46 q 896 496 896 282 q 799 826 896 710 q 526 943 703 943 q 253 826 350 943 q 157 496 157 708 q 254 165 157 283 q 526 46 351 46 m 526 1092 q 397 1126 454 1092 q 310 1239 340 1160 l 365 1264 q 438 1173 401 1197 q 526 1149 475 1149 q 613 1173 576 1149 q 686 1264 650 1197 l 742 1239 q 526 1092 682 1092 z "},"Ô":{"ha":1054,"x_min":94,"x_max":960,"o":"m 526 -11 q 297 50 394 -11 q 147 225 199 111 q 94 494 94 339 q 147 764 94 650 q 296 939 199 878 q 526 1000 393 1000 q 758 939 660 1000 q 908 765 856 878 q 960 496 960 651 q 908 226 960 340 q 758 50 856 111 q 526 -11 660 -11 m 526 46 q 799 164 701 46 q 896 496 896 282 q 799 826 896 710 q 526 943 703 943 q 253 826 350 943 q 157 496 157 708 q 254 165 157 283 q 526 46 351 46 m 343 1074 l 500 1282 l 551 1282 l 708 1074 l 636 1074 l 526 1232 l 415 1074 l 343 1074 z "},"Ố":{"ha":1054,"x_min":94,"x_max":960,"o":"m 526 -11 q 297 50 394 -11 q 147 225 199 111 q 94 494 94 339 q 147 764 94 650 q 296 939 199 878 q 526 1000 393 1000 q 758 939 660 1000 q 908 765 856 878 q 960 496 960 651 q 908 226 960 340 q 758 50 856 111 q 526 -11 660 -11 m 526 46 q 799 164 701 46 q 896 496 896 282 q 799 826 896 710 q 526 943 703 943 q 253 826 350 943 q 157 496 157 708 q 254 165 157 283 q 526 46 351 46 m 636 1214 l 781 1413 l 868 1413 l 688 1214 l 636 1214 m 343 1074 l 500 1285 l 551 1285 l 708 1074 l 636 1074 l 526 1235 l 415 1074 l 343 1074 z "},"Ộ":{"ha":1054,"x_min":94,"x_max":960,"o":"m 526 -11 q 297 50 394 -11 q 147 225 199 111 q 94 494 94 339 q 147 764 94 650 q 296 939 199 878 q 526 1000 393 1000 q 758 939 660 1000 q 908 765 856 878 q 960 496 960 651 q 908 226 960 340 q 758 50 856 111 q 526 -11 660 -11 m 526 46 q 799 164 701 46 q 896 496 896 282 q 799 826 896 710 q 526 943 703 943 q 253 826 350 943 q 157 496 157 708 q 254 165 157 283 q 526 46 351 46 m 572 -153 l 572 -243 l 479 -243 l 479 -153 l 572 -153 m 343 1074 l 500 1282 l 551 1282 l 708 1074 l 636 1074 l 526 1232 l 415 1074 l 343 1074 z "},"Ồ":{"ha":1054,"x_min":94,"x_max":960,"o":"m 526 -11 q 297 50 394 -11 q 147 225 199 111 q 94 494 94 339 q 147 764 94 650 q 296 939 199 878 q 526 1000 393 1000 q 758 939 660 1000 q 908 765 856 878 q 960 496 960 651 q 908 226 960 340 q 758 50 856 111 q 526 -11 660 -11 m 526 46 q 799 164 701 46 q 896 496 896 282 q 799 826 896 710 q 526 943 703 943 q 253 826 350 943 q 157 496 157 708 q 254 165 157 283 q 526 46 351 46 m 549 1413 l 635 1413 l 747 1214 l 697 1214 l 549 1413 m 343 1074 l 500 1285 l 551 1285 l 708 1074 l 636 1074 l 526 1235 l 415 1074 l 343 1074 z "},"Ổ":{"ha":1054,"x_min":94,"x_max":960,"o":"m 526 -11 q 297 50 394 -11 q 147 225 199 111 q 94 494 94 339 q 147 764 94 650 q 296 939 199 878 q 526 1000 393 1000 q 758 939 660 1000 q 908 765 856 878 q 960 496 960 651 q 908 226 960 340 q 758 50 856 111 q 526 -11 660 -11 m 526 46 q 799 164 701 46 q 896 496 896 282 q 799 826 896 710 q 526 943 703 943 q 253 826 350 943 q 157 496 157 708 q 254 165 157 283 q 526 46 351 46 m 694 1214 l 635 1214 l 635 1236 q 649 1272 635 1260 q 692 1297 663 1283 q 722 1312 711 1304 q 732 1331 732 1319 q 668 1361 732 1361 q 581 1344 625 1361 l 564 1396 q 667 1419 613 1419 q 765 1395 729 1419 q 800 1329 800 1371 q 785 1293 800 1306 q 739 1265 769 1281 q 706 1247 717 1256 q 694 1226 694 1239 l 694 1214 m 343 1074 l 500 1285 l 551 1285 l 708 1074 l 636 1074 l 526 1235 l 415 1074 l 343 1074 z "},"Ỗ":{"ha":1054,"x_min":94,"x_max":960,"o":"m 526 -11 q 297 50 394 -11 q 147 225 199 111 q 94 494 94 339 q 147 764 94 650 q 296 939 199 878 q 526 1000 393 1000 q 758 939 660 1000 q 908 765 856 878 q 960 496 960 651 q 908 226 960 340 q 758 50 856 111 q 526 -11 660 -11 m 526 46 q 799 164 701 46 q 896 496 896 282 q 799 826 896 710 q 526 943 703 943 q 253 826 350 943 q 157 496 157 708 q 254 165 157 283 q 526 46 351 46 m 310 1304 q 340 1401 310 1364 q 421 1438 369 1438 q 478 1428 451 1438 q 543 1399 504 1418 q 592 1376 574 1383 q 625 1369 610 1369 q 677 1392 658 1369 q 694 1443 696 1415 l 742 1443 q 712 1347 742 1383 q 631 1310 682 1310 q 574 1319 600 1310 q 508 1349 547 1329 q 460 1371 479 1364 q 426 1378 442 1378 q 374 1355 393 1378 q 357 1304 356 1332 l 310 1304 m 343 1074 l 500 1285 l 551 1285 l 708 1074 l 636 1074 l 526 1235 l 415 1074 l 343 1074 z "},"Ȍ":{"ha":1054,"x_min":94,"x_max":960,"o":"m 526 -11 q 297 50 394 -11 q 147 225 199 111 q 94 494 94 339 q 147 764 94 650 q 296 939 199 878 q 526 1000 393 1000 q 758 939 660 1000 q 908 765 856 878 q 960 496 960 651 q 908 226 960 340 q 758 50 856 111 q 526 -11 660 -11 m 526 46 q 799 164 701 46 q 896 496 896 282 q 799 826 896 710 q 526 943 703 943 q 253 826 350 943 q 157 496 157 708 q 254 165 157 283 q 526 46 351 46 m 296 1282 l 369 1282 l 468 1074 l 431 1074 l 296 1282 m 447 1282 l 524 1282 l 621 1074 l 583 1074 l 447 1282 z "},"Ö":{"ha":1054,"x_min":94,"x_max":960,"o":"m 526 -11 q 297 50 394 -11 q 147 225 199 111 q 94 494 94 339 q 147 764 94 650 q 296 939 199 878 q 526 1000 393 1000 q 758 939 660 1000 q 908 765 856 878 q 960 496 960 651 q 908 226 960 340 q 758 50 856 111 q 526 -11 660 -11 m 526 46 q 799 164 701 46 q 896 496 896 282 q 799 826 896 710 q 526 943 703 943 q 253 826 350 943 q 157 496 157 708 q 254 165 157 283 q 526 46 351 46 m 456 1222 l 456 1138 l 369 1138 l 369 1222 l 456 1222 m 682 1222 l 682 1138 l 596 1138 l 596 1222 l 682 1222 z "},"Ȫ":{"ha":1054,"x_min":94,"x_max":960,"o":"m 526 -11 q 297 50 394 -11 q 147 225 199 111 q 94 494 94 339 q 147 764 94 650 q 296 939 199 878 q 526 1000 393 1000 q 758 939 660 1000 q 908 765 856 878 q 960 496 960 651 q 908 226 960 340 q 758 50 856 111 q 526 -11 660 -11 m 526 46 q 799 164 701 46 q 896 496 896 282 q 799 826 896 710 q 526 943 703 943 q 253 826 350 943 q 157 496 157 708 q 254 165 157 283 q 526 46 351 46 m 456 1222 l 456 1138 l 369 1138 l 369 1222 l 456 1222 m 682 1222 l 682 1138 l 596 1138 l 596 1222 l 682 1222 m 321 1435 l 731 1435 l 731 1375 l 321 1375 l 321 1435 z "},"Ȱ":{"ha":1054,"x_min":94,"x_max":960,"o":"m 526 -11 q 297 50 394 -11 q 147 225 199 111 q 94 494 94 339 q 147 764 94 650 q 296 939 199 878 q 526 1000 393 1000 q 758 939 660 1000 q 908 765 856 878 q 960 496 960 651 q 908 226 960 340 q 758 50 856 111 q 526 -11 660 -11 m 526 46 q 799 164 701 46 q 896 496 896 282 q 799 826 896 710 q 526 943 703 943 q 253 826 350 943 q 157 496 157 708 q 254 165 157 283 q 526 46 351 46 m 571 1224 l 571 1135 l 481 1135 l 481 1224 l 571 1224 m 321 1435 l 731 1435 l 731 1375 l 321 1375 l 321 1435 z "},"Ọ":{"ha":1054,"x_min":94,"x_max":960,"o":"m 526 -11 q 297 50 394 -11 q 147 225 199 111 q 94 494 94 339 q 147 764 94 650 q 296 939 199 878 q 526 1000 393 1000 q 758 939 660 1000 q 908 765 856 878 q 960 496 960 651 q 908 226 960 340 q 758 50 856 111 q 526 -11 660 -11 m 526 46 q 799 164 701 46 q 896 496 896 282 q 799 826 896 710 q 526 943 703 943 q 253 826 350 943 q 157 496 157 708 q 254 165 157 283 q 526 46 351 46 m 572 -153 l 572 -243 l 479 -243 l 479 -153 l 572 -153 z "},"Ò":{"ha":1054,"x_min":94,"x_max":960,"o":"m 526 -11 q 297 50 394 -11 q 147 225 199 111 q 94 494 94 339 q 147 764 94 650 q 296 939 199 878 q 526 1000 393 1000 q 758 939 660 1000 q 908 765 856 878 q 960 496 960 651 q 908 226 960 340 q 758 50 856 111 q 526 -11 660 -11 m 526 46 q 799 164 701 46 q 896 496 896 282 q 799 826 896 710 q 526 943 703 943 q 253 826 350 943 q 157 496 157 708 q 254 165 157 283 q 526 46 351 46 m 326 1282 l 411 1282 l 551 1074 l 500 1074 l 326 1282 z "},"Ỏ":{"ha":1054,"x_min":94,"x_max":960,"o":"m 526 -11 q 297 50 394 -11 q 147 225 199 111 q 94 494 94 339 q 147 764 94 650 q 296 939 199 878 q 526 1000 393 1000 q 758 939 660 1000 q 908 765 856 878 q 960 496 960 651 q 908 226 960 340 q 758 50 856 111 q 526 -11 660 -11 m 526 46 q 799 164 701 46 q 896 496 896 282 q 799 826 896 710 q 526 943 703 943 q 253 826 350 943 q 157 496 157 708 q 254 165 157 283 q 526 46 351 46 m 556 1074 l 497 1074 l 497 1094 q 512 1133 497 1119 q 554 1164 526 1147 q 583 1183 574 1174 q 593 1203 593 1192 q 576 1224 593 1217 q 531 1231 560 1231 q 442 1214 486 1231 l 425 1267 q 529 1289 475 1289 q 626 1265 592 1289 q 660 1200 660 1242 q 644 1158 660 1172 q 597 1126 628 1143 q 566 1108 576 1117 q 556 1086 556 1099 l 556 1074 z "},"Ơ":{"ha":1054,"x_min":94,"x_max":960,"o":"m 960 1139 q 907 993 960 1046 q 758 936 854 940 q 908 763 857 875 q 960 496 960 650 q 907 226 960 340 q 756 50 854 111 q 526 -11 658 -11 q 297 50 394 -11 q 147 225 200 111 q 94 494 94 339 q 147 764 94 650 q 297 939 199 878 q 532 1000 396 1000 q 642 994 569 1000 q 732 989 708 989 q 864 1026 825 990 q 903 1149 903 1063 l 903 1167 l 960 1167 l 960 1139 m 896 496 q 799 826 896 710 q 526 943 703 943 q 253 826 350 943 q 157 496 157 708 q 254 165 157 283 q 526 46 351 46 q 799 164 701 46 q 896 496 896 282 z "},"Ớ":{"ha":1054,"x_min":94,"x_max":960,"o":"m 960 1139 q 907 993 960 1046 q 758 936 854 940 q 908 763 857 875 q 960 496 960 650 q 907 226 960 340 q 756 50 854 111 q 526 -11 658 -11 q 297 50 394 -11 q 147 225 200 111 q 94 494 94 339 q 147 764 94 650 q 297 939 199 878 q 532 1000 396 1000 q 642 994 569 1000 q 732 989 708 989 q 864 1026 825 990 q 903 1149 903 1063 l 903 1167 l 960 1167 l 960 1139 m 896 496 q 799 826 896 710 q 526 943 703 943 q 253 826 350 943 q 157 496 157 708 q 254 165 157 283 q 526 46 351 46 q 799 164 701 46 q 896 496 896 282 m 500 1074 l 640 1282 l 725 1282 l 551 1074 l 500 1074 z "},"Ợ":{"ha":1054,"x_min":94,"x_max":960,"o":"m 960 1139 q 907 993 960 1046 q 758 936 854 940 q 908 763 857 875 q 960 496 960 650 q 907 226 960 340 q 756 50 854 111 q 526 -11 658 -11 q 297 50 394 -11 q 147 225 200 111 q 94 494 94 339 q 147 764 94 650 q 297 939 199 878 q 532 1000 396 1000 q 642 994 569 1000 q 732 989 708 989 q 864 1026 825 990 q 903 1149 903 1063 l 903 1167 l 960 1167 l 960 1139 m 896 496 q 799 826 896 710 q 526 943 703 943 q 253 826 350 943 q 157 496 157 708 q 254 165 157 283 q 526 46 351 46 q 799 164 701 46 q 896 496 896 282 m 574 -153 l 574 -243 l 481 -243 l 481 -153 l 574 -153 z "},"Ờ":{"ha":1054,"x_min":94,"x_max":960,"o":"m 960 1139 q 907 993 960 1046 q 758 936 854 940 q 908 763 857 875 q 960 496 960 650 q 907 226 960 340 q 756 50 854 111 q 526 -11 658 -11 q 297 50 394 -11 q 147 225 200 111 q 94 494 94 339 q 147 764 94 650 q 297 939 199 878 q 532 1000 396 1000 q 642 994 569 1000 q 732 989 708 989 q 864 1026 825 990 q 903 1149 903 1063 l 903 1167 l 960 1167 l 960 1139 m 896 496 q 799 826 896 710 q 526 943 703 943 q 253 826 350 943 q 157 496 157 708 q 254 165 157 283 q 526 46 351 46 q 799 164 701 46 q 896 496 896 282 m 326 1282 l 411 1282 l 551 1074 l 500 1074 l 326 1282 z "},"Ở":{"ha":1054,"x_min":94,"x_max":960,"o":"m 960 1139 q 907 993 960 1046 q 758 936 854 940 q 908 763 857 875 q 960 496 960 650 q 907 226 960 340 q 756 50 854 111 q 526 -11 658 -11 q 297 50 394 -11 q 147 225 200 111 q 94 494 94 339 q 147 764 94 650 q 297 939 199 878 q 532 1000 396 1000 q 642 994 569 1000 q 732 989 708 989 q 864 1026 825 990 q 903 1149 903 1063 l 903 1167 l 960 1167 l 960 1139 m 896 496 q 799 826 896 710 q 526 943 703 943 q 253 826 350 943 q 157 496 157 708 q 254 165 157 283 q 526 46 351 46 q 799 164 701 46 q 896 496 896 282 m 556 1074 l 497 1074 l 497 1094 q 512 1133 497 1119 q 554 1164 526 1147 q 583 1183 574 1174 q 593 1203 593 1192 q 576 1224 593 1217 q 531 1231 560 1231 q 442 1214 486 1231 l 425 1267 q 529 1289 475 1289 q 626 1265 592 1289 q 660 1200 660 1242 q 644 1158 660 1172 q 597 1126 628 1143 q 566 1108 576 1117 q 556 1086 556 1099 l 556 1074 z "},"Ỡ":{"ha":1054,"x_min":94,"x_max":960,"o":"m 960 1139 q 907 993 960 1046 q 758 936 854 940 q 908 763 857 875 q 960 496 960 650 q 907 226 960 340 q 756 50 854 111 q 526 -11 658 -11 q 297 50 394 -11 q 147 225 200 111 q 94 494 94 339 q 147 764 94 650 q 297 939 199 878 q 532 1000 396 1000 q 642 994 569 1000 q 732 989 708 989 q 864 1026 825 990 q 903 1149 903 1063 l 903 1167 l 960 1167 l 960 1139 m 896 496 q 799 826 896 710 q 526 943 703 943 q 253 826 350 943 q 157 496 157 708 q 254 165 157 283 q 526 46 351 46 q 799 164 701 46 q 896 496 896 282 m 310 1114 q 339 1213 310 1176 q 421 1250 368 1250 q 477 1238 451 1250 q 543 1201 503 1226 q 590 1174 571 1183 q 625 1165 608 1165 q 678 1190 660 1165 q 694 1246 696 1214 l 742 1246 q 713 1147 742 1185 q 631 1110 683 1110 q 572 1122 600 1110 q 508 1158 544 1135 q 460 1185 478 1176 q 426 1193 442 1193 q 374 1169 392 1193 q 357 1114 356 1146 l 310 1114 z "},"Ő":{"ha":1054,"x_min":94,"x_max":960,"o":"m 526 -11 q 297 50 394 -11 q 147 225 199 111 q 94 494 94 339 q 147 764 94 650 q 296 939 199 878 q 526 1000 393 1000 q 758 939 660 1000 q 908 765 856 878 q 960 496 960 651 q 908 226 960 340 q 758 50 856 111 q 526 -11 660 -11 m 526 46 q 799 164 701 46 q 896 496 896 282 q 799 826 896 710 q 526 943 703 943 q 253 826 350 943 q 157 496 157 708 q 254 165 157 283 q 526 46 351 46 m 528 1282 l 604 1282 l 468 1074 l 431 1074 l 528 1282 m 682 1282 l 756 1282 l 621 1074 l 583 1074 l 682 1282 z "},"Ȏ":{"ha":1054,"x_min":94,"x_max":960,"o":"m 526 -11 q 297 50 394 -11 q 147 225 199 111 q 94 494 94 339 q 147 764 94 650 q 296 939 199 878 q 526 1000 393 1000 q 758 939 660 1000 q 908 765 856 878 q 960 496 960 651 q 908 226 960 340 q 758 50 856 111 q 526 -11 660 -11 m 526 46 q 799 164 701 46 q 896 496 896 282 q 799 826 896 710 q 526 943 703 943 q 253 826 350 943 q 157 496 157 708 q 254 165 157 283 q 526 46 351 46 m 526 1265 q 654 1231 597 1265 q 742 1118 711 1197 l 686 1094 q 613 1184 650 1160 q 526 1208 576 1208 q 438 1184 475 1208 q 365 1094 401 1160 l 310 1118 q 526 1265 369 1265 z "},"Ō":{"ha":1054,"x_min":94,"x_max":960,"o":"m 526 -11 q 297 50 394 -11 q 147 225 199 111 q 94 494 94 339 q 147 764 94 650 q 296 939 199 878 q 526 1000 393 1000 q 758 939 660 1000 q 908 765 856 878 q 960 496 960 651 q 908 226 960 340 q 758 50 856 111 q 526 -11 660 -11 m 526 46 q 799 164 701 46 q 896 496 896 282 q 799 826 896 710 q 526 943 703 943 q 253 826 350 943 q 157 496 157 708 q 254 165 157 283 q 526 46 351 46 m 321 1210 l 731 1210 l 731 1150 l 321 1150 l 321 1210 z "},"Ṓ":{"ha":1054,"x_min":94,"x_max":960,"o":"m 526 -11 q 297 50 394 -11 q 147 225 199 111 q 94 494 94 339 q 147 764 94 650 q 296 939 199 878 q 526 1000 393 1000 q 758 939 660 1000 q 908 765 856 878 q 960 496 960 651 q 908 226 960 340 q 758 50 856 111 q 526 -11 660 -11 m 526 46 q 799 164 701 46 q 896 496 896 282 q 799 826 896 710 q 526 943 703 943 q 253 826 350 943 q 157 496 157 708 q 254 165 157 283 q 526 46 351 46 m 321 1210 l 731 1210 l 731 1150 l 321 1150 l 321 1210 m 500 1299 l 640 1507 l 725 1507 l 551 1299 l 500 1299 z "},"Ṑ":{"ha":1054,"x_min":94,"x_max":960,"o":"m 526 -11 q 297 50 394 -11 q 147 225 199 111 q 94 494 94 339 q 147 764 94 650 q 296 939 199 878 q 526 1000 393 1000 q 758 939 660 1000 q 908 765 856 878 q 960 496 960 651 q 908 226 960 340 q 758 50 856 111 q 526 -11 660 -11 m 526 46 q 799 164 701 46 q 896 496 896 282 q 799 826 896 710 q 526 943 703 943 q 253 826 350 943 q 157 496 157 708 q 254 165 157 283 q 526 46 351 46 m 321 1210 l 731 1210 l 731 1150 l 321 1150 l 321 1210 m 326 1507 l 411 1507 l 551 1299 l 500 1299 l 326 1507 z "},"Ǫ":{"ha":1054,"x_min":94,"x_max":960,"o":"m 647 4 q 539 -118 539 -25 q 565 -187 539 -162 q 636 -212 590 -212 q 718 -186 668 -212 l 740 -235 q 633 -267 697 -267 q 519 -227 564 -267 q 475 -124 475 -187 q 522 -11 475 -61 q 296 51 393 -11 q 147 226 199 113 q 94 494 94 340 q 147 764 94 650 q 296 939 199 878 q 526 1000 393 1000 q 758 939 660 1000 q 908 765 856 878 q 960 496 960 651 q 878 172 960 300 q 647 4 797 44 m 157 496 q 254 165 157 283 q 526 46 351 46 q 799 164 701 46 q 896 496 896 282 q 799 826 896 710 q 526 943 703 943 q 253 826 350 943 q 157 496 157 708 z "},"Ø":{"ha":1054,"x_min":94,"x_max":960,"o":"m 800 910 q 919 739 878 844 q 960 496 960 633 q 908 226 960 340 q 758 50 856 111 q 526 -11 660 -11 q 297 50 394 -11 l 240 -49 l 193 -24 l 254 81 q 136 251 178 146 q 94 494 94 357 q 147 764 94 650 q 296 939 199 878 q 526 1000 393 1000 q 757 940 658 1000 l 814 1038 l 860 1013 l 800 910 m 157 496 q 190 281 157 374 q 285 132 222 189 l 728 890 q 526 943 643 943 q 253 826 350 943 q 157 496 157 708 m 526 46 q 799 164 701 46 q 896 496 896 282 q 864 710 896 618 q 769 858 832 801 l 326 100 q 526 46 410 46 z "},"Ǿ":{"ha":1054,"x_min":94,"x_max":960,"o":"m 800 910 q 919 739 878 844 q 960 496 960 633 q 908 226 960 340 q 758 50 856 111 q 526 -11 660 -11 q 297 50 394 -11 l 240 -49 l 193 -24 l 254 81 q 136 251 178 146 q 94 494 94 357 q 147 764 94 650 q 296 939 199 878 q 526 1000 393 1000 q 757 940 658 1000 l 814 1038 l 860 1013 l 800 910 m 157 496 q 190 281 157 374 q 285 132 222 189 l 728 890 q 526 943 643 943 q 253 826 350 943 q 157 496 157 708 m 526 46 q 799 164 701 46 q 896 496 896 282 q 864 710 896 618 q 769 858 832 801 l 326 100 q 526 46 410 46 m 500 1074 l 640 1282 l 725 1282 l 551 1074 l 500 1074 z "},"Õ":{"ha":1054,"x_min":94,"x_max":960,"o":"m 526 -11 q 297 50 394 -11 q 147 225 199 111 q 94 494 94 339 q 147 764 94 650 q 296 939 199 878 q 526 1000 393 1000 q 758 939 660 1000 q 908 765 856 878 q 960 496 960 651 q 908 226 960 340 q 758 50 856 111 q 526 -11 660 -11 m 526 46 q 799 164 701 46 q 896 496 896 282 q 799 826 896 710 q 526 943 703 943 q 253 826 350 943 q 157 496 157 708 q 254 165 157 283 q 526 46 351 46 m 310 1114 q 339 1213 310 1176 q 421 1250 368 1250 q 477 1238 451 1250 q 543 1201 503 1226 q 590 1174 571 1183 q 625 1165 608 1165 q 678 1190 660 1165 q 694 1246 696 1214 l 742 1246 q 713 1147 742 1185 q 631 1110 683 1110 q 572 1122 600 1110 q 508 1158 544 1135 q 460 1185 478 1176 q 426 1193 442 1193 q 374 1169 392 1193 q 357 1114 356 1146 l 310 1114 z "},"Ṍ":{"ha":1054,"x_min":94,"x_max":960,"o":"m 526 -11 q 297 50 394 -11 q 147 225 199 111 q 94 494 94 339 q 147 764 94 650 q 296 939 199 878 q 526 1000 393 1000 q 758 939 660 1000 q 908 765 856 878 q 960 496 960 651 q 908 226 960 340 q 758 50 856 111 q 526 -11 660 -11 m 526 46 q 799 164 701 46 q 896 496 896 282 q 799 826 896 710 q 526 943 703 943 q 253 826 350 943 q 157 496 157 708 q 254 165 157 283 q 526 46 351 46 m 310 1114 q 339 1213 310 1176 q 421 1250 368 1250 q 477 1238 451 1250 q 543 1201 503 1226 q 590 1174 571 1183 q 625 1165 608 1165 q 678 1190 660 1165 q 694 1246 696 1214 l 742 1246 q 713 1147 742 1185 q 631 1110 683 1110 q 572 1122 600 1110 q 508 1158 544 1135 q 460 1185 478 1176 q 426 1193 442 1193 q 374 1169 392 1193 q 357 1114 356 1146 l 310 1114 m 500 1299 l 640 1507 l 725 1507 l 551 1299 l 500 1299 z "},"Ṏ":{"ha":1054,"x_min":94,"x_max":960,"o":"m 526 -11 q 297 50 394 -11 q 147 225 199 111 q 94 494 94 339 q 147 764 94 650 q 296 939 199 878 q 526 1000 393 1000 q 758 939 660 1000 q 908 765 856 878 q 960 496 960 651 q 908 226 960 340 q 758 50 856 111 q 526 -11 660 -11 m 526 46 q 799 164 701 46 q 896 496 896 282 q 799 826 896 710 q 526 943 703 943 q 253 826 350 943 q 157 496 157 708 q 254 165 157 283 q 526 46 351 46 m 310 1114 q 339 1213 310 1176 q 421 1250 368 1250 q 477 1238 451 1250 q 543 1201 503 1226 q 590 1174 571 1183 q 625 1165 608 1165 q 678 1190 660 1165 q 694 1246 696 1214 l 742 1246 q 713 1147 742 1185 q 631 1110 683 1110 q 572 1122 600 1110 q 508 1158 544 1135 q 460 1185 478 1176 q 426 1193 442 1193 q 374 1169 392 1193 q 357 1114 356 1146 l 310 1114 m 456 1447 l 456 1363 l 369 1363 l 369 1447 l 456 1447 m 682 1447 l 682 1363 l 596 1363 l 596 1447 l 682 1447 z "},"Ȭ":{"ha":1054,"x_min":94,"x_max":960,"o":"m 526 -11 q 297 50 394 -11 q 147 225 199 111 q 94 494 94 339 q 147 764 94 650 q 296 939 199 878 q 526 1000 393 1000 q 758 939 660 1000 q 908 765 856 878 q 960 496 960 651 q 908 226 960 340 q 758 50 856 111 q 526 -11 660 -11 m 526 46 q 799 164 701 46 q 896 496 896 282 q 799 826 896 710 q 526 943 703 943 q 253 826 350 943 q 157 496 157 708 q 254 165 157 283 q 526 46 351 46 m 310 1114 q 339 1213 310 1176 q 421 1250 368 1250 q 477 1238 451 1250 q 543 1201 503 1226 q 590 1174 571 1183 q 625 1165 608 1165 q 678 1190 660 1165 q 694 1246 696 1214 l 742 1246 q 713 1147 742 1185 q 631 1110 683 1110 q 572 1122 600 1110 q 508 1158 544 1135 q 460 1185 478 1176 q 426 1193 442 1193 q 374 1169 392 1193 q 357 1114 356 1146 l 310 1114 m 321 1435 l 731 1435 l 731 1375 l 321 1375 l 321 1435 z "},"Œ":{"ha":1468,"x_min":94,"x_max":1389,"o":"m 853 935 l 853 529 l 1361 529 l 1361 474 l 853 474 l 853 54 l 1389 54 l 1389 0 l 794 0 l 794 69 q 529 -11 685 -11 q 298 50 396 -11 q 147 225 200 111 q 94 494 94 339 q 147 765 94 651 q 297 940 199 879 q 529 1000 394 1000 q 794 921 685 1000 l 794 989 l 1389 989 l 1389 935 l 853 935 m 526 46 q 794 142 694 46 l 794 847 q 526 943 694 943 q 254 825 351 943 q 157 496 157 707 q 254 165 157 283 q 526 46 351 46 z "},"P":{"ha":886,"x_min":135,"x_max":813,"o":"m 135 989 l 500 989 q 729 918 646 989 q 813 722 813 847 q 728 525 813 597 q 500 453 644 453 l 192 453 l 192 0 l 135 0 l 135 989 m 499 510 q 685 565 621 510 q 750 722 750 621 q 685 879 750 824 q 499 935 621 935 l 192 935 l 192 510 l 499 510 z "},"Þ":{"ha":886,"x_min":135,"x_max":813,"o":"m 507 761 q 733 694 654 761 q 813 506 813 628 q 733 313 813 381 q 507 244 653 244 l 193 244 l 193 0 l 135 0 l 135 989 l 193 989 l 193 761 l 507 761 m 507 299 q 750 506 750 299 q 690 658 750 608 q 507 707 631 707 l 193 707 l 193 299 l 507 299 z "},"Q":{"ha":1054,"x_min":94,"x_max":960,"o":"m 653 6 q 833 -214 722 -119 l 793 -265 q 685 -155 742 -225 q 585 -8 629 -85 q 526 -11 546 -11 q 297 50 394 -11 q 147 225 199 111 q 94 494 94 339 q 147 764 94 650 q 296 939 199 878 q 526 1000 393 1000 q 758 939 660 1000 q 908 765 856 878 q 960 496 960 651 q 879 173 960 301 q 653 6 799 44 m 157 496 q 254 165 157 283 q 526 46 351 46 q 799 164 701 46 q 896 496 896 282 q 799 826 896 710 q 526 943 703 943 q 253 826 350 943 q 157 496 157 708 z "},"R":{"ha":950,"x_min":135,"x_max":879,"o":"m 879 0 l 819 0 l 699 329 q 628 426 672 401 q 499 450 585 450 l 192 450 l 192 0 l 135 0 l 135 989 l 503 989 q 739 920 656 989 q 822 722 822 851 q 772 563 822 626 q 628 474 721 499 q 701 437 671 467 q 751 350 732 407 l 879 0 m 504 506 q 695 561 631 506 q 760 724 760 617 q 504 935 760 935 l 193 935 l 193 506 l 504 506 z "},"Ŕ":{"ha":950,"x_min":135,"x_max":879,"o":"m 879 0 l 819 0 l 699 329 q 628 426 672 401 q 499 450 585 450 l 192 450 l 192 0 l 135 0 l 135 989 l 503 989 q 739 920 656 989 q 822 722 822 851 q 772 563 822 626 q 628 474 721 499 q 701 437 671 467 q 751 350 732 407 l 879 0 m 504 506 q 695 561 631 506 q 760 724 760 617 q 504 935 760 935 l 193 935 l 193 506 l 504 506 m 442 1074 l 582 1282 l 667 1282 l 493 1074 l 442 1074 z "},"Ř":{"ha":950,"x_min":135,"x_max":879,"o":"m 879 0 l 819 0 l 699 329 q 628 426 672 401 q 499 450 585 450 l 192 450 l 192 0 l 135 0 l 135 989 l 503 989 q 739 920 656 989 q 822 722 822 851 q 772 563 822 626 q 628 474 721 499 q 701 437 671 467 q 751 350 732 407 l 879 0 m 504 506 q 695 561 631 506 q 760 724 760 617 q 504 935 760 935 l 193 935 l 193 506 l 504 506 m 650 1282 l 493 1074 l 442 1074 l 285 1282 l 357 1282 l 468 1124 l 578 1282 l 650 1282 z "},"Ŗ":{"ha":950,"x_min":135,"x_max":879,"o":"m 879 0 l 819 0 l 699 329 q 628 426 672 401 q 499 450 585 450 l 192 450 l 192 0 l 135 0 l 135 989 l 503 989 q 739 920 656 989 q 822 722 822 851 q 772 563 822 626 q 628 474 721 499 q 701 437 671 467 q 751 350 732 407 l 879 0 m 504 506 q 695 561 631 506 q 760 724 760 617 q 504 935 760 935 l 193 935 l 193 506 l 504 506 m 517 -107 l 517 -182 q 502 -274 517 -233 q 451 -351 488 -315 l 414 -321 q 452 -261 442 -289 q 464 -197 463 -233 l 418 -197 l 418 -107 l 517 -107 z "},"Ȑ":{"ha":950,"x_min":135,"x_max":879,"o":"m 879 0 l 819 0 l 699 329 q 628 426 672 401 q 499 450 585 450 l 192 450 l 192 0 l 135 0 l 135 989 l 503 989 q 739 920 656 989 q 822 722 822 851 q 772 563 822 626 q 628 474 721 499 q 701 437 671 467 q 751 350 732 407 l 879 0 m 504 506 q 695 561 631 506 q 760 724 760 617 q 504 935 760 935 l 193 935 l 193 506 l 504 506 m 238 1282 l 311 1282 l 410 1074 l 372 1074 l 238 1282 m 389 1282 l 465 1282 l 563 1074 l 525 1074 l 389 1282 z "},"Ṛ":{"ha":950,"x_min":135,"x_max":879,"o":"m 879 0 l 819 0 l 699 329 q 628 426 672 401 q 499 450 585 450 l 192 450 l 192 0 l 135 0 l 135 989 l 503 989 q 739 920 656 989 q 822 722 822 851 q 772 563 822 626 q 628 474 721 499 q 701 437 671 467 q 751 350 732 407 l 879 0 m 504 506 q 695 561 631 506 q 760 724 760 617 q 504 935 760 935 l 193 935 l 193 506 l 504 506 m 514 -153 l 514 -243 l 421 -243 l 421 -153 l 514 -153 z "},"Ȓ":{"ha":950,"x_min":135,"x_max":879,"o":"m 879 0 l 819 0 l 699 329 q 628 426 672 401 q 499 450 585 450 l 192 450 l 192 0 l 135 0 l 135 989 l 503 989 q 739 920 656 989 q 822 722 822 851 q 772 563 822 626 q 628 474 721 499 q 701 437 671 467 q 751 350 732 407 l 879 0 m 504 506 q 695 561 631 506 q 760 724 760 617 q 504 935 760 935 l 193 935 l 193 506 l 504 506 m 468 1265 q 596 1231 539 1265 q 683 1118 653 1197 l 628 1094 q 555 1184 592 1160 q 468 1208 518 1208 q 380 1184 417 1208 q 307 1094 343 1160 l 251 1118 q 468 1265 311 1265 z "},"Ṟ":{"ha":950,"x_min":135,"x_max":879,"o":"m 879 0 l 819 0 l 699 329 q 628 426 672 401 q 499 450 585 450 l 192 450 l 192 0 l 135 0 l 135 989 l 503 989 q 739 920 656 989 q 822 722 822 851 q 772 563 822 626 q 628 474 721 499 q 701 437 671 467 q 751 350 732 407 l 879 0 m 504 506 q 695 561 631 506 q 760 724 760 617 q 504 935 760 935 l 193 935 l 193 506 l 504 506 m 263 -167 l 672 -167 l 672 -228 l 263 -228 l 263 -167 z "},"S":{"ha":839,"x_min":72,"x_max":771,"o":"m 432 -11 q 228 21 315 -11 q 72 122 142 53 l 101 171 q 250 74 175 103 q 432 46 325 46 q 637 102 564 46 q 710 260 710 158 q 674 355 710 318 q 584 410 638 392 q 442 450 531 429 q 258 501 324 478 q 140 579 192 525 q 89 726 89 633 q 131 870 89 808 q 249 966 172 932 q 431 1000 326 1000 q 763 867 636 1000 l 733 818 q 590 913 663 883 q 431 943 518 943 q 223 885 297 943 q 149 724 149 828 q 213 592 149 635 q 394 519 278 549 l 457 504 q 621 458 558 481 q 727 386 683 435 q 771 256 771 338 q 729 117 771 178 q 610 23 688 57 q 432 -11 533 -11 z "},"Ś":{"ha":839,"x_min":72,"x_max":771,"o":"m 432 -11 q 228 21 315 -11 q 72 122 142 53 l 101 171 q 250 74 175 103 q 432 46 325 46 q 637 102 564 46 q 710 260 710 158 q 674 355 710 318 q 584 410 638 392 q 442 450 531 429 q 258 501 324 478 q 140 579 192 525 q 89 726 89 633 q 131 870 89 808 q 249 966 172 932 q 431 1000 326 1000 q 763 867 636 1000 l 733 818 q 590 913 663 883 q 431 943 518 943 q 223 885 297 943 q 149 724 149 828 q 213 592 149 635 q 394 519 278 549 l 457 504 q 621 458 558 481 q 727 386 683 435 q 771 256 771 338 q 729 117 771 178 q 610 23 688 57 q 432 -11 533 -11 m 393 1074 l 533 1282 l 618 1282 l 444 1074 l 393 1074 z "},"Ṥ":{"ha":839,"x_min":72,"x_max":771,"o":"m 432 -11 q 228 21 315 -11 q 72 122 142 53 l 101 171 q 250 74 175 103 q 432 46 325 46 q 637 102 564 46 q 710 260 710 158 q 674 355 710 318 q 584 410 638 392 q 442 450 531 429 q 258 501 324 478 q 140 579 192 525 q 89 726 89 633 q 131 870 89 808 q 249 966 172 932 q 431 1000 326 1000 q 763 867 636 1000 l 733 818 q 590 913 663 883 q 431 943 518 943 q 223 885 297 943 q 149 724 149 828 q 213 592 149 635 q 394 519 278 549 l 457 504 q 621 458 558 481 q 727 386 683 435 q 771 256 771 338 q 729 117 771 178 q 610 23 688 57 q 432 -11 533 -11 m 388 1074 l 528 1282 l 613 1282 l 439 1074 l 388 1074 m 313 1282 l 313 1193 l 222 1193 l 222 1282 l 313 1282 z "},"Š":{"ha":839,"x_min":72,"x_max":771,"o":"m 432 -11 q 228 21 315 -11 q 72 122 142 53 l 101 171 q 250 74 175 103 q 432 46 325 46 q 637 102 564 46 q 710 260 710 158 q 674 355 710 318 q 584 410 638 392 q 442 450 531 429 q 258 501 324 478 q 140 579 192 525 q 89 726 89 633 q 131 870 89 808 q 249 966 172 932 q 431 1000 326 1000 q 763 867 636 1000 l 733 818 q 590 913 663 883 q 431 943 518 943 q 223 885 297 943 q 149 724 149 828 q 213 592 149 635 q 394 519 278 549 l 457 504 q 621 458 558 481 q 727 386 683 435 q 771 256 771 338 q 729 117 771 178 q 610 23 688 57 q 432 -11 533 -11 m 601 1282 l 444 1074 l 393 1074 l 236 1282 l 308 1282 l 419 1124 l 529 1282 l 601 1282 z "},"Ṧ":{"ha":839,"x_min":72,"x_max":771,"o":"m 432 -11 q 228 21 315 -11 q 72 122 142 53 l 101 171 q 250 74 175 103 q 432 46 325 46 q 637 102 564 46 q 710 260 710 158 q 674 355 710 318 q 584 410 638 392 q 442 450 531 429 q 258 501 324 478 q 140 579 192 525 q 89 726 89 633 q 131 870 89 808 q 249 966 172 932 q 431 1000 326 1000 q 763 867 636 1000 l 733 818 q 590 913 663 883 q 431 943 518 943 q 223 885 297 943 q 149 724 149 828 q 213 592 149 635 q 394 519 278 549 l 457 504 q 621 458 558 481 q 727 386 683 435 q 771 256 771 338 q 729 117 771 178 q 610 23 688 57 q 432 -11 533 -11 m 601 1282 l 444 1074 l 393 1074 l 236 1282 l 308 1282 l 419 1124 l 529 1282 l 601 1282 m 464 1449 l 464 1360 l 374 1360 l 374 1449 l 464 1449 z "},"Ş":{"ha":839,"x_min":72,"x_max":771,"o":"m 771 256 q 731 119 771 179 q 617 25 690 60 q 444 -11 543 -10 l 440 -62 q 482 -57 458 -57 q 552 -81 521 -57 q 583 -154 583 -106 q 544 -235 583 -204 q 436 -267 504 -267 q 373 -260 406 -267 q 317 -240 340 -254 l 336 -192 q 439 -211 381 -211 q 502 -196 481 -211 q 524 -154 524 -181 q 511 -122 524 -133 q 474 -111 499 -111 q 401 -126 440 -111 l 375 -107 l 385 -10 q 211 28 288 -4 q 72 122 135 60 l 101 171 q 250 74 175 103 q 432 46 325 46 q 637 102 564 46 q 710 260 710 158 q 674 355 710 318 q 584 410 638 392 q 442 450 531 429 q 258 501 324 478 q 140 579 192 525 q 89 726 89 633 q 131 870 89 808 q 249 966 172 932 q 431 1000 326 1000 q 763 867 636 1000 l 733 818 q 590 913 663 883 q 431 943 518 943 q 223 885 297 943 q 149 724 149 828 q 213 592 149 635 q 394 519 278 549 l 457 504 q 621 458 558 481 q 727 386 683 435 q 771 256 771 338 z "},"Ŝ":{"ha":839,"x_min":72,"x_max":771,"o":"m 432 -11 q 228 21 315 -11 q 72 122 142 53 l 101 171 q 250 74 175 103 q 432 46 325 46 q 637 102 564 46 q 710 260 710 158 q 674 355 710 318 q 584 410 638 392 q 442 450 531 429 q 258 501 324 478 q 140 579 192 525 q 89 726 89 633 q 131 870 89 808 q 249 966 172 932 q 431 1000 326 1000 q 763 867 636 1000 l 733 818 q 590 913 663 883 q 431 943 518 943 q 223 885 297 943 q 149 724 149 828 q 213 592 149 635 q 394 519 278 549 l 457 504 q 621 458 558 481 q 727 386 683 435 q 771 256 771 338 q 729 117 771 178 q 610 23 688 57 q 432 -11 533 -11 m 236 1074 l 393 1282 l 444 1282 l 601 1074 l 529 1074 l 419 1232 l 308 1074 l 236 1074 z "},"Ș":{"ha":839,"x_min":72,"x_max":771,"o":"m 432 -11 q 228 21 315 -11 q 72 122 142 53 l 101 171 q 250 74 175 103 q 432 46 325 46 q 637 102 564 46 q 710 260 710 158 q 674 355 710 318 q 584 410 638 392 q 442 450 531 429 q 258 501 324 478 q 140 579 192 525 q 89 726 89 633 q 131 870 89 808 q 249 966 172 932 q 431 1000 326 1000 q 763 867 636 1000 l 733 818 q 590 913 663 883 q 431 943 518 943 q 223 885 297 943 q 149 724 149 828 q 213 592 149 635 q 394 519 278 549 l 457 504 q 621 458 558 481 q 727 386 683 435 q 771 256 771 338 q 729 117 771 178 q 610 23 688 57 q 432 -11 533 -11 m 476 -107 l 476 -182 q 462 -274 476 -233 q 411 -351 447 -315 l 374 -321 q 412 -261 401 -289 q 424 -197 422 -233 l 378 -197 l 378 -107 l 476 -107 z "},"Ṡ":{"ha":839,"x_min":72,"x_max":771,"o":"m 432 -11 q 228 21 315 -11 q 72 122 142 53 l 101 171 q 250 74 175 103 q 432 46 325 46 q 637 102 564 46 q 710 260 710 158 q 674 355 710 318 q 584 410 638 392 q 442 450 531 429 q 258 501 324 478 q 140 579 192 525 q 89 726 89 633 q 131 870 89 808 q 249 966 172 932 q 431 1000 326 1000 q 763 867 636 1000 l 733 818 q 590 913 663 883 q 431 943 518 943 q 223 885 297 943 q 149 724 149 828 q 213 592 149 635 q 394 519 278 549 l 457 504 q 621 458 558 481 q 727 386 683 435 q 771 256 771 338 q 729 117 771 178 q 610 23 688 57 q 432 -11 533 -11 m 464 1224 l 464 1135 l 374 1135 l 374 1224 l 464 1224 z "},"Ṣ":{"ha":839,"x_min":72,"x_max":771,"o":"m 432 -11 q 228 21 315 -11 q 72 122 142 53 l 101 171 q 250 74 175 103 q 432 46 325 46 q 637 102 564 46 q 710 260 710 158 q 674 355 710 318 q 584 410 638 392 q 442 450 531 429 q 258 501 324 478 q 140 579 192 525 q 89 726 89 633 q 131 870 89 808 q 249 966 172 932 q 431 1000 326 1000 q 763 867 636 1000 l 733 818 q 590 913 663 883 q 431 943 518 943 q 223 885 297 943 q 149 724 149 828 q 213 592 149 635 q 394 519 278 549 l 457 504 q 621 458 558 481 q 727 386 683 435 q 771 256 771 338 q 729 117 771 178 q 610 23 688 57 q 432 -11 533 -11 m 474 -153 l 474 -243 l 381 -243 l 381 -153 l 474 -153 z "},"Ṩ":{"ha":839,"x_min":72,"x_max":771,"o":"m 432 -11 q 228 21 315 -11 q 72 122 142 53 l 101 171 q 250 74 175 103 q 432 46 325 46 q 637 102 564 46 q 710 260 710 158 q 674 355 710 318 q 584 410 638 392 q 442 450 531 429 q 258 501 324 478 q 140 579 192 525 q 89 726 89 633 q 131 870 89 808 q 249 966 172 932 q 431 1000 326 1000 q 763 867 636 1000 l 733 818 q 590 913 663 883 q 431 943 518 943 q 223 885 297 943 q 149 724 149 828 q 213 592 149 635 q 394 519 278 549 l 457 504 q 621 458 558 481 q 727 386 683 435 q 771 256 771 338 q 729 117 771 178 q 610 23 688 57 q 432 -11 533 -11 m 474 -153 l 474 -243 l 381 -243 l 381 -153 l 474 -153 m 464 1224 l 464 1135 l 374 1135 l 374 1224 l 464 1224 z "},"ẞ":{"ha":949,"x_min":135,"x_max":850,"o":"m 640 515 q 797 430 743 493 q 850 268 850 367 q 813 123 850 186 q 707 25 775 60 q 550 -10 639 -10 q 413 15 479 -10 q 296 85 346 39 l 325 138 q 433 69 382 90 q 540 49 485 49 q 722 108 656 49 q 789 269 789 167 q 722 422 789 369 q 528 475 654 475 l 329 475 l 329 531 l 475 531 q 660 585 594 531 q 725 742 725 640 q 660 889 725 836 q 482 942 596 942 q 263 869 333 942 q 193 640 193 796 l 193 0 l 135 0 l 135 653 q 221 913 135 826 q 481 999 307 999 q 704 930 622 999 q 786 742 786 861 q 748 600 786 658 q 640 515 710 542 z "},"Ə":{"ha":1022,"x_min":94,"x_max":928,"o":"m 479 1000 q 718 940 617 1000 q 874 765 819 879 q 928 496 928 651 q 877 225 928 339 q 732 50 826 111 q 510 -11 638 -11 q 290 50 383 -11 q 145 224 196 111 q 94 488 94 336 l 94 532 l 864 532 q 756 837 856 729 q 482 944 656 944 q 160 818 299 944 l 131 867 q 284 965 193 931 q 479 1000 375 1000 m 510 46 q 766 158 672 46 q 865 472 860 271 l 156 472 q 255 158 161 271 q 510 46 349 46 z "},"T":{"ha":819,"x_min":17,"x_max":803,"o":"m 381 936 l 17 936 l 17 989 l 803 989 l 803 936 l 438 936 l 438 0 l 381 0 l 381 936 z "},"Ŧ":{"ha":819,"x_min":17,"x_max":803,"o":"m 438 936 l 438 529 l 644 529 l 644 476 l 438 476 l 438 0 l 381 0 l 381 476 l 175 476 l 175 529 l 381 529 l 381 936 l 17 936 l 17 989 l 803 989 l 803 936 l 438 936 z "},"Ť":{"ha":819,"x_min":17,"x_max":803,"o":"m 381 936 l 17 936 l 17 989 l 803 989 l 803 936 l 438 936 l 438 0 l 381 0 l 381 936 m 592 1282 l 435 1074 l 383 1074 l 226 1282 l 299 1282 l 410 1124 l 519 1282 l 592 1282 z "},"Ţ":{"ha":819,"x_min":17,"x_max":803,"o":"m 428 0 l 422 -62 q 464 -57 440 -57 q 534 -81 503 -57 q 565 -154 565 -106 q 526 -235 565 -204 q 418 -267 486 -267 q 355 -260 388 -267 q 299 -240 322 -254 l 318 -192 q 421 -211 363 -211 q 484 -196 463 -211 q 506 -154 506 -181 q 493 -122 506 -133 q 456 -111 481 -111 q 383 -126 422 -111 l 357 -107 l 371 28 l 381 28 l 381 936 l 17 936 l 17 989 l 803 989 l 803 936 l 438 936 l 438 0 l 428 0 z "},"Ț":{"ha":819,"x_min":17,"x_max":803,"o":"m 381 936 l 17 936 l 17 989 l 803 989 l 803 936 l 438 936 l 438 0 l 381 0 l 381 936 m 458 -107 l 458 -182 q 444 -274 458 -233 q 393 -351 429 -315 l 356 -321 q 394 -261 383 -289 q 406 -197 404 -233 l 360 -197 l 360 -107 l 458 -107 z "},"Ṭ":{"ha":819,"x_min":17,"x_max":803,"o":"m 381 936 l 17 936 l 17 989 l 803 989 l 803 936 l 438 936 l 438 0 l 381 0 l 381 936 m 456 -153 l 456 -243 l 363 -243 l 363 -153 l 456 -153 z "},"Ṯ":{"ha":819,"x_min":17,"x_max":803,"o":"m 381 936 l 17 936 l 17 989 l 803 989 l 803 936 l 438 936 l 438 0 l 381 0 l 381 936 m 204 -167 l 614 -167 l 614 -228 l 204 -228 l 204 -167 z "},"U":{"ha":1003,"x_min":128,"x_max":876,"o":"m 503 -11 q 223 87 318 -11 q 128 375 128 185 l 128 989 l 185 989 l 185 365 q 503 46 185 46 q 738 126 658 46 q 818 365 818 207 l 818 989 l 876 989 l 876 375 q 781 87 876 185 q 503 -11 686 -11 z "},"Ú":{"ha":1003,"x_min":128,"x_max":876,"o":"m 503 -11 q 223 87 318 -11 q 128 375 128 185 l 128 989 l 185 989 l 185 365 q 503 46 185 46 q 738 126 658 46 q 818 365 818 207 l 818 989 l 876 989 l 876 375 q 781 87 876 185 q 503 -11 686 -11 m 476 1074 l 617 1282 l 701 1282 l 528 1074 l 476 1074 z "},"Ŭ":{"ha":1003,"x_min":128,"x_max":876,"o":"m 503 -11 q 223 87 318 -11 q 128 375 128 185 l 128 989 l 185 989 l 185 365 q 503 46 185 46 q 738 126 658 46 q 818 365 818 207 l 818 989 l 876 989 l 876 375 q 781 87 876 185 q 503 -11 686 -11 m 503 1092 q 374 1126 431 1092 q 286 1239 317 1160 l 342 1264 q 415 1173 378 1197 q 503 1149 451 1149 q 590 1173 553 1149 q 663 1264 626 1197 l 718 1239 q 503 1092 658 1092 z "},"Û":{"ha":1003,"x_min":128,"x_max":876,"o":"m 503 -11 q 223 87 318 -11 q 128 375 128 185 l 128 989 l 185 989 l 185 365 q 503 46 185 46 q 738 126 658 46 q 818 365 818 207 l 818 989 l 876 989 l 876 375 q 781 87 876 185 q 503 -11 686 -11 m 319 1074 l 476 1282 l 528 1282 l 685 1074 l 613 1074 l 503 1232 l 392 1074 l 319 1074 z "},"Ȕ":{"ha":1003,"x_min":128,"x_max":876,"o":"m 503 -11 q 223 87 318 -11 q 128 375 128 185 l 128 989 l 185 989 l 185 365 q 503 46 185 46 q 738 126 658 46 q 818 365 818 207 l 818 989 l 876 989 l 876 375 q 781 87 876 185 q 503 -11 686 -11 m 272 1282 l 346 1282 l 444 1074 l 407 1074 l 272 1282 m 424 1282 l 500 1282 l 597 1074 l 560 1074 l 424 1282 z "},"Ü":{"ha":1003,"x_min":128,"x_max":876,"o":"m 503 -11 q 223 87 318 -11 q 128 375 128 185 l 128 989 l 185 989 l 185 365 q 503 46 185 46 q 738 126 658 46 q 818 365 818 207 l 818 989 l 876 989 l 876 375 q 781 87 876 185 q 503 -11 686 -11 m 432 1222 l 432 1138 l 346 1138 l 346 1222 l 432 1222 m 658 1222 l 658 1138 l 572 1138 l 572 1222 l 658 1222 z "},"Ụ":{"ha":1003,"x_min":128,"x_max":876,"o":"m 503 -11 q 223 87 318 -11 q 128 375 128 185 l 128 989 l 185 989 l 185 365 q 503 46 185 46 q 738 126 658 46 q 818 365 818 207 l 818 989 l 876 989 l 876 375 q 781 87 876 185 q 503 -11 686 -11 m 549 -153 l 549 -243 l 456 -243 l 456 -153 l 549 -153 z "},"Ù":{"ha":1003,"x_min":128,"x_max":876,"o":"m 503 -11 q 223 87 318 -11 q 128 375 128 185 l 128 989 l 185 989 l 185 365 q 503 46 185 46 q 738 126 658 46 q 818 365 818 207 l 818 989 l 876 989 l 876 375 q 781 87 876 185 q 503 -11 686 -11 m 303 1282 l 388 1282 l 528 1074 l 476 1074 l 303 1282 z "},"Ủ":{"ha":1003,"x_min":128,"x_max":876,"o":"m 503 -11 q 223 87 318 -11 q 128 375 128 185 l 128 989 l 185 989 l 185 365 q 503 46 185 46 q 738 126 658 46 q 818 365 818 207 l 818 989 l 876 989 l 876 375 q 781 87 876 185 q 503 -11 686 -11 m 532 1074 l 474 1074 l 474 1094 q 488 1133 474 1119 q 531 1164 503 1147 q 560 1183 550 1174 q 569 1203 569 1192 q 553 1224 569 1217 q 507 1231 536 1231 q 418 1214 463 1231 l 401 1267 q 506 1289 451 1289 q 602 1265 568 1289 q 636 1200 636 1242 q 620 1158 636 1172 q 574 1126 604 1143 q 542 1108 553 1117 q 532 1086 532 1099 l 532 1074 z "},"Ư":{"ha":1003,"x_min":128,"x_max":1043,"o":"m 1043 1167 l 1043 1139 q 1001 1002 1043 1053 q 876 940 958 951 l 876 375 q 781 87 876 185 q 503 -11 686 -11 q 223 87 318 -11 q 128 375 128 185 l 128 989 l 185 989 l 185 365 q 503 46 185 46 q 738 126 658 46 q 818 365 818 207 l 818 989 l 835 989 q 952 1027 917 990 q 988 1149 988 1064 l 988 1167 l 1043 1167 z "},"Ứ":{"ha":1003,"x_min":128,"x_max":1043,"o":"m 1043 1167 l 1043 1139 q 1001 1002 1043 1053 q 876 940 958 951 l 876 375 q 781 87 876 185 q 503 -11 686 -11 q 223 87 318 -11 q 128 375 128 185 l 128 989 l 185 989 l 185 365 q 503 46 185 46 q 738 126 658 46 q 818 365 818 207 l 818 989 l 835 989 q 952 1027 917 990 q 988 1149 988 1064 l 988 1167 l 1043 1167 m 476 1074 l 617 1282 l 701 1282 l 528 1074 l 476 1074 z "},"Ự":{"ha":1003,"x_min":128,"x_max":1043,"o":"m 1043 1167 l 1043 1139 q 1001 1002 1043 1053 q 876 940 958 951 l 876 375 q 781 87 876 185 q 503 -11 686 -11 q 223 87 318 -11 q 128 375 128 185 l 128 989 l 185 989 l 185 365 q 503 46 185 46 q 738 126 658 46 q 818 365 818 207 l 818 989 l 835 989 q 952 1027 917 990 q 988 1149 988 1064 l 988 1167 l 1043 1167 m 549 -153 l 549 -243 l 456 -243 l 456 -153 l 549 -153 z "},"Ừ":{"ha":1003,"x_min":128,"x_max":1043,"o":"m 1043 1167 l 1043 1139 q 1001 1002 1043 1053 q 876 940 958 951 l 876 375 q 781 87 876 185 q 503 -11 686 -11 q 223 87 318 -11 q 128 375 128 185 l 128 989 l 185 989 l 185 365 q 503 46 185 46 q 738 126 658 46 q 818 365 818 207 l 818 989 l 835 989 q 952 1027 917 990 q 988 1149 988 1064 l 988 1167 l 1043 1167 m 303 1282 l 388 1282 l 528 1074 l 476 1074 l 303 1282 z "},"Ử":{"ha":1003,"x_min":128,"x_max":1043,"o":"m 1043 1167 l 1043 1139 q 1001 1002 1043 1053 q 876 940 958 951 l 876 375 q 781 87 876 185 q 503 -11 686 -11 q 223 87 318 -11 q 128 375 128 185 l 128 989 l 185 989 l 185 365 q 503 46 185 46 q 738 126 658 46 q 818 365 818 207 l 818 989 l 835 989 q 952 1027 917 990 q 988 1149 988 1064 l 988 1167 l 1043 1167 m 532 1074 l 474 1074 l 474 1094 q 488 1133 474 1119 q 531 1164 503 1147 q 560 1183 550 1174 q 569 1203 569 1192 q 553 1224 569 1217 q 507 1231 536 1231 q 418 1214 463 1231 l 401 1267 q 506 1289 451 1289 q 602 1265 568 1289 q 636 1200 636 1242 q 620 1158 636 1172 q 574 1126 604 1143 q 542 1108 553 1117 q 532 1086 532 1099 l 532 1074 z "},"Ữ":{"ha":1003,"x_min":128,"x_max":1043,"o":"m 1043 1167 l 1043 1139 q 1001 1002 1043 1053 q 876 940 958 951 l 876 375 q 781 87 876 185 q 503 -11 686 -11 q 223 87 318 -11 q 128 375 128 185 l 128 989 l 185 989 l 185 365 q 503 46 185 46 q 738 126 658 46 q 818 365 818 207 l 818 989 l 835 989 q 952 1027 917 990 q 988 1149 988 1064 l 988 1167 l 1043 1167 m 286 1114 q 315 1213 286 1176 q 397 1250 344 1250 q 453 1238 428 1250 q 519 1201 479 1226 q 566 1174 547 1183 q 601 1165 585 1165 q 654 1190 636 1165 q 671 1246 672 1214 l 718 1246 q 689 1147 718 1185 q 607 1110 660 1110 q 549 1122 576 1110 q 485 1158 521 1135 q 436 1185 454 1176 q 403 1193 418 1193 q 350 1169 368 1193 q 333 1114 332 1146 l 286 1114 z "},"Ű":{"ha":1003,"x_min":128,"x_max":876,"o":"m 503 -11 q 223 87 318 -11 q 128 375 128 185 l 128 989 l 185 989 l 185 365 q 503 46 185 46 q 738 126 658 46 q 818 365 818 207 l 818 989 l 876 989 l 876 375 q 781 87 876 185 q 503 -11 686 -11 m 504 1282 l 581 1282 l 444 1074 l 407 1074 l 504 1282 m 658 1282 l 732 1282 l 597 1074 l 560 1074 l 658 1282 z "},"Ȗ":{"ha":1003,"x_min":128,"x_max":876,"o":"m 503 -11 q 223 87 318 -11 q 128 375 128 185 l 128 989 l 185 989 l 185 365 q 503 46 185 46 q 738 126 658 46 q 818 365 818 207 l 818 989 l 876 989 l 876 375 q 781 87 876 185 q 503 -11 686 -11 m 503 1265 q 631 1231 574 1265 q 718 1118 688 1197 l 663 1094 q 590 1184 626 1160 q 503 1208 553 1208 q 415 1184 451 1208 q 342 1094 378 1160 l 286 1118 q 503 1265 346 1265 z "},"Ū":{"ha":1003,"x_min":128,"x_max":876,"o":"m 503 -11 q 223 87 318 -11 q 128 375 128 185 l 128 989 l 185 989 l 185 365 q 503 46 185 46 q 738 126 658 46 q 818 365 818 207 l 818 989 l 876 989 l 876 375 q 781 87 876 185 q 503 -11 686 -11 m 297 1210 l 707 1210 l 707 1150 l 297 1150 l 297 1210 z "},"Ṻ":{"ha":1003,"x_min":128,"x_max":876,"o":"m 503 -11 q 223 87 318 -11 q 128 375 128 185 l 128 989 l 185 989 l 185 365 q 503 46 185 46 q 738 126 658 46 q 818 365 818 207 l 818 989 l 876 989 l 876 375 q 781 87 876 185 q 503 -11 686 -11 m 297 1210 l 707 1210 l 707 1150 l 297 1150 l 297 1210 m 432 1447 l 432 1363 l 346 1363 l 346 1447 l 432 1447 m 658 1447 l 658 1363 l 572 1363 l 572 1447 l 658 1447 z "},"Ų":{"ha":1003,"x_min":128,"x_max":876,"o":"m 876 989 l 876 375 q 651 8 876 79 q 555 -42 585 -12 q 525 -118 525 -72 q 551 -187 525 -162 q 621 -212 576 -212 q 706 -186 653 -212 l 726 -235 q 618 -267 683 -267 q 506 -227 549 -267 q 463 -124 463 -187 q 517 -11 463 -53 l 503 -11 q 223 87 318 -11 q 128 375 128 185 l 128 989 l 185 989 l 185 365 q 503 46 185 46 q 738 126 658 46 q 818 365 818 207 l 818 989 l 876 989 z "},"Ů":{"ha":1003,"x_min":128,"x_max":876,"o":"m 503 -11 q 223 87 318 -11 q 128 375 128 185 l 128 989 l 185 989 l 185 365 q 503 46 185 46 q 738 126 658 46 q 818 365 818 207 l 818 989 l 876 989 l 876 375 q 781 87 876 185 q 503 -11 686 -11 m 503 1067 q 407 1105 446 1067 q 368 1200 368 1143 q 407 1294 368 1256 q 503 1332 446 1332 q 597 1294 558 1332 q 636 1200 636 1256 q 597 1105 636 1143 q 503 1067 558 1067 m 503 1125 q 553 1147 533 1125 q 574 1200 574 1168 q 553 1251 574 1231 q 503 1272 533 1272 q 451 1251 472 1272 q 431 1200 431 1231 q 451 1147 431 1168 q 503 1125 472 1125 z "},"Ũ":{"ha":1003,"x_min":128,"x_max":876,"o":"m 503 -11 q 223 87 318 -11 q 128 375 128 185 l 128 989 l 185 989 l 185 365 q 503 46 185 46 q 738 126 658 46 q 818 365 818 207 l 818 989 l 876 989 l 876 375 q 781 87 876 185 q 503 -11 686 -11 m 286 1114 q 315 1213 286 1176 q 397 1250 344 1250 q 453 1238 428 1250 q 519 1201 479 1226 q 566 1174 547 1183 q 601 1165 585 1165 q 654 1190 636 1165 q 671 1246 672 1214 l 718 1246 q 689 1147 718 1185 q 607 1110 660 1110 q 549 1122 576 1110 q 485 1158 521 1135 q 436 1185 454 1176 q 403 1193 418 1193 q 350 1169 368 1193 q 333 1114 332 1146 l 286 1114 z "},"Ṹ":{"ha":1003,"x_min":128,"x_max":876,"o":"m 503 -11 q 223 87 318 -11 q 128 375 128 185 l 128 989 l 185 989 l 185 365 q 503 46 185 46 q 738 126 658 46 q 818 365 818 207 l 818 989 l 876 989 l 876 375 q 781 87 876 185 q 503 -11 686 -11 m 286 1114 q 315 1213 286 1176 q 397 1250 344 1250 q 453 1238 428 1250 q 519 1201 479 1226 q 566 1174 547 1183 q 601 1165 585 1165 q 654 1190 636 1165 q 671 1246 672 1214 l 718 1246 q 689 1147 718 1185 q 607 1110 660 1110 q 549 1122 576 1110 q 485 1158 521 1135 q 436 1185 454 1176 q 403 1193 418 1193 q 350 1169 368 1193 q 333 1114 332 1146 l 286 1114 m 476 1299 l 617 1507 l 701 1507 l 528 1299 l 476 1299 z "},"V":{"ha":940,"x_min":17,"x_max":925,"o":"m 925 989 l 499 0 l 440 0 l 17 989 l 78 989 l 471 75 l 863 989 l 925 989 z "},"W":{"ha":1533,"x_min":58,"x_max":1475,"o":"m 1475 989 l 1132 0 l 1078 0 l 767 893 l 454 0 l 401 0 l 58 989 l 117 989 l 428 83 l 740 989 l 792 988 l 1103 85 l 1415 989 l 1475 989 z "},"Ẃ":{"ha":1533,"x_min":58,"x_max":1475,"o":"m 1475 989 l 1132 0 l 1078 0 l 767 893 l 454 0 l 401 0 l 58 989 l 117 989 l 428 83 l 740 989 l 792 988 l 1103 85 l 1415 989 l 1475 989 m 739 1074 l 879 1282 l 964 1282 l 790 1074 l 739 1074 z "},"Ŵ":{"ha":1533,"x_min":58,"x_max":1475,"o":"m 1475 989 l 1132 0 l 1078 0 l 767 893 l 454 0 l 401 0 l 58 989 l 117 989 l 428 83 l 740 989 l 792 988 l 1103 85 l 1415 989 l 1475 989 m 582 1074 l 739 1282 l 790 1282 l 947 1074 l 875 1074 l 765 1232 l 654 1074 l 582 1074 z "},"Ẅ":{"ha":1533,"x_min":58,"x_max":1475,"o":"m 1475 989 l 1132 0 l 1078 0 l 767 893 l 454 0 l 401 0 l 58 989 l 117 989 l 428 83 l 740 989 l 792 988 l 1103 85 l 1415 989 l 1475 989 m 694 1222 l 694 1138 l 608 1138 l 608 1222 l 694 1222 m 921 1222 l 921 1138 l 835 1138 l 835 1222 l 921 1222 z "},"Ẁ":{"ha":1533,"x_min":58,"x_max":1475,"o":"m 1475 989 l 1132 0 l 1078 0 l 767 893 l 454 0 l 401 0 l 58 989 l 117 989 l 428 83 l 740 989 l 792 988 l 1103 85 l 1415 989 l 1475 989 m 565 1282 l 650 1282 l 790 1074 l 739 1074 l 565 1282 z "},"X":{"ha":883,"x_min":33,"x_max":850,"o":"m 850 0 l 782 0 l 443 463 l 104 0 l 33 0 l 410 510 l 56 989 l 125 989 l 444 554 l 761 989 l 829 989 l 476 507 l 850 0 z "},"Y":{"ha":815,"x_min":1,"x_max":813,"o":"m 436 411 l 436 0 l 378 0 l 378 414 l 1 989 l 71 989 l 408 468 l 746 989 l 813 989 l 436 411 z "},"Ý":{"ha":815,"x_min":1,"x_max":813,"o":"m 436 411 l 436 0 l 378 0 l 378 414 l 1 989 l 71 989 l 408 468 l 746 989 l 813 989 l 436 411 m 381 1074 l 521 1282 l 606 1282 l 432 1074 l 381 1074 z "},"Ŷ":{"ha":815,"x_min":1,"x_max":813,"o":"m 436 411 l 436 0 l 378 0 l 378 414 l 1 989 l 71 989 l 408 468 l 746 989 l 813 989 l 436 411 m 224 1074 l 381 1282 l 432 1282 l 589 1074 l 517 1074 l 407 1232 l 296 1074 l 224 1074 z "},"Ÿ":{"ha":815,"x_min":1,"x_max":813,"o":"m 436 411 l 436 0 l 378 0 l 378 414 l 1 989 l 71 989 l 408 468 l 746 989 l 813 989 l 436 411 m 336 1222 l 336 1138 l 250 1138 l 250 1222 l 336 1222 m 563 1222 l 563 1138 l 476 1138 l 476 1222 l 563 1222 z "},"Ẏ":{"ha":815,"x_min":1,"x_max":813,"o":"m 436 411 l 436 0 l 378 0 l 378 414 l 1 989 l 71 989 l 408 468 l 746 989 l 813 989 l 436 411 m 451 1224 l 451 1135 l 361 1135 l 361 1224 l 451 1224 z "},"Ỵ":{"ha":815,"x_min":1,"x_max":813,"o":"m 436 411 l 436 0 l 378 0 l 378 414 l 1 989 l 71 989 l 408 468 l 746 989 l 813 989 l 436 411 m 453 -153 l 453 -243 l 360 -243 l 360 -153 l 453 -153 z "},"Ỳ":{"ha":815,"x_min":1,"x_max":813,"o":"m 436 411 l 436 0 l 378 0 l 378 414 l 1 989 l 71 989 l 408 468 l 746 989 l 813 989 l 436 411 m 207 1282 l 292 1282 l 432 1074 l 381 1074 l 207 1282 z "},"Ỷ":{"ha":815,"x_min":1,"x_max":813,"o":"m 436 411 l 436 0 l 378 0 l 378 414 l 1 989 l 71 989 l 408 468 l 746 989 l 813 989 l 436 411 m 436 1074 l 378 1074 l 378 1094 q 392 1133 378 1119 q 435 1164 407 1147 q 464 1183 454 1174 q 474 1203 474 1192 q 457 1224 474 1217 q 411 1231 440 1231 q 322 1214 367 1231 l 306 1267 q 410 1289 356 1289 q 506 1265 472 1289 q 540 1200 540 1242 q 524 1158 540 1172 q 478 1126 508 1143 q 447 1108 457 1117 q 436 1086 436 1099 l 436 1074 z "},"Ȳ":{"ha":815,"x_min":1,"x_max":813,"o":"m 436 411 l 436 0 l 378 0 l 378 414 l 1 989 l 71 989 l 408 468 l 746 989 l 813 989 l 436 411 m 201 1210 l 611 1210 l 611 1150 l 201 1150 l 201 1210 z "},"Ỹ":{"ha":815,"x_min":1,"x_max":813,"o":"m 436 411 l 436 0 l 378 0 l 378 414 l 1 989 l 71 989 l 408 468 l 746 989 l 813 989 l 436 411 m 190 1114 q 219 1213 190 1176 q 301 1250 249 1250 q 358 1238 332 1250 q 424 1201 383 1226 q 470 1174 451 1183 q 506 1165 489 1165 q 558 1190 540 1165 q 575 1246 576 1214 l 622 1246 q 593 1147 622 1185 q 511 1110 564 1110 q 453 1122 481 1110 q 389 1158 425 1135 q 340 1185 358 1176 q 307 1193 322 1193 q 254 1169 272 1193 q 238 1114 236 1146 l 190 1114 z "},"Z":{"ha":813,"x_min":58,"x_max":758,"o":"m 758 0 l 93 0 l 92 -3 l 92 0 l 58 0 l 58 43 l 675 935 l 58 935 l 58 989 l 713 989 l 714 992 l 714 989 l 744 989 l 744 946 l 131 54 l 758 54 l 758 0 z "},"Ź":{"ha":813,"x_min":58,"x_max":758,"o":"m 758 0 l 93 0 l 92 -3 l 92 0 l 58 0 l 58 43 l 675 935 l 58 935 l 58 989 l 713 989 l 714 992 l 714 989 l 744 989 l 744 946 l 131 54 l 758 54 l 758 0 m 378 1074 l 518 1282 l 603 1282 l 429 1074 l 378 1074 z "},"Ž":{"ha":813,"x_min":58,"x_max":758,"o":"m 758 0 l 93 0 l 92 -3 l 92 0 l 58 0 l 58 43 l 675 935 l 58 935 l 58 989 l 713 989 l 714 992 l 714 989 l 744 989 l 744 946 l 131 54 l 758 54 l 758 0 m 586 1282 l 429 1074 l 378 1074 l 221 1282 l 293 1282 l 404 1124 l 514 1282 l 586 1282 z "},"Ż":{"ha":813,"x_min":58,"x_max":758,"o":"m 758 0 l 93 0 l 92 -3 l 92 0 l 58 0 l 58 43 l 675 935 l 58 935 l 58 989 l 713 989 l 714 992 l 714 989 l 744 989 l 744 946 l 131 54 l 758 54 l 758 0 m 449 1224 l 449 1135 l 358 1135 l 358 1224 l 449 1224 z "},"Ẓ":{"ha":813,"x_min":58,"x_max":758,"o":"m 758 0 l 93 0 l 92 -3 l 92 0 l 58 0 l 58 43 l 675 935 l 58 935 l 58 989 l 713 989 l 714 992 l 714 989 l 744 989 l 744 946 l 131 54 l 758 54 l 758 0 m 463 -153 l 463 -243 l 369 -243 l 369 -153 l 463 -153 z "},"a":{"ha":810,"x_min":75,"x_max":688,"o":"m 688 694 l 688 0 l 629 0 l 629 139 q 535 28 599 67 q 385 -10 472 -10 q 222 34 292 -10 q 113 159 151 78 q 75 349 75 240 q 114 539 75 457 q 223 666 153 621 q 385 711 293 711 q 535 674 472 711 q 629 564 599 636 l 629 694 l 688 694 m 386 47 q 565 127 501 47 q 629 351 629 207 q 565 576 629 497 q 385 654 501 654 q 203 574 268 654 q 138 349 138 493 q 203 126 138 206 q 386 47 269 47 z "},"á":{"ha":810,"x_min":75,"x_max":688,"o":"m 688 694 l 688 0 l 629 0 l 629 139 q 535 28 599 67 q 385 -10 472 -10 q 222 34 292 -10 q 113 159 151 78 q 75 349 75 240 q 114 539 75 457 q 223 666 153 621 q 385 711 293 711 q 535 674 472 711 q 629 564 599 636 l 629 694 l 688 694 m 386 47 q 565 127 501 47 q 629 351 629 207 q 565 576 629 497 q 385 654 501 654 q 203 574 268 654 q 138 349 138 493 q 203 126 138 206 q 386 47 269 47 m 381 786 l 521 1067 l 608 1067 l 432 786 l 381 786 z "},"ă":{"ha":810,"x_min":75,"x_max":688,"o":"m 688 694 l 688 0 l 629 0 l 629 139 q 535 28 599 67 q 385 -10 472 -10 q 222 34 292 -10 q 113 159 151 78 q 75 349 75 240 q 114 539 75 457 q 223 666 153 621 q 385 711 293 711 q 535 674 472 711 q 629 564 599 636 l 629 694 l 688 694 m 386 47 q 565 127 501 47 q 629 351 629 207 q 565 576 629 497 q 385 654 501 654 q 203 574 268 654 q 138 349 138 493 q 203 126 138 206 q 386 47 269 47 m 407 835 q 279 873 336 835 q 190 997 222 911 l 247 1021 q 317 921 278 951 q 407 890 357 890 q 496 921 457 890 q 565 1021 535 951 l 622 999 q 535 874 592 913 q 407 835 478 835 z "},"ắ":{"ha":810,"x_min":75,"x_max":688,"o":"m 688 694 l 688 0 l 629 0 l 629 139 q 535 28 599 67 q 385 -10 472 -10 q 222 34 292 -10 q 113 159 151 78 q 75 349 75 240 q 114 539 75 457 q 223 666 153 621 q 385 711 293 711 q 535 674 472 711 q 629 564 599 636 l 629 694 l 688 694 m 386 47 q 565 127 501 47 q 629 351 629 207 q 565 576 629 497 q 385 654 501 654 q 203 574 268 654 q 138 349 138 493 q 203 126 138 206 q 386 47 269 47 m 382 928 l 521 1126 l 607 1126 l 431 928 l 382 928 m 407 778 q 278 813 336 778 q 190 926 221 847 l 249 951 q 320 862 285 885 q 407 839 356 839 q 492 862 457 839 q 564 951 528 885 l 622 926 q 533 813 590 847 q 407 778 476 778 z "},"ặ":{"ha":810,"x_min":75,"x_max":688,"o":"m 688 694 l 688 0 l 629 0 l 629 139 q 535 28 599 67 q 385 -10 472 -10 q 222 34 292 -10 q 113 159 151 78 q 75 349 75 240 q 114 539 75 457 q 223 666 153 621 q 385 711 293 711 q 535 674 472 711 q 629 564 599 636 l 629 694 l 688 694 m 386 47 q 565 127 501 47 q 629 351 629 207 q 565 576 629 497 q 385 654 501 654 q 203 574 268 654 q 138 349 138 493 q 203 126 138 206 q 386 47 269 47 m 453 -153 l 453 -243 l 360 -243 l 360 -153 l 453 -153 m 407 835 q 279 873 336 835 q 190 997 222 911 l 247 1021 q 317 921 278 951 q 407 890 357 890 q 496 921 457 890 q 565 1021 535 951 l 622 999 q 535 874 592 913 q 407 835 478 835 z "},"ằ":{"ha":810,"x_min":75,"x_max":688,"o":"m 688 694 l 688 0 l 629 0 l 629 139 q 535 28 599 67 q 385 -10 472 -10 q 222 34 292 -10 q 113 159 151 78 q 75 349 75 240 q 114 539 75 457 q 223 666 153 621 q 385 711 293 711 q 535 674 472 711 q 629 564 599 636 l 629 694 l 688 694 m 386 47 q 565 127 501 47 q 629 351 629 207 q 565 576 629 497 q 385 654 501 654 q 203 574 268 654 q 138 349 138 493 q 203 126 138 206 q 386 47 269 47 m 206 1126 l 292 1126 l 431 928 l 382 928 l 206 1126 m 407 778 q 279 813 336 778 q 190 926 222 847 l 249 951 q 320 862 285 885 q 407 839 356 839 q 492 862 457 839 q 564 951 528 885 l 622 926 q 535 813 592 847 q 407 778 478 778 z "},"ẳ":{"ha":810,"x_min":75,"x_max":688,"o":"m 688 694 l 688 0 l 629 0 l 629 139 q 535 28 599 67 q 385 -10 472 -10 q 222 34 292 -10 q 113 159 151 78 q 75 349 75 240 q 114 539 75 457 q 223 666 153 621 q 385 711 293 711 q 535 674 472 711 q 629 564 599 636 l 629 694 l 688 694 m 386 47 q 565 127 501 47 q 629 351 629 207 q 565 576 629 497 q 385 654 501 654 q 203 574 268 654 q 138 349 138 493 q 203 126 138 206 q 386 47 269 47 m 436 928 l 378 928 l 378 949 q 393 985 378 972 q 435 1010 408 999 q 465 1026 456 1019 q 474 1044 474 1033 q 456 1066 474 1058 q 411 1074 439 1074 q 322 1056 365 1074 l 306 1110 q 410 1133 360 1133 q 506 1108 471 1133 q 540 1042 540 1083 q 525 1005 540 1018 q 481 979 510 992 q 447 961 458 969 q 436 940 436 953 l 436 928 m 407 778 q 279 813 336 778 q 190 926 222 847 l 249 951 q 320 862 285 885 q 407 839 356 839 q 492 862 457 839 q 564 951 528 885 l 622 926 q 535 813 592 847 q 407 778 478 778 z "},"ẵ":{"ha":810,"x_min":75,"x_max":688,"o":"m 688 694 l 688 0 l 629 0 l 629 139 q 535 28 599 67 q 385 -10 472 -10 q 222 34 292 -10 q 113 159 151 78 q 75 349 75 240 q 114 539 75 457 q 223 666 153 621 q 385 711 293 711 q 535 674 472 711 q 629 564 599 636 l 629 694 l 688 694 m 386 47 q 565 127 501 47 q 629 351 629 207 q 565 576 629 497 q 385 654 501 654 q 203 574 268 654 q 138 349 138 493 q 203 126 138 206 q 386 47 269 47 m 190 997 q 219 1101 190 1064 q 301 1139 249 1139 q 359 1126 332 1139 q 424 1089 386 1114 q 472 1060 454 1069 q 506 1051 490 1051 q 558 1076 540 1051 q 575 1135 576 1101 l 622 1135 q 593 1031 622 1068 q 511 993 564 993 q 453 1006 481 993 q 389 1043 426 1018 q 340 1072 358 1063 q 307 1081 322 1081 q 254 1055 272 1081 q 238 997 236 1029 l 190 997 m 407 778 q 279 813 336 778 q 190 926 222 847 l 249 951 q 320 862 285 885 q 407 839 356 839 q 492 862 457 839 q 564 951 528 885 l 622 926 q 535 813 592 847 q 407 778 478 778 z "},"ǎ":{"ha":810,"x_min":75,"x_max":688,"o":"m 688 694 l 688 0 l 629 0 l 629 139 q 535 28 599 67 q 385 -10 472 -10 q 222 34 292 -10 q 113 159 151 78 q 75 349 75 240 q 114 539 75 457 q 223 666 153 621 q 385 711 293 711 q 535 674 472 711 q 629 564 599 636 l 629 694 l 688 694 m 386 47 q 565 127 501 47 q 629 351 629 207 q 565 576 629 497 q 385 654 501 654 q 203 574 268 654 q 138 349 138 493 q 203 126 138 206 q 386 47 269 47 m 589 1067 l 433 786 l 379 786 l 224 1067 l 296 1067 l 407 844 l 517 1067 l 589 1067 z "},"â":{"ha":810,"x_min":75,"x_max":688,"o":"m 688 694 l 688 0 l 629 0 l 629 139 q 535 28 599 67 q 385 -10 472 -10 q 222 34 292 -10 q 113 159 151 78 q 75 349 75 240 q 114 539 75 457 q 223 666 153 621 q 385 711 293 711 q 535 674 472 711 q 629 564 599 636 l 629 694 l 688 694 m 386 47 q 565 127 501 47 q 629 351 629 207 q 565 576 629 497 q 385 654 501 654 q 203 574 268 654 q 138 349 138 493 q 203 126 138 206 q 386 47 269 47 m 224 786 l 379 1067 l 433 1067 l 589 786 l 517 786 l 407 1007 l 296 786 l 224 786 z "},"ấ":{"ha":810,"x_min":75,"x_max":749,"o":"m 688 694 l 688 0 l 629 0 l 629 139 q 535 28 599 67 q 385 -10 472 -10 q 222 34 292 -10 q 113 159 151 78 q 75 349 75 240 q 114 539 75 457 q 223 666 153 621 q 385 711 293 711 q 535 674 472 711 q 629 564 599 636 l 629 694 l 688 694 m 386 47 q 565 127 501 47 q 629 351 629 207 q 565 576 629 497 q 385 654 501 654 q 203 574 268 654 q 138 349 138 493 q 203 126 138 206 q 386 47 269 47 m 517 928 l 661 1126 l 749 1126 l 568 928 l 517 928 m 224 786 l 381 999 l 432 999 l 589 786 l 517 786 l 407 947 l 296 786 l 224 786 z "},"ậ":{"ha":810,"x_min":75,"x_max":688,"o":"m 688 694 l 688 0 l 629 0 l 629 139 q 535 28 599 67 q 385 -10 472 -10 q 222 34 292 -10 q 113 159 151 78 q 75 349 75 240 q 114 539 75 457 q 223 666 153 621 q 385 711 293 711 q 535 674 472 711 q 629 564 599 636 l 629 694 l 688 694 m 386 47 q 565 127 501 47 q 629 351 629 207 q 565 576 629 497 q 385 654 501 654 q 203 574 268 654 q 138 349 138 493 q 203 126 138 206 q 386 47 269 47 m 453 -153 l 453 -243 l 360 -243 l 360 -153 l 453 -153 m 224 786 l 379 1067 l 433 1067 l 589 786 l 517 786 l 407 1007 l 296 786 l 224 786 z "},"ầ":{"ha":810,"x_min":75,"x_max":688,"o":"m 688 694 l 688 0 l 629 0 l 629 139 q 535 28 599 67 q 385 -10 472 -10 q 222 34 292 -10 q 113 159 151 78 q 75 349 75 240 q 114 539 75 457 q 223 666 153 621 q 385 711 293 711 q 535 674 472 711 q 629 564 599 636 l 629 694 l 688 694 m 386 47 q 565 127 501 47 q 629 351 629 207 q 565 576 629 497 q 385 654 501 654 q 203 574 268 654 q 138 349 138 493 q 203 126 138 206 q 386 47 269 47 m 429 1126 l 515 1126 l 628 928 l 578 928 l 429 1126 m 224 786 l 381 999 l 432 999 l 589 786 l 517 786 l 407 947 l 296 786 l 224 786 z "},"ẩ":{"ha":810,"x_min":75,"x_max":688,"o":"m 688 694 l 688 0 l 629 0 l 629 139 q 535 28 599 67 q 385 -10 472 -10 q 222 34 292 -10 q 113 159 151 78 q 75 349 75 240 q 114 539 75 457 q 223 666 153 621 q 385 711 293 711 q 535 674 472 711 q 629 564 599 636 l 629 694 l 688 694 m 386 47 q 565 127 501 47 q 629 351 629 207 q 565 576 629 497 q 385 654 501 654 q 203 574 268 654 q 138 349 138 493 q 203 126 138 206 q 386 47 269 47 m 575 928 l 515 928 l 515 949 q 531 985 515 972 q 572 1010 546 999 q 603 1026 593 1019 q 613 1044 613 1033 q 595 1066 613 1058 q 549 1074 578 1074 q 461 1056 504 1074 l 444 1110 q 547 1133 499 1133 q 645 1108 610 1133 q 681 1042 681 1083 q 665 1005 681 1018 q 619 979 649 992 q 586 961 597 969 q 575 940 575 953 l 575 928 m 224 786 l 381 999 l 432 999 l 589 786 l 517 786 l 407 947 l 296 786 l 224 786 z "},"ẫ":{"ha":810,"x_min":75,"x_max":688,"o":"m 688 694 l 688 0 l 629 0 l 629 139 q 535 28 599 67 q 385 -10 472 -10 q 222 34 292 -10 q 113 159 151 78 q 75 349 75 240 q 114 539 75 457 q 223 666 153 621 q 385 711 293 711 q 535 674 472 711 q 629 564 599 636 l 629 694 l 688 694 m 386 47 q 565 127 501 47 q 629 351 629 207 q 565 576 629 497 q 385 654 501 654 q 203 574 268 654 q 138 349 138 493 q 203 126 138 206 q 386 47 269 47 m 190 1017 q 219 1114 190 1078 q 301 1150 249 1150 q 358 1140 332 1150 q 424 1111 385 1131 q 468 1092 446 1100 q 506 1083 490 1083 q 558 1106 539 1083 q 575 1156 576 1129 l 622 1156 q 592 1059 622 1096 q 511 1022 563 1022 q 453 1033 481 1022 q 389 1063 425 1043 q 341 1085 360 1078 q 307 1092 322 1092 q 255 1067 274 1092 q 238 1017 236 1043 l 190 1017 m 224 786 l 381 999 l 432 999 l 589 786 l 517 786 l 407 947 l 296 786 l 224 786 z "},"ȁ":{"ha":810,"x_min":75,"x_max":688,"o":"m 688 694 l 688 0 l 629 0 l 629 139 q 535 28 599 67 q 385 -10 472 -10 q 222 34 292 -10 q 113 159 151 78 q 75 349 75 240 q 114 539 75 457 q 223 666 153 621 q 385 711 293 711 q 535 674 472 711 q 629 564 599 636 l 629 694 l 688 694 m 386 47 q 565 127 501 47 q 629 351 629 207 q 565 576 629 497 q 385 654 501 654 q 203 574 268 654 q 138 349 138 493 q 203 126 138 206 q 386 47 269 47 m 197 1067 l 276 1067 l 349 786 l 310 786 l 197 1067 m 353 1067 l 432 1067 l 503 786 l 464 786 l 353 1067 z "},"ä":{"ha":810,"x_min":75,"x_max":688,"o":"m 688 694 l 688 0 l 629 0 l 629 139 q 535 28 599 67 q 385 -10 472 -10 q 222 34 292 -10 q 113 159 151 78 q 75 349 75 240 q 114 539 75 457 q 223 666 153 621 q 385 711 293 711 q 535 674 472 711 q 629 564 599 636 l 629 694 l 688 694 m 386 47 q 565 127 501 47 q 629 351 629 207 q 565 576 629 497 q 385 654 501 654 q 203 574 268 654 q 138 349 138 493 q 203 126 138 206 q 386 47 269 47 m 336 969 l 336 885 l 250 885 l 250 969 l 336 969 m 563 969 l 563 885 l 476 885 l 476 969 l 563 969 z "},"ȧ":{"ha":810,"x_min":75,"x_max":688,"o":"m 688 694 l 688 0 l 629 0 l 629 139 q 535 28 599 67 q 385 -10 472 -10 q 222 34 292 -10 q 113 159 151 78 q 75 349 75 240 q 114 539 75 457 q 223 666 153 621 q 385 711 293 711 q 535 674 472 711 q 629 564 599 636 l 629 694 l 688 694 m 386 47 q 565 127 501 47 q 629 351 629 207 q 565 576 629 497 q 385 654 501 654 q 203 574 268 654 q 138 349 138 493 q 203 126 138 206 q 386 47 269 47 m 451 972 l 451 883 l 361 883 l 361 972 l 451 972 z "},"ạ":{"ha":810,"x_min":75,"x_max":688,"o":"m 688 694 l 688 0 l 629 0 l 629 139 q 535 28 599 67 q 385 -10 472 -10 q 222 34 292 -10 q 113 159 151 78 q 75 349 75 240 q 114 539 75 457 q 223 666 153 621 q 385 711 293 711 q 535 674 472 711 q 629 564 599 636 l 629 694 l 688 694 m 386 47 q 565 127 501 47 q 629 351 629 207 q 565 576 629 497 q 385 654 501 654 q 203 574 268 654 q 138 349 138 493 q 203 126 138 206 q 386 47 269 47 m 453 -153 l 453 -243 l 360 -243 l 360 -153 l 453 -153 z "},"à":{"ha":810,"x_min":75,"x_max":688,"o":"m 688 694 l 688 0 l 629 0 l 629 139 q 535 28 599 67 q 385 -10 472 -10 q 222 34 292 -10 q 113 159 151 78 q 75 349 75 240 q 114 539 75 457 q 223 666 153 621 q 385 711 293 711 q 535 674 472 711 q 629 564 599 636 l 629 694 l 688 694 m 386 47 q 565 127 501 47 q 629 351 629 207 q 565 576 629 497 q 385 654 501 654 q 203 574 268 654 q 138 349 138 493 q 203 126 138 206 q 386 47 269 47 m 204 1067 l 292 1067 l 432 786 l 381 786 l 204 1067 z "},"ả":{"ha":810,"x_min":75,"x_max":688,"o":"m 688 694 l 688 0 l 629 0 l 629 139 q 535 28 599 67 q 385 -10 472 -10 q 222 34 292 -10 q 113 159 151 78 q 75 349 75 240 q 114 539 75 457 q 223 666 153 621 q 385 711 293 711 q 535 674 472 711 q 629 564 599 636 l 629 694 l 688 694 m 386 47 q 565 127 501 47 q 629 351 629 207 q 565 576 629 497 q 385 654 501 654 q 203 574 268 654 q 138 349 138 493 q 203 126 138 206 q 386 47 269 47 m 438 786 l 381 786 l 381 828 q 395 876 381 854 q 436 922 410 897 q 465 953 456 940 q 475 981 475 967 q 458 1006 475 997 q 413 1015 442 1015 q 322 999 368 1015 l 306 1049 q 414 1074 360 1074 q 506 1048 472 1074 q 540 982 540 1022 q 527 931 540 950 q 486 889 514 913 q 449 850 461 867 q 438 807 438 833 l 438 786 z "},"ȃ":{"ha":810,"x_min":75,"x_max":688,"o":"m 688 694 l 688 0 l 629 0 l 629 139 q 535 28 599 67 q 385 -10 472 -10 q 222 34 292 -10 q 113 159 151 78 q 75 349 75 240 q 114 539 75 457 q 223 666 153 621 q 385 711 293 711 q 535 674 472 711 q 629 564 599 636 l 629 694 l 688 694 m 386 47 q 565 127 501 47 q 629 351 629 207 q 565 576 629 497 q 385 654 501 654 q 203 574 268 654 q 138 349 138 493 q 203 126 138 206 q 386 47 269 47 m 407 1021 q 533 982 476 1021 q 622 858 590 943 l 565 833 q 496 935 535 906 q 407 965 457 965 q 317 935 356 965 q 247 833 278 906 l 190 857 q 278 981 221 942 q 407 1021 336 1021 z "},"ā":{"ha":810,"x_min":75,"x_max":688,"o":"m 688 694 l 688 0 l 629 0 l 629 139 q 535 28 599 67 q 385 -10 472 -10 q 222 34 292 -10 q 113 159 151 78 q 75 349 75 240 q 114 539 75 457 q 223 666 153 621 q 385 711 293 711 q 535 674 472 711 q 629 564 599 636 l 629 694 l 688 694 m 386 47 q 565 127 501 47 q 629 351 629 207 q 565 576 629 497 q 385 654 501 654 q 203 574 268 654 q 138 349 138 493 q 203 126 138 206 q 386 47 269 47 m 201 958 l 611 958 l 611 897 l 201 897 l 201 958 z "},"ą":{"ha":810,"x_min":75,"x_max":757,"o":"m 757 -240 q 644 -272 713 -272 q 530 -232 574 -272 q 486 -126 486 -192 q 524 -21 486 -67 q 629 44 563 25 l 629 139 q 535 28 599 67 q 385 -10 472 -10 q 222 34 292 -10 q 113 159 151 78 q 75 349 75 240 q 114 539 75 457 q 223 666 153 621 q 385 711 293 711 q 535 674 472 711 q 629 564 599 636 l 629 694 l 688 694 l 688 0 l 682 0 q 586 -34 624 0 q 549 -121 549 -68 q 576 -192 549 -165 q 647 -219 603 -219 q 733 -190 683 -219 l 757 -240 m 386 47 q 565 127 501 47 q 629 351 629 207 q 565 576 629 497 q 385 654 501 654 q 203 574 268 654 q 138 349 138 493 q 203 126 138 206 q 386 47 269 47 z "},"å":{"ha":810,"x_min":75,"x_max":688,"o":"m 688 694 l 688 0 l 629 0 l 629 139 q 535 28 599 67 q 385 -10 472 -10 q 222 34 292 -10 q 113 159 151 78 q 75 349 75 240 q 114 539 75 457 q 223 666 153 621 q 385 711 293 711 q 535 674 472 711 q 629 564 599 636 l 629 694 l 688 694 m 386 47 q 565 127 501 47 q 629 351 629 207 q 565 576 629 497 q 385 654 501 654 q 203 574 268 654 q 138 349 138 493 q 203 126 138 206 q 386 47 269 47 m 407 793 q 311 832 350 793 q 272 926 272 871 q 311 1020 272 982 q 407 1058 350 1058 q 501 1020 463 1058 q 540 926 540 982 q 501 832 540 871 q 407 793 463 793 m 407 851 q 458 873 438 851 q 478 926 478 894 q 458 979 478 958 q 407 1000 438 1000 q 356 979 376 1000 q 335 926 335 958 q 356 873 335 894 q 407 851 376 851 z "},"ǻ":{"ha":810,"x_min":75,"x_max":693,"o":"m 407 797 q 309 837 350 797 q 268 932 268 876 q 309 1029 268 989 q 407 1069 350 1069 q 486 1044 450 1069 l 606 1219 l 693 1217 l 519 1011 q 544 932 544 975 q 504 837 544 876 q 407 797 464 797 m 407 1008 q 354 986 375 1008 q 333 932 333 964 q 354 879 333 901 q 407 857 375 857 q 458 879 438 857 q 479 932 479 901 q 458 986 479 964 q 407 1008 438 1008 m 629 694 l 688 694 l 688 0 l 629 0 l 629 139 q 535 28 599 67 q 385 -10 472 -10 q 222 34 292 -10 q 113 159 151 78 q 75 349 75 240 q 114 539 75 457 q 223 666 153 621 q 385 711 293 711 q 535 674 472 711 q 629 564 599 636 l 629 694 m 386 47 q 565 127 501 47 q 629 351 629 207 q 565 576 629 497 q 385 654 501 654 q 203 574 268 654 q 138 349 138 493 q 203 126 138 206 q 386 47 269 47 z "},"ã":{"ha":810,"x_min":75,"x_max":688,"o":"m 688 694 l 688 0 l 629 0 l 629 139 q 535 28 599 67 q 385 -10 472 -10 q 222 34 292 -10 q 113 159 151 78 q 75 349 75 240 q 114 539 75 457 q 223 666 153 621 q 385 711 293 711 q 535 674 472 711 q 629 564 599 636 l 629 694 l 688 694 m 386 47 q 565 127 501 47 q 629 351 629 207 q 565 576 629 497 q 385 654 501 654 q 203 574 268 654 q 138 349 138 493 q 203 126 138 206 q 386 47 269 47 m 190 863 q 219 961 190 924 q 301 999 249 999 q 358 987 332 999 q 424 950 383 975 q 470 923 451 932 q 506 914 489 914 q 558 938 540 914 q 575 994 576 963 l 622 994 q 593 895 622 932 q 511 858 564 858 q 455 870 481 858 q 389 907 429 882 q 342 934 361 925 q 307 943 324 943 q 254 919 272 943 q 238 863 236 894 l 190 863 z "},"æ":{"ha":1236,"x_min":100,"x_max":1165,"o":"m 636 363 l 636 353 q 704 126 636 204 q 899 47 772 47 q 1126 138 1013 47 l 1153 88 q 1040 17 1110 44 q 901 -10 971 -10 q 716 44 792 -10 q 606 197 640 97 q 514 45 582 100 q 346 -10 446 -10 q 221 18 276 -10 q 133 94 165 46 q 100 206 100 143 q 140 330 100 283 q 271 398 181 376 q 515 419 361 419 l 575 419 l 575 450 q 534 606 575 558 q 400 654 493 654 q 279 635 338 654 q 157 578 221 617 l 129 626 q 250 689 179 667 q 393 711 321 711 q 625 557 585 711 q 731 670 664 629 q 883 711 799 711 q 1091 623 1017 711 q 1165 376 1165 535 l 1165 363 l 636 363 m 885 658 q 720 594 785 658 q 640 419 656 531 l 1107 419 q 1041 597 1099 535 q 885 658 983 658 m 347 49 q 464 81 413 49 q 545 169 515 113 q 575 300 575 226 l 575 363 l 518 363 q 306 347 382 363 q 199 299 231 332 q 167 208 167 265 q 217 92 167 136 q 347 49 267 49 z "},"ǽ":{"ha":1236,"x_min":100,"x_max":1165,"o":"m 636 363 l 636 353 q 704 126 636 204 q 899 47 772 47 q 1126 138 1013 47 l 1153 88 q 1040 17 1110 44 q 901 -10 971 -10 q 716 44 792 -10 q 606 197 640 97 q 514 45 582 100 q 346 -10 446 -10 q 221 18 276 -10 q 133 94 165 46 q 100 206 100 143 q 140 330 100 283 q 271 398 181 376 q 515 419 361 419 l 575 419 l 575 450 q 534 606 575 558 q 400 654 493 654 q 279 635 338 654 q 157 578 221 617 l 129 626 q 250 689 179 667 q 393 711 321 711 q 625 557 585 711 q 731 670 664 629 q 883 711 799 711 q 1091 623 1017 711 q 1165 376 1165 535 l 1165 363 l 636 363 m 885 658 q 720 594 785 658 q 640 419 656 531 l 1107 419 q 1041 597 1099 535 q 885 658 983 658 m 347 49 q 464 81 413 49 q 545 169 515 113 q 575 300 575 226 l 575 363 l 518 363 q 306 347 382 363 q 199 299 231 332 q 167 208 167 265 q 217 92 167 136 q 347 49 267 49 m 581 786 l 721 1067 l 808 1067 l 632 786 l 581 786 z "},"b":{"ha":810,"x_min":122,"x_max":735,"o":"m 425 711 q 588 667 517 711 q 697 542 658 624 q 735 354 735 461 q 696 163 735 246 q 587 35 657 81 q 425 -10 517 -10 q 274 29 336 -10 q 181 142 213 68 l 181 0 l 122 0 l 122 1022 l 179 1022 l 179 557 q 273 672 210 632 q 425 711 336 711 m 426 47 q 606 128 542 47 q 671 354 671 210 q 606 576 671 497 q 425 654 542 654 q 244 576 307 654 q 181 351 181 497 q 244 126 181 206 q 426 47 307 47 z "},"c":{"ha":676,"x_min":75,"x_max":631,"o":"m 393 -10 q 226 35 297 -10 q 115 160 154 79 q 75 349 75 242 q 115 538 75 456 q 226 666 154 621 q 394 711 299 711 q 526 686 464 711 q 631 618 589 661 l 603 568 q 497 635 546 614 q 394 656 449 656 q 206 573 275 656 q 138 347 138 490 q 206 126 138 206 q 393 47 274 47 q 497 67 447 47 q 603 133 546 88 l 631 85 q 523 15 586 40 q 393 -10 460 -10 z "},"ć":{"ha":676,"x_min":75,"x_max":631,"o":"m 393 -10 q 226 35 297 -10 q 115 160 154 79 q 75 349 75 242 q 115 538 75 456 q 226 666 154 621 q 394 711 299 711 q 526 686 464 711 q 631 618 589 661 l 603 568 q 497 635 546 614 q 394 656 449 656 q 206 573 275 656 q 138 347 138 490 q 206 126 138 206 q 393 47 274 47 q 497 67 447 47 q 603 133 546 88 l 631 85 q 523 15 586 40 q 393 -10 460 -10 m 365 786 l 506 1067 l 593 1067 l 417 786 l 365 786 z "},"č":{"ha":676,"x_min":75,"x_max":631,"o":"m 393 -10 q 226 35 297 -10 q 115 160 154 79 q 75 349 75 242 q 115 538 75 456 q 226 666 154 621 q 394 711 299 711 q 526 686 464 711 q 631 618 589 661 l 603 568 q 497 635 546 614 q 394 656 449 656 q 206 573 275 656 q 138 347 138 490 q 206 126 138 206 q 393 47 274 47 q 497 67 447 47 q 603 133 546 88 l 631 85 q 523 15 586 40 q 393 -10 460 -10 m 574 1067 l 418 786 l 364 786 l 208 1067 l 281 1067 l 392 844 l 501 1067 l 574 1067 z "},"ç":{"ha":676,"x_min":75,"x_max":631,"o":"m 631 85 q 529 18 589 43 q 406 -10 469 -7 l 401 -62 q 443 -57 419 -57 q 513 -81 482 -57 q 544 -154 544 -106 q 505 -235 544 -204 q 397 -267 465 -267 q 334 -260 367 -267 q 278 -240 301 -254 l 297 -192 q 400 -211 342 -211 q 463 -196 442 -211 q 485 -154 485 -181 q 472 -122 485 -133 q 435 -111 460 -111 q 363 -126 401 -111 l 336 -107 l 346 -7 q 149 105 222 8 q 75 349 75 201 q 115 538 75 456 q 226 666 154 621 q 394 711 299 711 q 526 686 464 711 q 631 618 589 661 l 603 568 q 497 635 546 614 q 394 656 449 656 q 206 573 275 656 q 138 347 138 490 q 206 126 138 206 q 393 47 274 47 q 497 67 447 47 q 603 133 546 88 l 631 85 z "},"ḉ":{"ha":676,"x_min":75,"x_max":631,"o":"m 417 786 l 365 786 l 506 1067 l 593 1067 l 417 786 m 631 85 q 529 18 589 43 q 406 -10 469 -7 l 401 -62 q 443 -57 419 -57 q 513 -81 482 -57 q 544 -154 544 -106 q 505 -235 544 -204 q 397 -267 465 -267 q 334 -260 367 -267 q 278 -240 301 -254 l 297 -192 q 400 -211 342 -211 q 463 -196 442 -211 q 485 -154 485 -181 q 472 -122 485 -133 q 435 -111 460 -111 q 363 -126 401 -111 l 336 -107 l 346 -7 q 149 105 222 8 q 75 349 75 201 q 115 538 75 456 q 226 666 154 621 q 394 711 299 711 q 526 686 464 711 q 631 618 589 661 l 603 568 q 497 635 546 614 q 394 656 449 656 q 206 573 275 656 q 138 347 138 490 q 206 126 138 206 q 393 47 274 47 q 497 67 447 47 q 603 133 546 88 l 631 85 z "},"ĉ":{"ha":676,"x_min":75,"x_max":631,"o":"m 393 -10 q 226 35 297 -10 q 115 160 154 79 q 75 349 75 242 q 115 538 75 456 q 226 666 154 621 q 394 711 299 711 q 526 686 464 711 q 631 618 589 661 l 603 568 q 497 635 546 614 q 394 656 449 656 q 206 573 275 656 q 138 347 138 490 q 206 126 138 206 q 393 47 274 47 q 497 67 447 47 q 603 133 546 88 l 631 85 q 523 15 586 40 q 393 -10 460 -10 m 208 786 l 364 1067 l 418 1067 l 574 786 l 501 786 l 392 1007 l 281 786 l 208 786 z "},"ċ":{"ha":676,"x_min":75,"x_max":631,"o":"m 393 -10 q 226 35 297 -10 q 115 160 154 79 q 75 349 75 242 q 115 538 75 456 q 226 666 154 621 q 394 711 299 711 q 526 686 464 711 q 631 618 589 661 l 603 568 q 497 635 546 614 q 394 656 449 656 q 206 573 275 656 q 138 347 138 490 q 206 126 138 206 q 393 47 274 47 q 497 67 447 47 q 603 133 546 88 l 631 85 q 523 15 586 40 q 393 -10 460 -10 m 436 972 l 436 883 l 346 883 l 346 972 l 436 972 z "},"d":{"ha":810,"x_min":75,"x_max":688,"o":"m 688 1022 l 688 0 l 629 0 l 629 139 q 535 28 599 67 q 385 -10 472 -10 q 223 35 293 -10 q 114 163 153 81 q 75 354 75 246 q 113 542 75 461 q 222 667 151 624 q 385 711 292 711 q 535 674 472 711 q 629 564 599 636 l 629 1022 l 688 1022 m 385 47 q 565 127 501 47 q 629 351 629 207 q 565 575 629 496 q 386 654 501 654 q 203 576 269 654 q 138 354 138 497 q 203 128 138 210 q 385 47 269 47 z "},"ð":{"ha":772,"x_min":75,"x_max":697,"o":"m 536 861 q 697 404 697 696 q 619 94 697 199 q 385 -10 540 -10 q 222 31 292 -10 q 113 147 151 72 q 75 321 75 222 q 114 496 75 421 q 224 612 153 571 q 389 653 296 653 q 535 619 474 653 q 633 521 597 586 q 482 839 608 714 l 264 747 l 243 797 l 436 878 q 232 981 349 943 l 250 1029 q 492 901 393 983 l 675 979 l 694 928 l 536 861 m 383 47 q 565 120 499 47 q 631 321 631 193 q 565 522 631 450 q 385 594 500 594 q 203 522 268 594 q 138 321 138 450 q 201 119 138 190 q 383 47 265 47 z "},"ď":{"ha":810,"x_min":75,"x_max":821,"o":"m 629 1022 l 688 1022 l 688 0 l 629 0 l 629 139 q 535 28 599 67 q 385 -10 472 -10 q 223 35 293 -10 q 114 163 153 81 q 75 354 75 246 q 113 542 75 461 q 222 667 151 624 q 385 711 292 711 q 535 674 472 711 q 629 564 599 636 l 629 1022 m 821 1022 l 783 753 l 740 753 l 740 1022 l 821 1022 m 385 47 q 565 127 501 47 q 629 351 629 207 q 565 575 629 496 q 386 654 501 654 q 203 576 269 654 q 138 354 138 497 q 203 128 138 210 q 385 47 269 47 z "},"đ":{"ha":810,"x_min":75,"x_max":825,"o":"m 825 826 l 688 826 l 688 0 l 629 0 l 629 139 q 535 28 599 67 q 385 -10 472 -10 q 223 35 293 -10 q 114 163 153 81 q 75 354 75 246 q 113 542 75 461 q 222 667 151 624 q 385 711 292 711 q 535 674 472 711 q 629 564 599 636 l 629 826 l 347 826 l 347 876 l 629 876 l 629 1022 l 688 1022 l 688 876 l 825 876 l 825 826 m 385 47 q 565 127 501 47 q 629 351 629 207 q 565 575 629 496 q 386 654 501 654 q 203 576 269 654 q 138 354 138 497 q 203 128 138 210 q 385 47 269 47 z "},"ḍ":{"ha":810,"x_min":75,"x_max":688,"o":"m 688 1022 l 688 0 l 629 0 l 629 139 q 535 28 599 67 q 385 -10 472 -10 q 223 35 293 -10 q 114 163 153 81 q 75 354 75 246 q 113 542 75 461 q 222 667 151 624 q 385 711 292 711 q 535 674 472 711 q 629 564 599 636 l 629 1022 l 688 1022 m 385 47 q 565 127 501 47 q 629 351 629 207 q 565 575 629 496 q 386 654 501 654 q 203 576 269 654 q 138 354 138 497 q 203 128 138 210 q 385 47 269 47 m 454 -153 l 454 -243 l 361 -243 l 361 -153 l 454 -153 z "},"ḏ":{"ha":810,"x_min":75,"x_max":688,"o":"m 688 1022 l 688 0 l 629 0 l 629 139 q 535 28 599 67 q 385 -10 472 -10 q 223 35 293 -10 q 114 163 153 81 q 75 354 75 246 q 113 542 75 461 q 222 667 151 624 q 385 711 292 711 q 535 674 472 711 q 629 564 599 636 l 629 1022 l 688 1022 m 385 47 q 565 127 501 47 q 629 351 629 207 q 565 575 629 496 q 386 654 501 654 q 203 576 269 654 q 138 354 138 497 q 203 128 138 210 q 385 47 269 47 m 203 -167 l 613 -167 l 613 -228 l 203 -228 l 203 -167 z "},"ǆ":{"ha":1521,"x_min":75,"x_max":1454,"o":"m 688 1022 l 688 0 l 629 0 l 629 139 q 535 28 599 67 q 385 -10 472 -10 q 223 35 293 -10 q 114 163 153 81 q 75 354 75 246 q 113 542 75 461 q 222 667 151 624 q 385 711 292 711 q 535 674 472 711 q 629 564 599 636 l 629 1022 l 688 1022 m 385 47 q 565 127 501 47 q 629 351 629 207 q 565 575 629 496 q 386 654 501 654 q 203 576 269 654 q 138 354 138 497 q 203 128 138 210 q 385 47 269 47 m 1454 51 l 1454 0 l 881 0 l 881 39 l 1365 644 l 901 644 l 901 694 l 1438 694 l 1438 647 l 961 51 l 1454 51 m 1350 1067 l 1194 786 l 1140 786 l 985 1067 l 1057 1067 l 1168 844 l 1278 1067 l 1350 1067 z "},"e":{"ha":751,"x_min":75,"x_max":681,"o":"m 140 363 l 140 350 q 209 126 140 204 q 406 47 278 47 q 528 69 471 47 q 640 138 585 90 l 668 88 q 553 17 624 43 q 408 -10 483 -10 q 165 86 254 -10 q 75 350 75 182 q 115 539 75 457 q 228 666 156 621 q 396 711 301 711 q 605 624 529 711 q 681 379 681 536 l 681 363 l 140 363 m 396 658 q 227 595 293 658 q 144 419 161 532 l 622 419 q 556 597 614 535 q 396 658 497 658 z "},"é":{"ha":751,"x_min":75,"x_max":681,"o":"m 140 363 l 140 350 q 209 126 140 204 q 406 47 278 47 q 528 69 471 47 q 640 138 585 90 l 668 88 q 553 17 624 43 q 408 -10 483 -10 q 165 86 254 -10 q 75 350 75 182 q 115 539 75 457 q 228 666 156 621 q 396 711 301 711 q 605 624 529 711 q 681 379 681 536 l 681 363 l 140 363 m 396 658 q 227 595 293 658 q 144 419 161 532 l 622 419 q 556 597 614 535 q 396 658 497 658 m 369 786 l 510 1067 l 597 1067 l 421 786 l 369 786 z "},"ĕ":{"ha":751,"x_min":75,"x_max":681,"o":"m 140 363 l 140 350 q 209 126 140 204 q 406 47 278 47 q 528 69 471 47 q 640 138 585 90 l 668 88 q 553 17 624 43 q 408 -10 483 -10 q 165 86 254 -10 q 75 350 75 182 q 115 539 75 457 q 228 666 156 621 q 396 711 301 711 q 605 624 529 711 q 681 379 681 536 l 681 363 l 140 363 m 396 658 q 227 595 293 658 q 144 419 161 532 l 622 419 q 556 597 614 535 q 396 658 497 658 m 396 835 q 268 873 325 835 q 179 997 211 911 l 236 1021 q 306 921 267 951 q 396 890 346 890 q 485 921 446 890 q 554 1021 524 951 l 611 999 q 524 874 581 913 q 396 835 467 835 z "},"ě":{"ha":751,"x_min":75,"x_max":681,"o":"m 140 363 l 140 350 q 209 126 140 204 q 406 47 278 47 q 528 69 471 47 q 640 138 585 90 l 668 88 q 553 17 624 43 q 408 -10 483 -10 q 165 86 254 -10 q 75 350 75 182 q 115 539 75 457 q 228 666 156 621 q 396 711 301 711 q 605 624 529 711 q 681 379 681 536 l 681 363 l 140 363 m 396 658 q 227 595 293 658 q 144 419 161 532 l 622 419 q 556 597 614 535 q 396 658 497 658 m 578 1067 l 422 786 l 368 786 l 213 1067 l 285 1067 l 396 844 l 506 1067 l 578 1067 z "},"ḝ":{"ha":751,"x_min":75,"x_max":681,"o":"m 396 835 q 268 873 325 835 q 179 997 211 911 l 236 1021 q 306 921 267 951 q 396 890 346 890 q 485 921 446 890 q 554 1021 524 951 l 611 999 q 524 874 581 913 q 396 835 467 835 m 140 363 l 140 350 q 209 126 140 204 q 406 47 278 47 q 528 69 471 47 q 640 138 585 90 l 668 88 q 563 21 628 47 q 426 -10 497 -6 l 422 -62 q 464 -57 440 -57 q 534 -81 503 -57 q 565 -154 565 -106 q 526 -235 565 -204 q 418 -267 486 -267 q 355 -260 388 -267 q 299 -240 322 -254 l 318 -192 q 421 -211 363 -211 q 484 -196 463 -211 q 506 -154 506 -181 q 493 -122 506 -133 q 456 -111 481 -111 q 383 -126 422 -111 l 357 -107 l 367 -8 q 153 100 231 6 q 75 350 75 194 q 115 539 75 457 q 228 666 156 621 q 396 711 301 711 q 605 624 529 711 q 681 379 681 536 l 681 363 l 140 363 m 396 658 q 227 595 293 658 q 144 419 161 532 l 622 419 q 556 597 614 535 q 396 658 497 658 z "},"ê":{"ha":751,"x_min":75,"x_max":681,"o":"m 140 363 l 140 350 q 209 126 140 204 q 406 47 278 47 q 528 69 471 47 q 640 138 585 90 l 668 88 q 553 17 624 43 q 408 -10 483 -10 q 165 86 254 -10 q 75 350 75 182 q 115 539 75 457 q 228 666 156 621 q 396 711 301 711 q 605 624 529 711 q 681 379 681 536 l 681 363 l 140 363 m 396 658 q 227 595 293 658 q 144 419 161 532 l 622 419 q 556 597 614 535 q 396 658 497 658 m 213 786 l 368 1067 l 422 1067 l 578 786 l 506 786 l 396 1007 l 285 786 l 213 786 z "},"ế":{"ha":751,"x_min":75,"x_max":738,"o":"m 140 363 l 140 350 q 209 126 140 204 q 406 47 278 47 q 528 69 471 47 q 640 138 585 90 l 668 88 q 553 17 624 43 q 408 -10 483 -10 q 165 86 254 -10 q 75 350 75 182 q 115 539 75 457 q 228 666 156 621 q 396 711 301 711 q 605 624 529 711 q 681 379 681 536 l 681 363 l 140 363 m 396 658 q 227 595 293 658 q 144 419 161 532 l 622 419 q 556 597 614 535 q 396 658 497 658 m 506 928 l 650 1126 l 738 1126 l 557 928 l 506 928 m 213 786 l 369 999 l 421 999 l 578 786 l 506 786 l 396 947 l 285 786 l 213 786 z "},"ệ":{"ha":751,"x_min":75,"x_max":681,"o":"m 140 363 l 140 350 q 209 126 140 204 q 406 47 278 47 q 528 69 471 47 q 640 138 585 90 l 668 88 q 553 17 624 43 q 408 -10 483 -10 q 165 86 254 -10 q 75 350 75 182 q 115 539 75 457 q 228 666 156 621 q 396 711 301 711 q 605 624 529 711 q 681 379 681 536 l 681 363 l 140 363 m 396 658 q 227 595 293 658 q 144 419 161 532 l 622 419 q 556 597 614 535 q 396 658 497 658 m 456 -153 l 456 -243 l 363 -243 l 363 -153 l 456 -153 m 213 786 l 368 1067 l 422 1067 l 578 786 l 506 786 l 396 1007 l 285 786 l 213 786 z "},"ề":{"ha":751,"x_min":75,"x_max":681,"o":"m 140 363 l 140 350 q 209 126 140 204 q 406 47 278 47 q 528 69 471 47 q 640 138 585 90 l 668 88 q 553 17 624 43 q 408 -10 483 -10 q 165 86 254 -10 q 75 350 75 182 q 115 539 75 457 q 228 666 156 621 q 396 711 301 711 q 605 624 529 711 q 681 379 681 536 l 681 363 l 140 363 m 396 658 q 227 595 293 658 q 144 419 161 532 l 622 419 q 556 597 614 535 q 396 658 497 658 m 418 1126 l 504 1126 l 617 928 l 567 928 l 418 1126 m 213 786 l 369 999 l 421 999 l 578 786 l 506 786 l 396 947 l 285 786 l 213 786 z "},"ể":{"ha":751,"x_min":75,"x_max":681,"o":"m 140 363 l 140 350 q 209 126 140 204 q 406 47 278 47 q 528 69 471 47 q 640 138 585 90 l 668 88 q 553 17 624 43 q 408 -10 483 -10 q 165 86 254 -10 q 75 350 75 182 q 115 539 75 457 q 228 666 156 621 q 396 711 301 711 q 605 624 529 711 q 681 379 681 536 l 681 363 l 140 363 m 396 658 q 227 595 293 658 q 144 419 161 532 l 622 419 q 556 597 614 535 q 396 658 497 658 m 564 928 l 504 928 l 504 949 q 519 985 504 972 q 561 1010 535 999 q 592 1026 582 1019 q 601 1044 601 1033 q 584 1066 601 1058 q 538 1074 567 1074 q 450 1056 493 1074 l 433 1110 q 536 1133 488 1133 q 634 1108 599 1133 q 669 1042 669 1083 q 653 1005 669 1018 q 608 979 638 992 q 575 961 586 969 q 564 940 564 953 l 564 928 m 213 786 l 369 999 l 421 999 l 578 786 l 506 786 l 396 947 l 285 786 l 213 786 z "},"ễ":{"ha":751,"x_min":75,"x_max":681,"o":"m 140 363 l 140 350 q 209 126 140 204 q 406 47 278 47 q 528 69 471 47 q 640 138 585 90 l 668 88 q 553 17 624 43 q 408 -10 483 -10 q 165 86 254 -10 q 75 350 75 182 q 115 539 75 457 q 228 666 156 621 q 396 711 301 711 q 605 624 529 711 q 681 379 681 536 l 681 363 l 140 363 m 396 658 q 227 595 293 658 q 144 419 161 532 l 622 419 q 556 597 614 535 q 396 658 497 658 m 179 1017 q 208 1114 179 1078 q 290 1150 238 1150 q 347 1140 321 1150 q 413 1111 374 1131 q 457 1092 435 1100 q 494 1083 479 1083 q 547 1106 528 1083 q 564 1156 565 1129 l 611 1156 q 581 1059 611 1096 q 500 1022 551 1022 q 442 1033 469 1022 q 378 1063 414 1043 q 330 1085 349 1078 q 296 1092 311 1092 q 244 1067 263 1092 q 226 1017 225 1043 l 179 1017 m 213 786 l 369 999 l 421 999 l 578 786 l 506 786 l 396 947 l 285 786 l 213 786 z "},"ȅ":{"ha":751,"x_min":75,"x_max":681,"o":"m 140 363 l 140 350 q 209 126 140 204 q 406 47 278 47 q 528 69 471 47 q 640 138 585 90 l 668 88 q 553 17 624 43 q 408 -10 483 -10 q 165 86 254 -10 q 75 350 75 182 q 115 539 75 457 q 228 666 156 621 q 396 711 301 711 q 605 624 529 711 q 681 379 681 536 l 681 363 l 140 363 m 396 658 q 227 595 293 658 q 144 419 161 532 l 622 419 q 556 597 614 535 q 396 658 497 658 m 186 1067 l 265 1067 l 338 786 l 299 786 l 186 1067 m 342 1067 l 421 1067 l 492 786 l 453 786 l 342 1067 z "},"ë":{"ha":751,"x_min":75,"x_max":681,"o":"m 140 363 l 140 350 q 209 126 140 204 q 406 47 278 47 q 528 69 471 47 q 640 138 585 90 l 668 88 q 553 17 624 43 q 408 -10 483 -10 q 165 86 254 -10 q 75 350 75 182 q 115 539 75 457 q 228 666 156 621 q 396 711 301 711 q 605 624 529 711 q 681 379 681 536 l 681 363 l 140 363 m 396 658 q 227 595 293 658 q 144 419 161 532 l 622 419 q 556 597 614 535 q 396 658 497 658 m 325 969 l 325 885 l 239 885 l 239 969 l 325 969 m 551 969 l 551 885 l 465 885 l 465 969 l 551 969 z "},"ė":{"ha":751,"x_min":75,"x_max":681,"o":"m 140 363 l 140 350 q 209 126 140 204 q 406 47 278 47 q 528 69 471 47 q 640 138 585 90 l 668 88 q 553 17 624 43 q 408 -10 483 -10 q 165 86 254 -10 q 75 350 75 182 q 115 539 75 457 q 228 666 156 621 q 396 711 301 711 q 605 624 529 711 q 681 379 681 536 l 681 363 l 140 363 m 396 658 q 227 595 293 658 q 144 419 161 532 l 622 419 q 556 597 614 535 q 396 658 497 658 m 440 972 l 440 883 l 350 883 l 350 972 l 440 972 z "},"ẹ":{"ha":751,"x_min":75,"x_max":681,"o":"m 140 363 l 140 350 q 209 126 140 204 q 406 47 278 47 q 528 69 471 47 q 640 138 585 90 l 668 88 q 553 17 624 43 q 408 -10 483 -10 q 165 86 254 -10 q 75 350 75 182 q 115 539 75 457 q 228 666 156 621 q 396 711 301 711 q 605 624 529 711 q 681 379 681 536 l 681 363 l 140 363 m 396 658 q 227 595 293 658 q 144 419 161 532 l 622 419 q 556 597 614 535 q 396 658 497 658 m 456 -153 l 456 -243 l 363 -243 l 363 -153 l 456 -153 z "},"è":{"ha":751,"x_min":75,"x_max":681,"o":"m 140 363 l 140 350 q 209 126 140 204 q 406 47 278 47 q 528 69 471 47 q 640 138 585 90 l 668 88 q 553 17 624 43 q 408 -10 483 -10 q 165 86 254 -10 q 75 350 75 182 q 115 539 75 457 q 228 666 156 621 q 396 711 301 711 q 605 624 529 711 q 681 379 681 536 l 681 363 l 140 363 m 396 658 q 227 595 293 658 q 144 419 161 532 l 622 419 q 556 597 614 535 q 396 658 497 658 m 193 1067 l 281 1067 l 421 786 l 369 786 l 193 1067 z "},"ẻ":{"ha":751,"x_min":75,"x_max":681,"o":"m 140 363 l 140 350 q 209 126 140 204 q 406 47 278 47 q 528 69 471 47 q 640 138 585 90 l 668 88 q 553 17 624 43 q 408 -10 483 -10 q 165 86 254 -10 q 75 350 75 182 q 115 539 75 457 q 228 666 156 621 q 396 711 301 711 q 605 624 529 711 q 681 379 681 536 l 681 363 l 140 363 m 396 658 q 227 595 293 658 q 144 419 161 532 l 622 419 q 556 597 614 535 q 396 658 497 658 m 426 786 l 369 786 l 369 828 q 384 876 369 854 q 425 922 399 897 q 454 953 444 940 q 464 981 464 967 q 447 1006 464 997 q 401 1015 431 1015 q 311 999 357 1015 l 294 1049 q 403 1074 349 1074 q 495 1048 461 1074 q 529 982 529 1022 q 516 931 529 950 q 475 889 503 913 q 438 850 450 867 q 426 807 426 833 l 426 786 z "},"ȇ":{"ha":751,"x_min":75,"x_max":681,"o":"m 140 363 l 140 350 q 209 126 140 204 q 406 47 278 47 q 528 69 471 47 q 640 138 585 90 l 668 88 q 553 17 624 43 q 408 -10 483 -10 q 165 86 254 -10 q 75 350 75 182 q 115 539 75 457 q 228 666 156 621 q 396 711 301 711 q 605 624 529 711 q 681 379 681 536 l 681 363 l 140 363 m 396 658 q 227 595 293 658 q 144 419 161 532 l 622 419 q 556 597 614 535 q 396 658 497 658 m 396 1021 q 522 982 465 1021 q 611 858 579 943 l 554 833 q 485 935 524 906 q 396 965 446 965 q 306 935 344 965 q 236 833 267 906 l 179 857 q 267 981 210 942 q 396 1021 325 1021 z "},"ē":{"ha":751,"x_min":75,"x_max":681,"o":"m 140 363 l 140 350 q 209 126 140 204 q 406 47 278 47 q 528 69 471 47 q 640 138 585 90 l 668 88 q 553 17 624 43 q 408 -10 483 -10 q 165 86 254 -10 q 75 350 75 182 q 115 539 75 457 q 228 666 156 621 q 396 711 301 711 q 605 624 529 711 q 681 379 681 536 l 681 363 l 140 363 m 396 658 q 227 595 293 658 q 144 419 161 532 l 622 419 q 556 597 614 535 q 396 658 497 658 m 190 958 l 600 958 l 600 897 l 190 897 l 190 958 z "},"ḗ":{"ha":751,"x_min":75,"x_max":681,"o":"m 140 363 l 140 350 q 209 126 140 204 q 406 47 278 47 q 528 69 471 47 q 640 138 585 90 l 668 88 q 553 17 624 43 q 408 -10 483 -10 q 165 86 254 -10 q 75 350 75 182 q 115 539 75 457 q 228 666 156 621 q 396 711 301 711 q 605 624 529 711 q 681 379 681 536 l 681 363 l 140 363 m 396 658 q 227 595 293 658 q 144 419 161 532 l 622 419 q 556 597 614 535 q 396 658 497 658 m 190 958 l 600 958 l 600 897 l 190 897 l 190 958 m 369 1060 l 510 1340 l 597 1340 l 421 1060 l 369 1060 z "},"ḕ":{"ha":751,"x_min":75,"x_max":681,"o":"m 140 363 l 140 350 q 209 126 140 204 q 406 47 278 47 q 528 69 471 47 q 640 138 585 90 l 668 88 q 553 17 624 43 q 408 -10 483 -10 q 165 86 254 -10 q 75 350 75 182 q 115 539 75 457 q 228 666 156 621 q 396 711 301 711 q 605 624 529 711 q 681 379 681 536 l 681 363 l 140 363 m 396 658 q 227 595 293 658 q 144 419 161 532 l 622 419 q 556 597 614 535 q 396 658 497 658 m 190 958 l 600 958 l 600 897 l 190 897 l 190 958 m 193 1340 l 281 1340 l 421 1060 l 369 1060 l 193 1340 z "},"ę":{"ha":751,"x_min":75,"x_max":681,"o":"m 140 363 l 140 350 q 209 126 140 204 q 406 47 278 47 q 528 69 471 47 q 640 138 585 90 l 668 89 q 644 67 657 76 q 600 40 632 57 q 492 -40 524 -3 q 461 -121 461 -76 q 488 -192 461 -165 q 560 -219 514 -219 q 646 -190 596 -219 l 668 -240 q 558 -272 625 -272 q 443 -232 488 -272 q 399 -126 399 -192 q 454 -6 399 -54 q 408 -10 433 -10 q 165 86 254 -10 q 75 350 75 182 q 115 539 75 457 q 228 666 156 621 q 396 711 301 711 q 605 624 529 711 q 681 379 681 536 l 681 363 l 140 363 m 396 658 q 227 595 293 658 q 144 419 161 532 l 622 419 q 556 597 614 535 q 396 658 497 658 z "},"ẽ":{"ha":751,"x_min":75,"x_max":681,"o":"m 140 363 l 140 350 q 209 126 140 204 q 406 47 278 47 q 528 69 471 47 q 640 138 585 90 l 668 88 q 553 17 624 43 q 408 -10 483 -10 q 165 86 254 -10 q 75 350 75 182 q 115 539 75 457 q 228 666 156 621 q 396 711 301 711 q 605 624 529 711 q 681 379 681 536 l 681 363 l 140 363 m 396 658 q 227 595 293 658 q 144 419 161 532 l 622 419 q 556 597 614 535 q 396 658 497 658 m 179 863 q 208 961 179 924 q 290 999 238 999 q 347 987 321 999 q 413 950 372 975 q 459 923 440 932 q 494 914 478 914 q 547 938 529 914 q 564 994 565 963 l 611 994 q 582 895 611 932 q 500 858 553 858 q 444 870 469 858 q 378 907 418 882 q 331 934 350 925 q 296 943 313 943 q 243 919 261 943 q 226 863 225 894 l 179 863 z "},"ə":{"ha":750,"x_min":71,"x_max":675,"o":"m 346 711 q 587 616 499 711 q 675 353 675 521 q 637 161 675 243 q 528 35 599 79 q 363 -10 457 -10 q 147 79 224 -10 q 71 328 71 168 l 71 339 l 613 339 l 613 350 q 544 575 613 496 q 349 654 475 654 q 229 633 288 654 q 111 565 171 611 l 82 614 q 203 685 131 658 q 346 711 275 711 m 363 44 q 530 106 467 44 q 608 282 593 168 l 132 282 q 200 106 140 168 q 363 44 260 44 z "},"f":{"ha":432,"x_min":11,"x_max":407,"o":"m 333 971 q 240 938 272 971 q 208 818 208 906 l 208 694 l 393 694 l 393 644 l 208 644 l 208 0 l 150 0 l 150 644 l 11 644 l 11 694 l 150 694 l 150 836 q 197 981 150 933 q 326 1028 244 1028 q 407 1017 365 1028 l 407 960 q 333 971 369 971 z "},"g":{"ha":815,"x_min":75,"x_max":693,"o":"m 693 694 l 693 -10 q 623 -234 693 -158 q 415 -310 553 -310 q 149 -232 260 -310 l 161 -176 q 286 -235 231 -218 q 418 -253 342 -253 q 581 -192 525 -253 q 636 -17 636 -132 l 636 174 q 542 60 606 99 q 388 21 478 21 q 225 65 296 21 q 115 187 154 108 q 75 367 75 265 q 115 547 75 468 q 225 668 154 625 q 388 711 296 711 q 540 674 476 711 q 635 564 603 636 l 635 694 l 693 694 m 388 79 q 569 156 503 79 q 635 367 635 233 q 569 578 635 501 q 388 654 503 654 q 204 578 271 654 q 138 367 138 501 q 204 156 138 232 q 388 79 271 79 z "},"ğ":{"ha":815,"x_min":75,"x_max":693,"o":"m 693 694 l 693 -10 q 623 -234 693 -158 q 415 -310 553 -310 q 149 -232 260 -310 l 161 -176 q 286 -235 231 -218 q 418 -253 342 -253 q 581 -192 525 -253 q 636 -17 636 -132 l 636 174 q 542 60 606 99 q 388 21 478 21 q 225 65 296 21 q 115 187 154 108 q 75 367 75 265 q 115 547 75 468 q 225 668 154 625 q 388 711 296 711 q 540 674 476 711 q 635 564 603 636 l 635 694 l 693 694 m 388 79 q 569 156 503 79 q 635 367 635 233 q 569 578 635 501 q 388 654 503 654 q 204 578 271 654 q 138 367 138 501 q 204 156 138 232 q 388 79 271 79 m 413 835 q 285 873 342 835 q 196 997 228 911 l 253 1021 q 323 921 283 951 q 413 890 363 890 q 501 921 463 890 q 571 1021 540 951 l 628 999 q 540 874 597 913 q 413 835 483 835 z "},"ǧ":{"ha":815,"x_min":75,"x_max":693,"o":"m 693 694 l 693 -10 q 623 -234 693 -158 q 415 -310 553 -310 q 149 -232 260 -310 l 161 -176 q 286 -235 231 -218 q 418 -253 342 -253 q 581 -192 525 -253 q 636 -17 636 -132 l 636 174 q 542 60 606 99 q 388 21 478 21 q 225 65 296 21 q 115 187 154 108 q 75 367 75 265 q 115 547 75 468 q 225 668 154 625 q 388 711 296 711 q 540 674 476 711 q 635 564 603 636 l 635 694 l 693 694 m 388 79 q 569 156 503 79 q 635 367 635 233 q 569 578 635 501 q 388 654 503 654 q 204 578 271 654 q 138 367 138 501 q 204 156 138 232 q 388 79 271 79 m 594 1067 l 439 786 l 385 786 l 229 1067 l 301 1067 l 413 844 l 522 1067 l 594 1067 z "},"ĝ":{"ha":815,"x_min":75,"x_max":693,"o":"m 693 694 l 693 -10 q 623 -234 693 -158 q 415 -310 553 -310 q 149 -232 260 -310 l 161 -176 q 286 -235 231 -218 q 418 -253 342 -253 q 581 -192 525 -253 q 636 -17 636 -132 l 636 174 q 542 60 606 99 q 388 21 478 21 q 225 65 296 21 q 115 187 154 108 q 75 367 75 265 q 115 547 75 468 q 225 668 154 625 q 388 711 296 711 q 540 674 476 711 q 635 564 603 636 l 635 694 l 693 694 m 388 79 q 569 156 503 79 q 635 367 635 233 q 569 578 635 501 q 388 654 503 654 q 204 578 271 654 q 138 367 138 501 q 204 156 138 232 q 388 79 271 79 m 229 786 l 385 1067 l 439 1067 l 594 786 l 522 786 l 413 1007 l 301 786 l 229 786 z "},"ģ":{"ha":815,"x_min":75,"x_max":693,"o":"m 693 694 l 693 -10 q 623 -234 693 -158 q 415 -310 553 -310 q 149 -232 260 -310 l 161 -176 q 286 -235 231 -218 q 418 -253 342 -253 q 581 -192 525 -253 q 636 -17 636 -132 l 636 174 q 542 60 606 99 q 388 21 478 21 q 225 65 296 21 q 115 187 154 108 q 75 367 75 265 q 115 547 75 468 q 225 668 154 625 q 388 711 296 711 q 540 674 476 711 q 635 564 603 636 l 635 694 l 693 694 m 388 79 q 569 156 503 79 q 635 367 635 233 q 569 578 635 501 q 388 654 503 654 q 204 578 271 654 q 138 367 138 501 q 204 156 138 232 q 388 79 271 79 m 465 1040 q 427 981 438 1008 q 415 917 417 953 l 461 917 l 461 826 l 363 826 l 363 901 q 377 994 363 953 q 428 1072 392 1035 l 465 1040 z "},"ġ":{"ha":815,"x_min":75,"x_max":693,"o":"m 693 694 l 693 -10 q 623 -234 693 -158 q 415 -310 553 -310 q 149 -232 260 -310 l 161 -176 q 286 -235 231 -218 q 418 -253 342 -253 q 581 -192 525 -253 q 636 -17 636 -132 l 636 174 q 542 60 606 99 q 388 21 478 21 q 225 65 296 21 q 115 187 154 108 q 75 367 75 265 q 115 547 75 468 q 225 668 154 625 q 388 711 296 711 q 540 674 476 711 q 635 564 603 636 l 635 694 l 693 694 m 388 79 q 569 156 503 79 q 635 367 635 233 q 569 578 635 501 q 388 654 503 654 q 204 578 271 654 q 138 367 138 501 q 204 156 138 232 q 388 79 271 79 m 457 972 l 457 883 l 367 883 l 367 972 l 457 972 z "},"ḡ":{"ha":815,"x_min":75,"x_max":693,"o":"m 693 694 l 693 -10 q 623 -234 693 -158 q 415 -310 553 -310 q 149 -232 260 -310 l 161 -176 q 286 -235 231 -218 q 418 -253 342 -253 q 581 -192 525 -253 q 636 -17 636 -132 l 636 174 q 542 60 606 99 q 388 21 478 21 q 225 65 296 21 q 115 187 154 108 q 75 367 75 265 q 115 547 75 468 q 225 668 154 625 q 388 711 296 711 q 540 674 476 711 q 635 564 603 636 l 635 694 l 693 694 m 388 79 q 569 156 503 79 q 635 367 635 233 q 569 578 635 501 q 388 654 503 654 q 204 578 271 654 q 138 367 138 501 q 204 156 138 232 q 388 79 271 79 m 207 958 l 617 958 l 617 897 l 207 897 l 207 958 z "},"h":{"ha":792,"x_min":122,"x_max":674,"o":"m 421 711 q 674 447 674 711 l 674 0 l 615 0 l 615 442 q 570 604 615 553 q 426 656 525 656 q 247 588 314 656 q 179 404 179 519 l 179 0 l 122 0 l 122 1022 l 179 1022 l 179 569 q 274 675 210 639 q 421 711 338 711 z "},"ħ":{"ha":792,"x_min":-15,"x_max":674,"o":"m 421 711 q 674 447 674 711 l 674 0 l 615 0 l 615 442 q 570 604 615 553 q 426 656 525 656 q 247 588 314 656 q 179 404 179 519 l 179 0 l 122 0 l 122 826 l -15 826 l -15 876 l 122 876 l 122 1022 l 179 1022 l 179 876 l 463 876 l 463 826 l 179 826 l 179 569 q 274 675 210 639 q 421 711 338 711 z "},"ḫ":{"ha":792,"x_min":122,"x_max":674,"o":"m 421 711 q 674 447 674 711 l 674 0 l 615 0 l 615 442 q 570 604 615 553 q 426 656 525 656 q 247 588 314 656 q 179 404 179 519 l 179 0 l 122 0 l 122 1022 l 179 1022 l 179 569 q 274 675 210 639 q 421 711 338 711 m 397 -283 q 269 -245 326 -283 q 181 -121 213 -207 l 238 -97 q 308 -197 268 -167 q 397 -228 347 -228 q 486 -197 447 -228 q 556 -97 525 -167 l 613 -119 q 525 -244 582 -206 q 397 -283 468 -283 z "},"ĥ":{"ha":792,"x_min":-32,"x_max":674,"o":"m 421 711 q 674 447 674 711 l 674 0 l 615 0 l 615 442 q 570 604 615 553 q 426 656 525 656 q 247 588 314 656 q 179 404 179 519 l 179 0 l 122 0 l 122 1022 l 179 1022 l 179 569 q 274 675 210 639 q 421 711 338 711 m -32 1107 l 125 1315 l 176 1315 l 333 1107 l 261 1107 l 151 1265 l 40 1107 l -32 1107 z "},"ḥ":{"ha":792,"x_min":122,"x_max":674,"o":"m 421 711 q 674 447 674 711 l 674 0 l 615 0 l 615 442 q 570 604 615 553 q 426 656 525 656 q 247 588 314 656 q 179 404 179 519 l 179 0 l 122 0 l 122 1022 l 179 1022 l 179 569 q 274 675 210 639 q 421 711 338 711 m 443 -153 l 443 -243 l 350 -243 l 350 -153 l 443 -153 z "},"i":{"ha":303,"x_min":107,"x_max":197,"o":"m 122 694 l 179 694 l 179 0 l 122 0 l 122 694 m 197 972 l 197 883 l 107 883 l 107 972 l 197 972 z "},"ı":{"ha":303,"x_min":122,"x_max":179,"o":"m 122 694 l 179 694 l 179 0 l 122 0 l 122 694 z "},"í":{"ha":303,"x_min":122,"x_max":354,"o":"m 122 694 l 179 694 l 179 0 l 122 0 l 122 694 m 126 786 l 267 1067 l 354 1067 l 178 786 l 126 786 z "},"ĭ":{"ha":303,"x_min":-64,"x_max":368,"o":"m 122 694 l 179 694 l 179 0 l 122 0 l 122 694 m 153 835 q 25 873 82 835 q -64 997 -32 911 l -7 1021 q 63 921 24 951 q 153 890 103 890 q 242 921 203 890 q 311 1021 281 951 l 368 999 q 281 874 338 913 q 153 835 224 835 z "},"î":{"ha":303,"x_min":-31,"x_max":335,"o":"m 122 694 l 179 694 l 179 0 l 122 0 l 122 694 m -31 786 l 125 1067 l 179 1067 l 335 786 l 263 786 l 153 1007 l 42 786 l -31 786 z "},"ȉ":{"ha":303,"x_min":-57,"x_max":249,"o":"m 122 694 l 179 694 l 179 0 l 122 0 l 122 694 m -57 1067 l 22 1067 l 94 786 l 56 786 l -57 1067 m 99 1067 l 178 1067 l 249 786 l 210 786 l 99 1067 z "},"ï":{"ha":303,"x_min":-4,"x_max":308,"o":"m 122 694 l 179 694 l 179 0 l 122 0 l 122 694 m 82 969 l 82 885 l -4 885 l -4 969 l 82 969 m 308 969 l 308 885 l 222 885 l 222 969 l 308 969 z "},"ḯ":{"ha":303,"x_min":-4,"x_max":354,"o":"m 122 694 l 179 694 l 179 0 l 122 0 l 122 694 m 82 969 l 82 885 l -4 885 l -4 969 l 82 969 m 308 969 l 308 885 l 222 885 l 222 969 l 308 969 m 126 1060 l 267 1340 l 354 1340 l 178 1060 l 126 1060 z "},"ị":{"ha":303,"x_min":103,"x_max":197,"o":"m 122 694 l 179 694 l 179 0 l 122 0 l 122 694 m 197 972 l 197 883 l 107 883 l 107 972 l 197 972 m 196 -153 l 196 -243 l 103 -243 l 103 -153 l 196 -153 z "},"ì":{"ha":303,"x_min":-50,"x_max":179,"o":"m 122 694 l 179 694 l 179 0 l 122 0 l 122 694 m -50 1067 l 38 1067 l 178 786 l 126 786 l -50 1067 z "},"ỉ":{"ha":303,"x_min":51,"x_max":286,"o":"m 122 694 l 179 694 l 179 0 l 122 0 l 122 694 m 183 786 l 126 786 l 126 828 q 141 876 126 854 q 182 922 156 897 q 211 953 201 940 q 221 981 221 967 q 204 1006 221 997 q 158 1015 188 1015 q 68 999 114 1015 l 51 1049 q 160 1074 106 1074 q 252 1048 218 1074 q 286 982 286 1022 q 273 931 286 950 q 232 889 260 913 q 195 850 207 867 q 183 807 183 833 l 183 786 z "},"ȋ":{"ha":303,"x_min":-64,"x_max":368,"o":"m 122 694 l 179 694 l 179 0 l 122 0 l 122 694 m 153 1021 q 279 982 222 1021 q 368 858 336 943 l 311 833 q 242 935 281 906 q 153 965 203 965 q 63 935 101 965 q -7 833 24 906 l -64 857 q 24 981 -33 942 q 153 1021 82 1021 z "},"ī":{"ha":303,"x_min":-53,"x_max":357,"o":"m 122 694 l 179 694 l 179 0 l 122 0 l 122 694 m -53 958 l 357 958 l 357 897 l -53 897 l -53 958 z "},"į":{"ha":303,"x_min":-21,"x_max":250,"o":"m 197 889 l 106 889 l 106 978 l 197 978 l 197 889 m 250 -240 q 139 -272 203 -272 q 23 -231 67 -272 q -21 -126 -21 -190 q 17 -22 -21 -68 q 122 44 54 24 l 122 694 l 179 694 l 179 0 l 176 0 q 76 -35 113 0 q 40 -121 40 -69 q 69 -194 40 -168 q 143 -219 97 -219 q 228 -190 182 -219 l 250 -240 z "},"ĩ":{"ha":303,"x_min":-64,"x_max":368,"o":"m 122 694 l 179 694 l 179 0 l 122 0 l 122 694 m -64 863 q -35 961 -64 924 q 47 999 -6 999 q 103 987 78 999 q 169 950 129 975 q 216 923 197 932 q 251 914 235 914 q 304 938 286 914 q 321 994 322 963 l 368 994 q 339 895 368 932 q 257 858 310 858 q 201 870 226 858 q 135 907 175 882 q 88 934 107 925 q 53 943 69 943 q 0 919 18 943 q -17 863 -18 894 l -64 863 z "},"j":{"ha":303,"x_min":-68,"x_max":197,"o":"m -68 -235 q 0 -247 -32 -247 q 90 -214 57 -247 q 122 -93 122 -181 l 122 694 l 179 694 l 179 -111 q 133 -256 179 -208 q 7 -303 86 -303 q -68 -293 -22 -303 l -68 -235 m 197 972 l 197 883 l 107 883 l 107 972 l 197 972 z "},"ȷ":{"ha":303,"x_min":-68,"x_max":179,"o":"m -68 -235 q 0 -247 -32 -247 q 90 -214 57 -247 q 122 -93 122 -181 l 122 694 l 179 694 l 179 -111 q 133 -256 179 -208 q 7 -303 86 -303 q -68 -293 -22 -303 l -68 -235 z "},"ĵ":{"ha":303,"x_min":-68,"x_max":335,"o":"m -68 -235 q 0 -247 -32 -247 q 90 -214 57 -247 q 122 -93 122 -181 l 122 694 l 179 694 l 179 -111 q 133 -256 179 -208 q 7 -303 86 -303 q -68 -293 -22 -303 l -68 -235 m -31 786 l 125 1067 l 179 1067 l 335 786 l 263 786 l 153 1007 l 42 786 l -31 786 z "},"k":{"ha":669,"x_min":122,"x_max":671,"o":"m 585 0 l 179 344 l 179 0 l 122 0 l 122 1022 l 179 1022 l 179 368 l 546 694 l 628 694 l 249 361 l 671 0 l 585 0 z "},"ķ":{"ha":669,"x_min":122,"x_max":671,"o":"m 585 0 l 179 344 l 179 0 l 122 0 l 122 1022 l 179 1022 l 179 368 l 546 694 l 628 694 l 249 361 l 671 0 l 585 0 m 383 -107 l 383 -182 q 369 -274 383 -233 q 318 -351 354 -315 l 281 -321 q 319 -261 308 -289 q 331 -197 329 -233 l 285 -197 l 285 -107 l 383 -107 z "},"ĸ":{"ha":669,"x_min":122,"x_max":671,"o":"m 585 0 l 179 344 l 179 0 l 122 0 l 122 694 l 179 694 l 179 368 l 546 694 l 628 694 l 249 361 l 671 0 l 585 0 z "},"l":{"ha":303,"x_min":122,"x_max":179,"o":"m 122 1022 l 179 1022 l 179 0 l 122 0 l 122 1022 z "},"ĺ":{"ha":303,"x_min":122,"x_max":351,"o":"m 122 1022 l 179 1022 l 179 0 l 122 0 l 122 1022 m 126 1107 l 267 1315 l 351 1315 l 178 1107 l 126 1107 z "},"ľ":{"ha":303,"x_min":122,"x_max":319,"o":"m 122 1022 l 179 1022 l 179 0 l 122 0 l 122 1022 m 240 753 l 240 1022 l 319 1022 l 282 753 l 240 753 z "},"ļ":{"ha":303,"x_min":99,"x_max":201,"o":"m 122 1022 l 179 1022 l 179 0 l 122 0 l 122 1022 m 201 -107 l 201 -182 q 187 -274 201 -233 q 136 -351 172 -315 l 99 -321 q 137 -261 126 -289 q 149 -197 147 -233 l 103 -197 l 103 -107 l 201 -107 z "},"ŀ":{"ha":285,"x_min":122,"x_max":333,"o":"m 122 1022 l 179 1022 l 179 0 l 122 0 l 122 1022 m 333 546 l 333 450 l 236 450 l 236 546 l 333 546 z "},"ḷ":{"ha":303,"x_min":106,"x_max":199,"o":"m 122 1022 l 179 1022 l 179 0 l 122 0 l 122 1022 m 199 -153 l 199 -243 l 106 -243 l 106 -153 l 199 -153 z "},"ǉ":{"ha":606,"x_min":122,"x_max":500,"o":"m 122 1022 l 179 1022 l 179 0 l 122 0 l 122 1022 m 235 -235 q 303 -247 271 -247 q 392 -214 360 -247 q 425 -93 425 -181 l 425 694 l 482 694 l 482 -111 q 435 -256 482 -208 q 310 -303 389 -303 q 235 -293 281 -303 l 235 -235 m 500 972 l 500 883 l 410 883 l 410 972 l 500 972 z "},"ḻ":{"ha":303,"x_min":-53,"x_max":357,"o":"m 122 1022 l 179 1022 l 179 0 l 122 0 l 122 1022 m -53 -167 l 357 -167 l 357 -228 l -53 -228 l -53 -167 z "},"ł":{"ha":347,"x_min":-3,"x_max":353,"o":"m 203 496 l 203 0 l 144 0 l 144 463 l 26 394 l -3 442 l 144 526 l 144 1022 l 203 1022 l 203 561 l 324 631 l 353 583 l 203 496 z "},"m":{"ha":1194,"x_min":111,"x_max":1076,"o":"m 847 711 q 1076 447 1076 711 l 1076 0 l 1018 0 l 1018 442 q 978 604 1018 553 q 850 656 938 656 q 689 588 749 656 q 629 404 629 519 l 629 0 l 571 0 l 571 442 q 531 604 571 553 q 401 656 490 656 q 239 588 299 656 q 179 404 179 519 l 179 0 l 122 0 l 122 503 q 111 694 122 611 l 167 694 l 176 564 q 262 673 204 635 q 397 711 319 711 q 614 574 567 711 q 705 675 643 639 q 847 711 767 711 z "},"ṃ":{"ha":1194,"x_min":111,"x_max":1076,"o":"m 847 711 q 1076 447 1076 711 l 1076 0 l 1018 0 l 1018 442 q 978 604 1018 553 q 850 656 938 656 q 689 588 749 656 q 629 404 629 519 l 629 0 l 571 0 l 571 442 q 531 604 571 553 q 401 656 490 656 q 239 588 299 656 q 179 404 179 519 l 179 0 l 122 0 l 122 503 q 111 694 122 611 l 167 694 l 176 564 q 262 673 204 635 q 397 711 319 711 q 614 574 567 711 q 705 675 643 639 q 847 711 767 711 m 646 -153 l 646 -243 l 553 -243 l 553 -153 l 646 -153 z "},"n":{"ha":792,"x_min":111,"x_max":674,"o":"m 421 711 q 674 447 674 711 l 674 0 l 615 0 l 615 442 q 570 604 615 553 q 426 656 525 656 q 247 588 314 656 q 179 404 179 519 l 179 0 l 122 0 l 122 503 q 111 694 122 611 l 167 694 l 176 563 q 271 673 206 635 q 421 711 336 711 z "},"ń":{"ha":792,"x_min":111,"x_max":674,"o":"m 421 711 q 674 447 674 711 l 674 0 l 615 0 l 615 442 q 570 604 615 553 q 426 656 525 656 q 247 588 314 656 q 179 404 179 519 l 179 0 l 122 0 l 122 503 q 111 694 122 611 l 167 694 l 176 563 q 271 673 206 635 q 421 711 336 711 m 371 786 l 511 1067 l 599 1067 l 422 786 l 371 786 z "},"ŉ":{"ha":792,"x_min":111,"x_max":674,"o":"m 256 1053 l 256 976 q 241 885 256 926 q 190 808 226 843 l 153 838 q 191 897 181 868 q 203 961 201 926 l 157 961 l 157 1053 l 256 1053 m 421 711 q 674 447 674 711 l 674 0 l 615 0 l 615 442 q 570 604 615 553 q 426 656 525 656 q 247 588 314 656 q 179 404 179 519 l 179 0 l 122 0 l 122 503 q 111 694 122 611 l 167 694 l 176 563 q 271 673 206 635 q 421 711 336 711 z "},"ň":{"ha":792,"x_min":111,"x_max":674,"o":"m 421 711 q 674 447 674 711 l 674 0 l 615 0 l 615 442 q 570 604 615 553 q 426 656 525 656 q 247 588 314 656 q 179 404 179 519 l 179 0 l 122 0 l 122 503 q 111 694 122 611 l 167 694 l 176 563 q 271 673 206 635 q 421 711 336 711 m 579 1067 l 424 786 l 369 786 l 214 1067 l 286 1067 l 397 844 l 507 1067 l 579 1067 z "},"ņ":{"ha":792,"x_min":111,"x_max":674,"o":"m 421 711 q 674 447 674 711 l 674 0 l 615 0 l 615 442 q 570 604 615 553 q 426 656 525 656 q 247 588 314 656 q 179 404 179 519 l 179 0 l 122 0 l 122 503 q 111 694 122 611 l 167 694 l 176 563 q 271 673 206 635 q 421 711 336 711 m 446 -107 l 446 -182 q 431 -274 446 -233 q 381 -351 417 -315 l 343 -321 q 381 -261 371 -289 q 393 -197 392 -233 l 347 -197 l 347 -107 l 446 -107 z "},"ṅ":{"ha":792,"x_min":111,"x_max":674,"o":"m 421 711 q 674 447 674 711 l 674 0 l 615 0 l 615 442 q 570 604 615 553 q 426 656 525 656 q 247 588 314 656 q 179 404 179 519 l 179 0 l 122 0 l 122 503 q 111 694 122 611 l 167 694 l 176 563 q 271 673 206 635 q 421 711 336 711 m 442 972 l 442 883 l 351 883 l 351 972 l 442 972 z "},"ṇ":{"ha":792,"x_min":111,"x_max":674,"o":"m 421 711 q 674 447 674 711 l 674 0 l 615 0 l 615 442 q 570 604 615 553 q 426 656 525 656 q 247 588 314 656 q 179 404 179 519 l 179 0 l 122 0 l 122 503 q 111 694 122 611 l 167 694 l 176 563 q 271 673 206 635 q 421 711 336 711 m 443 -153 l 443 -243 l 350 -243 l 350 -153 l 443 -153 z "},"ŋ":{"ha":792,"x_min":111,"x_max":674,"o":"m 421 711 q 674 447 674 711 l 674 -85 q 628 -253 674 -204 q 501 -303 582 -303 q 426 -293 468 -303 l 426 -235 q 493 -247 460 -247 q 584 -210 553 -247 q 615 -64 615 -172 l 615 442 q 570 604 615 553 q 426 656 525 656 q 247 588 314 656 q 179 404 179 519 l 179 0 l 122 0 l 122 503 q 111 694 122 611 l 167 694 l 176 563 q 271 673 206 635 q 421 711 336 711 z "},"ǌ":{"ha":1094,"x_min":111,"x_max":989,"o":"m 421 711 q 674 447 674 711 l 674 0 l 615 0 l 615 442 q 570 604 615 553 q 426 656 525 656 q 247 588 314 656 q 179 404 179 519 l 179 0 l 122 0 l 122 503 q 111 694 122 611 l 167 694 l 176 563 q 271 673 206 635 q 421 711 336 711 m 724 -235 q 792 -247 760 -247 q 881 -214 849 -247 q 914 -93 914 -181 l 914 694 l 971 694 l 971 -111 q 924 -256 971 -208 q 799 -303 878 -303 q 724 -293 769 -303 l 724 -235 m 989 972 l 989 883 l 899 883 l 899 972 l 989 972 z "},"ṉ":{"ha":792,"x_min":111,"x_max":674,"o":"m 421 711 q 674 447 674 711 l 674 0 l 615 0 l 615 442 q 570 604 615 553 q 426 656 525 656 q 247 588 314 656 q 179 404 179 519 l 179 0 l 122 0 l 122 503 q 111 694 122 611 l 167 694 l 176 563 q 271 673 206 635 q 421 711 336 711 m 192 -167 l 601 -167 l 601 -228 l 192 -228 l 192 -167 z "},"ñ":{"ha":792,"x_min":111,"x_max":674,"o":"m 421 711 q 674 447 674 711 l 674 0 l 615 0 l 615 442 q 570 604 615 553 q 426 656 525 656 q 247 588 314 656 q 179 404 179 519 l 179 0 l 122 0 l 122 503 q 111 694 122 611 l 167 694 l 176 563 q 271 673 206 635 q 421 711 336 711 m 181 863 q 210 961 181 924 q 292 999 239 999 q 348 987 322 999 q 414 950 374 975 q 460 923 442 932 q 496 914 479 914 q 549 938 531 914 q 565 994 567 963 l 613 994 q 583 895 613 932 q 501 858 554 858 q 445 870 471 858 q 379 907 419 882 q 333 934 351 925 q 297 943 314 943 q 244 919 263 943 q 228 863 226 894 l 181 863 z "},"o":{"ha":768,"x_min":75,"x_max":693,"o":"m 385 -10 q 222 35 293 -10 q 113 161 151 79 q 75 351 75 243 q 113 541 75 460 q 222 667 151 622 q 385 711 293 711 q 547 667 476 711 q 655 541 617 622 q 693 351 693 460 q 655 161 693 243 q 547 35 617 79 q 385 -10 476 -10 m 383 47 q 566 126 501 47 q 631 351 631 206 q 565 574 631 493 q 385 654 500 654 q 203 574 269 654 q 138 351 138 494 q 201 126 138 204 q 383 47 265 47 z "},"ó":{"ha":768,"x_min":75,"x_max":693,"o":"m 385 -10 q 222 35 293 -10 q 113 161 151 79 q 75 351 75 243 q 113 541 75 460 q 222 667 151 622 q 385 711 293 711 q 547 667 476 711 q 655 541 617 622 q 693 351 693 460 q 655 161 693 243 q 547 35 617 79 q 385 -10 476 -10 m 383 47 q 566 126 501 47 q 631 351 631 206 q 565 574 631 493 q 385 654 500 654 q 203 574 269 654 q 138 351 138 494 q 201 126 138 204 q 383 47 265 47 m 358 786 l 499 1067 l 586 1067 l 410 786 l 358 786 z "},"ŏ":{"ha":768,"x_min":75,"x_max":693,"o":"m 385 -10 q 222 35 293 -10 q 113 161 151 79 q 75 351 75 243 q 113 541 75 460 q 222 667 151 622 q 385 711 293 711 q 547 667 476 711 q 655 541 617 622 q 693 351 693 460 q 655 161 693 243 q 547 35 617 79 q 385 -10 476 -10 m 383 47 q 566 126 501 47 q 631 351 631 206 q 565 574 631 493 q 385 654 500 654 q 203 574 269 654 q 138 351 138 494 q 201 126 138 204 q 383 47 265 47 m 385 835 q 257 873 314 835 q 168 997 200 911 l 225 1021 q 295 921 256 951 q 385 890 335 890 q 474 921 435 890 q 543 1021 513 951 l 600 999 q 513 874 569 913 q 385 835 456 835 z "},"ô":{"ha":768,"x_min":75,"x_max":693,"o":"m 385 -10 q 222 35 293 -10 q 113 161 151 79 q 75 351 75 243 q 113 541 75 460 q 222 667 151 622 q 385 711 293 711 q 547 667 476 711 q 655 541 617 622 q 693 351 693 460 q 655 161 693 243 q 547 35 617 79 q 385 -10 476 -10 m 383 47 q 566 126 501 47 q 631 351 631 206 q 565 574 631 493 q 385 654 500 654 q 203 574 269 654 q 138 351 138 494 q 201 126 138 204 q 383 47 265 47 m 201 786 l 357 1067 l 411 1067 l 567 786 l 494 786 l 385 1007 l 274 786 l 201 786 z "},"ố":{"ha":768,"x_min":75,"x_max":726,"o":"m 385 -10 q 222 35 293 -10 q 113 161 151 79 q 75 351 75 243 q 113 541 75 460 q 222 667 151 622 q 385 711 293 711 q 547 667 476 711 q 655 541 617 622 q 693 351 693 460 q 655 161 693 243 q 547 35 617 79 q 385 -10 476 -10 m 383 47 q 566 126 501 47 q 631 351 631 206 q 565 574 631 493 q 385 654 500 654 q 203 574 269 654 q 138 351 138 494 q 201 126 138 204 q 383 47 265 47 m 494 928 l 639 1126 l 726 1126 l 546 928 l 494 928 m 201 786 l 358 999 l 410 999 l 567 786 l 494 786 l 385 947 l 274 786 l 201 786 z "},"ộ":{"ha":768,"x_min":75,"x_max":693,"o":"m 385 -10 q 222 35 293 -10 q 113 161 151 79 q 75 351 75 243 q 113 541 75 460 q 222 667 151 622 q 385 711 293 711 q 547 667 476 711 q 655 541 617 622 q 693 351 693 460 q 655 161 693 243 q 547 35 617 79 q 385 -10 476 -10 m 383 47 q 566 126 501 47 q 631 351 631 206 q 565 574 631 493 q 385 654 500 654 q 203 574 269 654 q 138 351 138 494 q 201 126 138 204 q 383 47 265 47 m 431 -153 l 431 -243 l 338 -243 l 338 -153 l 431 -153 m 201 786 l 357 1067 l 411 1067 l 567 786 l 494 786 l 385 1007 l 274 786 l 201 786 z "},"ồ":{"ha":768,"x_min":75,"x_max":693,"o":"m 385 -10 q 222 35 293 -10 q 113 161 151 79 q 75 351 75 243 q 113 541 75 460 q 222 667 151 622 q 385 711 293 711 q 547 667 476 711 q 655 541 617 622 q 693 351 693 460 q 655 161 693 243 q 547 35 617 79 q 385 -10 476 -10 m 383 47 q 566 126 501 47 q 631 351 631 206 q 565 574 631 493 q 385 654 500 654 q 203 574 269 654 q 138 351 138 494 q 201 126 138 204 q 383 47 265 47 m 407 1126 l 493 1126 l 606 928 l 556 928 l 407 1126 m 201 786 l 358 999 l 410 999 l 567 786 l 494 786 l 385 947 l 274 786 l 201 786 z "},"ổ":{"ha":768,"x_min":75,"x_max":693,"o":"m 385 -10 q 222 35 293 -10 q 113 161 151 79 q 75 351 75 243 q 113 541 75 460 q 222 667 151 622 q 385 711 293 711 q 547 667 476 711 q 655 541 617 622 q 693 351 693 460 q 655 161 693 243 q 547 35 617 79 q 385 -10 476 -10 m 383 47 q 566 126 501 47 q 631 351 631 206 q 565 574 631 493 q 385 654 500 654 q 203 574 269 654 q 138 351 138 494 q 201 126 138 204 q 383 47 265 47 m 553 928 l 493 928 l 493 949 q 508 985 493 972 q 550 1010 524 999 q 581 1026 571 1019 q 590 1044 590 1033 q 573 1066 590 1058 q 526 1074 556 1074 q 439 1056 482 1074 l 422 1110 q 525 1133 476 1133 q 623 1108 588 1133 q 658 1042 658 1083 q 642 1005 658 1018 q 597 979 626 992 q 564 961 575 969 q 553 940 553 953 l 553 928 m 201 786 l 358 999 l 410 999 l 567 786 l 494 786 l 385 947 l 274 786 l 201 786 z "},"ỗ":{"ha":768,"x_min":75,"x_max":693,"o":"m 385 -10 q 222 35 293 -10 q 113 161 151 79 q 75 351 75 243 q 113 541 75 460 q 222 667 151 622 q 385 711 293 711 q 547 667 476 711 q 655 541 617 622 q 693 351 693 460 q 655 161 693 243 q 547 35 617 79 q 385 -10 476 -10 m 383 47 q 566 126 501 47 q 631 351 631 206 q 565 574 631 493 q 385 654 500 654 q 203 574 269 654 q 138 351 138 494 q 201 126 138 204 q 383 47 265 47 m 168 1017 q 197 1114 168 1078 q 279 1150 226 1150 q 336 1140 310 1150 q 401 1111 363 1131 q 446 1092 424 1100 q 483 1083 468 1083 q 535 1106 517 1083 q 553 1156 554 1129 l 600 1156 q 570 1059 600 1096 q 489 1022 540 1022 q 431 1033 458 1022 q 367 1063 403 1043 q 319 1085 338 1078 q 285 1092 300 1092 q 233 1067 251 1092 q 215 1017 214 1043 l 168 1017 m 201 786 l 358 999 l 410 999 l 567 786 l 494 786 l 385 947 l 274 786 l 201 786 z "},"ȍ":{"ha":768,"x_min":75,"x_max":693,"o":"m 385 -10 q 222 35 293 -10 q 113 161 151 79 q 75 351 75 243 q 113 541 75 460 q 222 667 151 622 q 385 711 293 711 q 547 667 476 711 q 655 541 617 622 q 693 351 693 460 q 655 161 693 243 q 547 35 617 79 q 385 -10 476 -10 m 383 47 q 566 126 501 47 q 631 351 631 206 q 565 574 631 493 q 385 654 500 654 q 203 574 269 654 q 138 351 138 494 q 201 126 138 204 q 383 47 265 47 m 175 1067 l 254 1067 l 326 786 l 288 786 l 175 1067 m 331 1067 l 410 1067 l 481 786 l 442 786 l 331 1067 z "},"ö":{"ha":768,"x_min":75,"x_max":693,"o":"m 385 -10 q 222 35 293 -10 q 113 161 151 79 q 75 351 75 243 q 113 541 75 460 q 222 667 151 622 q 385 711 293 711 q 547 667 476 711 q 655 541 617 622 q 693 351 693 460 q 655 161 693 243 q 547 35 617 79 q 385 -10 476 -10 m 383 47 q 566 126 501 47 q 631 351 631 206 q 565 574 631 493 q 385 654 500 654 q 203 574 269 654 q 138 351 138 494 q 201 126 138 204 q 383 47 265 47 m 314 969 l 314 885 l 228 885 l 228 969 l 314 969 m 540 969 l 540 885 l 454 885 l 454 969 l 540 969 z "},"ȫ":{"ha":768,"x_min":75,"x_max":693,"o":"m 385 -10 q 222 35 293 -10 q 113 161 151 79 q 75 351 75 243 q 113 541 75 460 q 222 667 151 622 q 385 711 293 711 q 547 667 476 711 q 655 541 617 622 q 693 351 693 460 q 655 161 693 243 q 547 35 617 79 q 385 -10 476 -10 m 383 47 q 566 126 501 47 q 631 351 631 206 q 565 574 631 493 q 385 654 500 654 q 203 574 269 654 q 138 351 138 494 q 201 126 138 204 q 383 47 265 47 m 314 969 l 314 885 l 228 885 l 228 969 l 314 969 m 540 969 l 540 885 l 454 885 l 454 969 l 540 969 m 179 1232 l 589 1232 l 589 1171 l 179 1171 l 179 1232 z "},"ȱ":{"ha":768,"x_min":75,"x_max":693,"o":"m 385 -10 q 222 35 293 -10 q 113 161 151 79 q 75 351 75 243 q 113 541 75 460 q 222 667 151 622 q 385 711 293 711 q 547 667 476 711 q 655 541 617 622 q 693 351 693 460 q 655 161 693 243 q 547 35 617 79 q 385 -10 476 -10 m 383 47 q 566 126 501 47 q 631 351 631 206 q 565 574 631 493 q 385 654 500 654 q 203 574 269 654 q 138 351 138 494 q 201 126 138 204 q 383 47 265 47 m 429 972 l 429 883 l 339 883 l 339 972 l 429 972 m 179 1232 l 589 1232 l 589 1171 l 179 1171 l 179 1232 z "},"ọ":{"ha":768,"x_min":75,"x_max":693,"o":"m 385 -10 q 222 35 293 -10 q 113 161 151 79 q 75 351 75 243 q 113 541 75 460 q 222 667 151 622 q 385 711 293 711 q 547 667 476 711 q 655 541 617 622 q 693 351 693 460 q 655 161 693 243 q 547 35 617 79 q 385 -10 476 -10 m 383 47 q 566 126 501 47 q 631 351 631 206 q 565 574 631 493 q 385 654 500 654 q 203 574 269 654 q 138 351 138 494 q 201 126 138 204 q 383 47 265 47 m 431 -153 l 431 -243 l 338 -243 l 338 -153 l 431 -153 z "},"ò":{"ha":768,"x_min":75,"x_max":693,"o":"m 385 -10 q 222 35 293 -10 q 113 161 151 79 q 75 351 75 243 q 113 541 75 460 q 222 667 151 622 q 385 711 293 711 q 547 667 476 711 q 655 541 617 622 q 693 351 693 460 q 655 161 693 243 q 547 35 617 79 q 385 -10 476 -10 m 383 47 q 566 126 501 47 q 631 351 631 206 q 565 574 631 493 q 385 654 500 654 q 203 574 269 654 q 138 351 138 494 q 201 126 138 204 q 383 47 265 47 m 182 1067 l 269 1067 l 410 786 l 358 786 l 182 1067 z "},"ỏ":{"ha":768,"x_min":75,"x_max":693,"o":"m 385 -10 q 222 35 293 -10 q 113 161 151 79 q 75 351 75 243 q 113 541 75 460 q 222 667 151 622 q 385 711 293 711 q 547 667 476 711 q 655 541 617 622 q 693 351 693 460 q 655 161 693 243 q 547 35 617 79 q 385 -10 476 -10 m 383 47 q 566 126 501 47 q 631 351 631 206 q 565 574 631 493 q 385 654 500 654 q 203 574 269 654 q 138 351 138 494 q 201 126 138 204 q 383 47 265 47 m 415 786 l 358 786 l 358 828 q 373 876 358 854 q 414 922 388 897 q 443 953 433 940 q 453 981 453 967 q 436 1006 453 997 q 390 1015 419 1015 q 300 999 346 1015 l 283 1049 q 392 1074 338 1074 q 484 1048 450 1074 q 518 982 518 1022 q 505 931 518 950 q 464 889 492 913 q 427 850 439 867 q 415 807 415 833 l 415 786 z "},"ơ":{"ha":768,"x_min":75,"x_max":693,"o":"m 551 663 q 656 538 619 617 q 693 351 693 458 q 655 161 693 243 q 547 35 617 79 q 385 -10 476 -10 q 222 35 293 -10 q 113 161 151 79 q 75 351 75 243 q 114 541 75 460 q 223 667 153 622 q 386 711 293 711 q 439 707 414 711 q 479 704 469 704 q 590 743 557 704 q 624 867 624 782 l 624 883 l 681 883 l 681 856 q 647 731 681 781 q 551 663 614 682 m 383 47 q 566 126 501 47 q 631 351 631 206 q 565 574 631 493 q 385 654 500 654 q 203 574 269 654 q 138 351 138 494 q 201 126 138 204 q 383 47 265 47 z "},"ớ":{"ha":768,"x_min":75,"x_max":693,"o":"m 551 663 q 656 538 619 617 q 693 351 693 458 q 655 161 693 243 q 547 35 617 79 q 385 -10 476 -10 q 222 35 293 -10 q 113 161 151 79 q 75 351 75 243 q 114 541 75 460 q 223 667 153 622 q 386 711 293 711 q 439 707 414 711 q 479 704 469 704 q 590 743 557 704 q 624 867 624 782 l 624 883 l 681 883 l 681 856 q 647 731 681 781 q 551 663 614 682 m 383 47 q 566 126 501 47 q 631 351 631 206 q 565 574 631 493 q 385 654 500 654 q 203 574 269 654 q 138 351 138 494 q 201 126 138 204 q 383 47 265 47 m 358 786 l 499 1067 l 586 1067 l 410 786 l 358 786 z "},"ợ":{"ha":768,"x_min":75,"x_max":693,"o":"m 551 663 q 656 538 619 617 q 693 351 693 458 q 655 161 693 243 q 547 35 617 79 q 385 -10 476 -10 q 222 35 293 -10 q 113 161 151 79 q 75 351 75 243 q 114 541 75 460 q 223 667 153 622 q 386 711 293 711 q 439 707 414 711 q 479 704 469 704 q 590 743 557 704 q 624 867 624 782 l 624 883 l 681 883 l 681 856 q 647 731 681 781 q 551 663 614 682 m 383 47 q 566 126 501 47 q 631 351 631 206 q 565 574 631 493 q 385 654 500 654 q 203 574 269 654 q 138 351 138 494 q 201 126 138 204 q 383 47 265 47 m 431 -153 l 431 -243 l 338 -243 l 338 -153 l 431 -153 z "},"ờ":{"ha":768,"x_min":75,"x_max":693,"o":"m 551 663 q 656 538 619 617 q 693 351 693 458 q 655 161 693 243 q 547 35 617 79 q 385 -10 476 -10 q 222 35 293 -10 q 113 161 151 79 q 75 351 75 243 q 114 541 75 460 q 223 667 153 622 q 386 711 293 711 q 439 707 414 711 q 479 704 469 704 q 590 743 557 704 q 624 867 624 782 l 624 883 l 681 883 l 681 856 q 647 731 681 781 q 551 663 614 682 m 383 47 q 566 126 501 47 q 631 351 631 206 q 565 574 631 493 q 385 654 500 654 q 203 574 269 654 q 138 351 138 494 q 201 126 138 204 q 383 47 265 47 m 182 1067 l 269 1067 l 410 786 l 358 786 l 182 1067 z "},"ở":{"ha":768,"x_min":75,"x_max":693,"o":"m 551 663 q 656 538 619 617 q 693 351 693 458 q 655 161 693 243 q 547 35 617 79 q 385 -10 476 -10 q 222 35 293 -10 q 113 161 151 79 q 75 351 75 243 q 114 541 75 460 q 223 667 153 622 q 386 711 293 711 q 439 707 414 711 q 479 704 469 704 q 590 743 557 704 q 624 867 624 782 l 624 883 l 681 883 l 681 856 q 647 731 681 781 q 551 663 614 682 m 383 47 q 566 126 501 47 q 631 351 631 206 q 565 574 631 493 q 385 654 500 654 q 203 574 269 654 q 138 351 138 494 q 201 126 138 204 q 383 47 265 47 m 415 786 l 358 786 l 358 828 q 373 876 358 854 q 414 922 388 897 q 443 953 433 940 q 453 981 453 967 q 436 1006 453 997 q 390 1015 419 1015 q 300 999 346 1015 l 283 1049 q 392 1074 338 1074 q 484 1048 450 1074 q 518 982 518 1022 q 505 931 518 950 q 464 889 492 913 q 427 850 439 867 q 415 807 415 833 l 415 786 z "},"ỡ":{"ha":768,"x_min":75,"x_max":693,"o":"m 551 663 q 656 538 619 617 q 693 351 693 458 q 655 161 693 243 q 547 35 617 79 q 385 -10 476 -10 q 222 35 293 -10 q 113 161 151 79 q 75 351 75 243 q 114 541 75 460 q 223 667 153 622 q 386 711 293 711 q 439 707 414 711 q 479 704 469 704 q 590 743 557 704 q 624 867 624 782 l 624 883 l 681 883 l 681 856 q 647 731 681 781 q 551 663 614 682 m 383 47 q 566 126 501 47 q 631 351 631 206 q 565 574 631 493 q 385 654 500 654 q 203 574 269 654 q 138 351 138 494 q 201 126 138 204 q 383 47 265 47 m 168 863 q 197 961 168 924 q 279 999 226 999 q 335 987 310 999 q 401 950 361 975 q 448 923 429 932 q 483 914 467 914 q 536 938 518 914 q 553 994 554 963 l 600 994 q 571 895 600 932 q 489 858 542 858 q 433 870 458 858 q 367 907 407 882 q 320 934 339 925 q 285 943 301 943 q 232 919 250 943 q 215 863 214 894 l 168 863 z "},"ő":{"ha":768,"x_min":75,"x_max":693,"o":"m 385 -10 q 222 35 293 -10 q 113 161 151 79 q 75 351 75 243 q 113 541 75 460 q 222 667 151 622 q 385 711 293 711 q 547 667 476 711 q 655 541 617 622 q 693 351 693 460 q 655 161 693 243 q 547 35 617 79 q 385 -10 476 -10 m 383 47 q 566 126 501 47 q 631 351 631 206 q 565 574 631 493 q 385 654 500 654 q 203 574 269 654 q 138 351 138 494 q 201 126 138 204 q 383 47 265 47 m 288 786 l 358 1067 l 438 1067 l 326 786 l 288 786 m 442 786 l 514 1067 l 593 1067 l 481 786 l 442 786 z "},"ȏ":{"ha":768,"x_min":75,"x_max":693,"o":"m 385 -10 q 222 35 293 -10 q 113 161 151 79 q 75 351 75 243 q 113 541 75 460 q 222 667 151 622 q 385 711 293 711 q 547 667 476 711 q 655 541 617 622 q 693 351 693 460 q 655 161 693 243 q 547 35 617 79 q 385 -10 476 -10 m 383 47 q 566 126 501 47 q 631 351 631 206 q 565 574 631 493 q 385 654 500 654 q 203 574 269 654 q 138 351 138 494 q 201 126 138 204 q 383 47 265 47 m 385 1021 q 511 982 454 1021 q 600 858 568 943 l 543 833 q 474 935 513 906 q 385 965 435 965 q 294 935 333 965 q 225 833 256 906 l 168 857 q 256 981 199 942 q 385 1021 314 1021 z "},"ō":{"ha":768,"x_min":75,"x_max":693,"o":"m 385 -10 q 222 35 293 -10 q 113 161 151 79 q 75 351 75 243 q 113 541 75 460 q 222 667 151 622 q 385 711 293 711 q 547 667 476 711 q 655 541 617 622 q 693 351 693 460 q 655 161 693 243 q 547 35 617 79 q 385 -10 476 -10 m 383 47 q 566 126 501 47 q 631 351 631 206 q 565 574 631 493 q 385 654 500 654 q 203 574 269 654 q 138 351 138 494 q 201 126 138 204 q 383 47 265 47 m 179 958 l 589 958 l 589 897 l 179 897 l 179 958 z "},"ṓ":{"ha":768,"x_min":75,"x_max":693,"o":"m 385 -10 q 222 35 293 -10 q 113 161 151 79 q 75 351 75 243 q 113 541 75 460 q 222 667 151 622 q 385 711 293 711 q 547 667 476 711 q 655 541 617 622 q 693 351 693 460 q 655 161 693 243 q 547 35 617 79 q 385 -10 476 -10 m 383 47 q 566 126 501 47 q 631 351 631 206 q 565 574 631 493 q 385 654 500 654 q 203 574 269 654 q 138 351 138 494 q 201 126 138 204 q 383 47 265 47 m 179 958 l 589 958 l 589 897 l 179 897 l 179 958 m 358 1060 l 499 1340 l 586 1340 l 410 1060 l 358 1060 z "},"ṑ":{"ha":768,"x_min":75,"x_max":693,"o":"m 385 -10 q 222 35 293 -10 q 113 161 151 79 q 75 351 75 243 q 113 541 75 460 q 222 667 151 622 q 385 711 293 711 q 547 667 476 711 q 655 541 617 622 q 693 351 693 460 q 655 161 693 243 q 547 35 617 79 q 385 -10 476 -10 m 383 47 q 566 126 501 47 q 631 351 631 206 q 565 574 631 493 q 385 654 500 654 q 203 574 269 654 q 138 351 138 494 q 201 126 138 204 q 383 47 265 47 m 179 958 l 589 958 l 589 897 l 179 897 l 179 958 m 182 1340 l 269 1340 l 410 1060 l 358 1060 l 182 1340 z "},"ǫ":{"ha":768,"x_min":75,"x_max":693,"o":"m 496 11 q 393 -41 422 -11 q 364 -121 364 -71 q 391 -192 364 -165 q 463 -219 418 -219 q 549 -190 499 -219 l 571 -240 q 460 -272 528 -272 q 346 -232 390 -272 q 301 -126 301 -192 q 351 -8 301 -54 q 150 100 225 3 q 75 351 75 197 q 113 541 75 460 q 222 667 151 622 q 385 711 293 711 q 547 667 476 711 q 655 541 617 622 q 693 351 693 460 q 640 132 693 222 q 496 11 588 42 m 138 351 q 201 126 138 204 q 383 47 265 47 q 566 126 501 47 q 631 351 631 206 q 565 574 631 493 q 385 654 500 654 q 203 574 269 654 q 138 351 138 494 z "},"ø":{"ha":768,"x_min":75,"x_max":693,"o":"m 585 638 q 665 517 636 590 q 693 351 693 443 q 655 161 693 243 q 547 35 617 79 q 385 -10 476 -10 q 232 29 299 -10 l 185 -51 l 133 -22 l 183 64 q 103 185 132 111 q 75 351 75 258 q 113 541 75 460 q 222 667 151 622 q 385 711 293 711 q 538 672 468 711 l 583 751 l 635 725 l 585 638 m 139 351 q 213 114 139 192 l 508 622 q 385 654 456 654 q 204 574 269 654 q 139 351 139 493 m 383 47 q 566 126 501 47 q 631 351 631 206 q 611 488 631 428 q 554 586 592 547 l 260 78 q 383 47 308 47 z "},"ǿ":{"ha":768,"x_min":75,"x_max":693,"o":"m 585 638 q 665 517 636 590 q 693 351 693 443 q 655 161 693 243 q 547 35 617 79 q 385 -10 476 -10 q 232 29 299 -10 l 185 -51 l 133 -22 l 183 64 q 103 185 132 111 q 75 351 75 258 q 113 541 75 460 q 222 667 151 622 q 385 711 293 711 q 538 672 468 711 l 583 751 l 635 725 l 585 638 m 139 351 q 213 114 139 192 l 508 622 q 385 654 456 654 q 204 574 269 654 q 139 351 139 493 m 383 47 q 566 126 501 47 q 631 351 631 206 q 611 488 631 428 q 554 586 592 547 l 260 78 q 383 47 308 47 m 358 786 l 499 1067 l 586 1067 l 410 786 l 358 786 z "},"õ":{"ha":768,"x_min":75,"x_max":693,"o":"m 385 -10 q 222 35 293 -10 q 113 161 151 79 q 75 351 75 243 q 113 541 75 460 q 222 667 151 622 q 385 711 293 711 q 547 667 476 711 q 655 541 617 622 q 693 351 693 460 q 655 161 693 243 q 547 35 617 79 q 385 -10 476 -10 m 383 47 q 566 126 501 47 q 631 351 631 206 q 565 574 631 493 q 385 654 500 654 q 203 574 269 654 q 138 351 138 494 q 201 126 138 204 q 383 47 265 47 m 168 863 q 197 961 168 924 q 279 999 226 999 q 335 987 310 999 q 401 950 361 975 q 448 923 429 932 q 483 914 467 914 q 536 938 518 914 q 553 994 554 963 l 600 994 q 571 895 600 932 q 489 858 542 858 q 433 870 458 858 q 367 907 407 882 q 320 934 339 925 q 285 943 301 943 q 232 919 250 943 q 215 863 214 894 l 168 863 z "},"ṍ":{"ha":768,"x_min":75,"x_max":693,"o":"m 385 -10 q 222 35 293 -10 q 113 161 151 79 q 75 351 75 243 q 113 541 75 460 q 222 667 151 622 q 385 711 293 711 q 547 667 476 711 q 655 541 617 622 q 693 351 693 460 q 655 161 693 243 q 547 35 617 79 q 385 -10 476 -10 m 383 47 q 566 126 501 47 q 631 351 631 206 q 565 574 631 493 q 385 654 500 654 q 203 574 269 654 q 138 351 138 494 q 201 126 138 204 q 383 47 265 47 m 168 863 q 197 961 168 924 q 279 999 226 999 q 335 987 310 999 q 401 950 361 975 q 448 923 429 932 q 483 914 467 914 q 536 938 518 914 q 553 994 554 963 l 600 994 q 571 895 600 932 q 489 858 542 858 q 433 870 458 858 q 367 907 407 882 q 320 934 339 925 q 285 943 301 943 q 232 919 250 943 q 215 863 214 894 l 168 863 m 358 1060 l 499 1340 l 586 1340 l 410 1060 l 358 1060 z "},"ṏ":{"ha":768,"x_min":75,"x_max":693,"o":"m 385 -10 q 222 35 293 -10 q 113 161 151 79 q 75 351 75 243 q 113 541 75 460 q 222 667 151 622 q 385 711 293 711 q 547 667 476 711 q 655 541 617 622 q 693 351 693 460 q 655 161 693 243 q 547 35 617 79 q 385 -10 476 -10 m 383 47 q 566 126 501 47 q 631 351 631 206 q 565 574 631 493 q 385 654 500 654 q 203 574 269 654 q 138 351 138 494 q 201 126 138 204 q 383 47 265 47 m 168 863 q 197 961 168 924 q 279 999 226 999 q 335 987 310 999 q 401 950 361 975 q 448 923 429 932 q 483 914 467 914 q 536 938 518 914 q 553 994 554 963 l 600 994 q 571 895 600 932 q 489 858 542 858 q 433 870 458 858 q 367 907 407 882 q 320 934 339 925 q 285 943 301 943 q 232 919 250 943 q 215 863 214 894 l 168 863 m 314 1243 l 314 1158 l 228 1158 l 228 1243 l 314 1243 m 540 1243 l 540 1158 l 454 1158 l 454 1243 l 540 1243 z "},"ȭ":{"ha":768,"x_min":75,"x_max":693,"o":"m 385 -10 q 222 35 293 -10 q 113 161 151 79 q 75 351 75 243 q 113 541 75 460 q 222 667 151 622 q 385 711 293 711 q 547 667 476 711 q 655 541 617 622 q 693 351 693 460 q 655 161 693 243 q 547 35 617 79 q 385 -10 476 -10 m 383 47 q 566 126 501 47 q 631 351 631 206 q 565 574 631 493 q 385 654 500 654 q 203 574 269 654 q 138 351 138 494 q 201 126 138 204 q 383 47 265 47 m 168 863 q 197 961 168 924 q 279 999 226 999 q 335 987 310 999 q 401 950 361 975 q 448 923 429 932 q 483 914 467 914 q 536 938 518 914 q 553 994 554 963 l 600 994 q 571 895 600 932 q 489 858 542 858 q 433 870 458 858 q 367 907 407 882 q 320 934 339 925 q 285 943 301 943 q 232 919 250 943 q 215 863 214 894 l 168 863 m 179 1232 l 589 1232 l 589 1171 l 179 1171 l 179 1232 z "},"œ":{"ha":1300,"x_min":75,"x_max":1229,"o":"m 1229 342 l 694 342 q 766 124 697 200 q 961 47 835 47 q 1189 138 1078 47 l 1218 88 q 1104 17 1175 44 q 963 -10 1033 -10 q 774 45 851 -10 q 664 201 697 100 q 559 46 632 101 q 386 -10 486 -10 q 223 35 293 -10 q 114 161 153 79 q 75 351 75 243 q 114 541 75 460 q 224 667 153 622 q 386 711 294 711 q 557 658 485 711 q 661 507 629 604 q 770 656 694 601 q 947 711 846 711 q 1155 624 1081 711 q 1229 379 1229 538 l 1229 342 m 947 658 q 773 589 839 658 q 696 397 707 519 l 1174 397 q 1112 591 1171 524 q 947 658 1053 658 m 383 47 q 567 126 503 47 q 631 351 631 204 q 565 574 631 494 q 385 654 500 654 q 203 574 269 654 q 138 351 138 494 q 201 126 138 204 q 383 47 265 47 z "},"p":{"ha":810,"x_min":111,"x_max":735,"o":"m 425 711 q 587 666 517 711 q 696 539 657 621 q 735 349 735 457 q 697 160 735 240 q 588 35 658 79 q 425 -10 517 -10 q 272 30 335 -10 q 179 146 210 69 l 179 -300 l 122 -300 l 122 503 q 111 694 122 611 l 167 694 l 178 553 q 271 670 207 629 q 425 711 335 711 m 425 47 q 606 126 542 47 q 671 349 671 206 q 606 574 671 493 q 426 654 542 654 q 244 576 307 654 q 181 351 181 497 q 244 126 181 206 q 425 47 307 47 z "},"þ":{"ha":810,"x_min":122,"x_max":735,"o":"m 425 711 q 584 667 514 711 q 694 542 654 624 q 735 349 735 460 q 694 156 735 238 q 584 33 654 75 q 425 -10 514 -10 q 272 30 335 -10 q 179 146 210 69 l 179 -300 l 122 -300 l 122 1022 l 179 1022 l 179 558 q 273 672 210 632 q 425 711 336 711 m 425 47 q 607 127 543 47 q 671 349 671 207 q 607 572 671 490 q 426 654 543 654 q 244 576 307 654 q 181 351 181 497 q 244 126 181 206 q 425 47 307 47 z "},"q":{"ha":810,"x_min":75,"x_max":697,"o":"m 697 694 q 688 503 688 607 l 688 -300 l 629 -300 l 629 139 q 535 28 599 67 q 385 -10 472 -10 q 222 34 292 -10 q 113 159 151 78 q 75 349 75 240 q 114 539 75 457 q 223 666 153 621 q 385 711 293 711 q 537 672 474 711 q 632 558 600 632 l 644 694 l 697 694 m 386 47 q 565 127 501 47 q 629 351 629 207 q 565 576 629 497 q 385 654 501 654 q 203 574 268 654 q 138 349 138 493 q 203 126 138 206 q 386 47 269 47 z "},"r":{"ha":467,"x_min":111,"x_max":457,"o":"m 399 711 q 457 707 438 711 l 453 654 q 397 657 436 657 q 272 622 321 657 q 201 531 224 586 q 179 417 179 476 l 179 0 l 122 0 l 122 503 q 111 694 122 611 l 167 694 l 176 564 q 263 674 204 636 q 399 711 322 711 z "},"ŕ":{"ha":467,"x_min":111,"x_max":493,"o":"m 399 711 q 457 707 438 711 l 453 654 q 397 657 436 657 q 272 622 321 657 q 201 531 224 586 q 179 417 179 476 l 179 0 l 122 0 l 122 503 q 111 694 122 611 l 167 694 l 176 564 q 263 674 204 636 q 399 711 322 711 m 265 786 l 406 1067 l 493 1067 l 317 786 l 265 786 z "},"ř":{"ha":467,"x_min":108,"x_max":474,"o":"m 399 711 q 457 707 438 711 l 453 654 q 397 657 436 657 q 272 622 321 657 q 201 531 224 586 q 179 417 179 476 l 179 0 l 122 0 l 122 503 q 111 694 122 611 l 167 694 l 176 564 q 263 674 204 636 q 399 711 322 711 m 474 1067 l 318 786 l 264 786 l 108 1067 l 181 1067 l 292 844 l 401 1067 l 474 1067 z "},"ŗ":{"ha":467,"x_min":99,"x_max":457,"o":"m 399 711 q 457 707 438 711 l 453 654 q 397 657 436 657 q 272 622 321 657 q 201 531 224 586 q 179 417 179 476 l 179 0 l 122 0 l 122 503 q 111 694 122 611 l 167 694 l 176 564 q 263 674 204 636 q 399 711 322 711 m 201 -107 l 201 -182 q 187 -274 201 -233 q 136 -351 172 -315 l 99 -321 q 137 -261 126 -289 q 149 -197 147 -233 l 103 -197 l 103 -107 l 201 -107 z "},"ȑ":{"ha":467,"x_min":82,"x_max":457,"o":"m 399 711 q 457 707 438 711 l 453 654 q 397 657 436 657 q 272 622 321 657 q 201 531 224 586 q 179 417 179 476 l 179 0 l 122 0 l 122 503 q 111 694 122 611 l 167 694 l 176 564 q 263 674 204 636 q 399 711 322 711 m 82 1067 l 161 1067 l 233 786 l 194 786 l 82 1067 m 238 1067 l 317 1067 l 388 786 l 349 786 l 238 1067 z "},"ṛ":{"ha":467,"x_min":106,"x_max":457,"o":"m 399 711 q 457 707 438 711 l 453 654 q 397 657 436 657 q 272 622 321 657 q 201 531 224 586 q 179 417 179 476 l 179 0 l 122 0 l 122 503 q 111 694 122 611 l 167 694 l 176 564 q 263 674 204 636 q 399 711 322 711 m 199 -153 l 199 -243 l 106 -243 l 106 -153 l 199 -153 z "},"ȓ":{"ha":467,"x_min":75,"x_max":507,"o":"m 399 711 q 457 707 438 711 l 453 654 q 397 657 436 657 q 272 622 321 657 q 201 531 224 586 q 179 417 179 476 l 179 0 l 122 0 l 122 503 q 111 694 122 611 l 167 694 l 176 564 q 263 674 204 636 q 399 711 322 711 m 292 1021 q 418 982 361 1021 q 507 858 475 943 l 450 833 q 381 935 419 906 q 292 965 342 965 q 201 935 240 965 q 132 833 163 906 l 75 857 q 163 981 106 942 q 292 1021 221 1021 z "},"ṟ":{"ha":467,"x_min":-53,"x_max":457,"o":"m 399 711 q 457 707 438 711 l 453 654 q 397 657 436 657 q 272 622 321 657 q 201 531 224 586 q 179 417 179 476 l 179 0 l 122 0 l 122 503 q 111 694 122 611 l 167 694 l 176 564 q 263 674 204 636 q 399 711 322 711 m -53 -167 l 357 -167 l 357 -228 l -53 -228 l -53 -167 z "},"s":{"ha":683,"x_min":81,"x_max":597,"o":"m 339 -10 q 81 85 175 -10 l 107 133 q 216 67 163 86 q 343 49 269 49 q 485 81 436 49 q 533 176 533 114 q 501 256 533 226 q 399 304 469 286 l 281 332 q 153 400 201 350 q 104 514 104 450 q 172 657 104 603 q 353 711 239 711 q 488 687 426 711 q 588 618 550 663 l 560 568 q 463 633 513 611 q 353 654 413 654 q 217 619 265 654 q 169 522 169 585 q 200 438 169 469 q 294 390 231 406 l 414 361 q 551 294 506 340 q 597 181 597 249 q 527 43 597 96 q 339 -10 457 -10 z "},"ś":{"ha":683,"x_min":81,"x_max":597,"o":"m 339 -10 q 81 85 175 -10 l 107 133 q 216 67 163 86 q 343 49 269 49 q 485 81 436 49 q 533 176 533 114 q 501 256 533 226 q 399 304 469 286 l 281 332 q 153 400 201 350 q 104 514 104 450 q 172 657 104 603 q 353 711 239 711 q 488 687 426 711 q 588 618 550 663 l 560 568 q 463 633 513 611 q 353 654 413 654 q 217 619 265 654 q 169 522 169 585 q 200 438 169 469 q 294 390 231 406 l 414 361 q 551 294 506 340 q 597 181 597 249 q 527 43 597 96 q 339 -10 457 -10 m 326 786 l 467 1067 l 554 1067 l 378 786 l 326 786 z "},"ṥ":{"ha":683,"x_min":81,"x_max":597,"o":"m 339 -10 q 81 85 175 -10 l 107 133 q 216 67 163 86 q 343 49 269 49 q 485 81 436 49 q 533 176 533 114 q 501 256 533 226 q 399 304 469 286 l 281 332 q 153 400 201 350 q 104 514 104 450 q 172 657 104 603 q 353 711 239 711 q 488 687 426 711 q 588 618 550 663 l 560 568 q 463 633 513 611 q 353 654 413 654 q 217 619 265 654 q 169 522 169 585 q 200 438 169 469 q 294 390 231 406 l 414 361 q 551 294 506 340 q 597 181 597 249 q 527 43 597 96 q 339 -10 457 -10 m 325 788 l 465 1068 l 553 1068 l 376 788 l 325 788 m 263 1056 l 263 967 l 172 967 l 172 1056 l 263 1056 z "},"š":{"ha":683,"x_min":81,"x_max":597,"o":"m 339 -10 q 81 85 175 -10 l 107 133 q 216 67 163 86 q 343 49 269 49 q 485 81 436 49 q 533 176 533 114 q 501 256 533 226 q 399 304 469 286 l 281 332 q 153 400 201 350 q 104 514 104 450 q 172 657 104 603 q 353 711 239 711 q 488 687 426 711 q 588 618 550 663 l 560 568 q 463 633 513 611 q 353 654 413 654 q 217 619 265 654 q 169 522 169 585 q 200 438 169 469 q 294 390 231 406 l 414 361 q 551 294 506 340 q 597 181 597 249 q 527 43 597 96 q 339 -10 457 -10 m 535 1067 l 379 786 l 325 786 l 169 1067 l 242 1067 l 353 844 l 463 1067 l 535 1067 z "},"ṧ":{"ha":683,"x_min":81,"x_max":597,"o":"m 339 -10 q 81 85 175 -10 l 107 133 q 216 67 163 86 q 343 49 269 49 q 485 81 436 49 q 533 176 533 114 q 501 256 533 226 q 399 304 469 286 l 281 332 q 153 400 201 350 q 104 514 104 450 q 172 657 104 603 q 353 711 239 711 q 488 687 426 711 q 588 618 550 663 l 560 568 q 463 633 513 611 q 353 654 413 654 q 217 619 265 654 q 169 522 169 585 q 200 438 169 469 q 294 390 231 406 l 414 361 q 551 294 506 340 q 597 181 597 249 q 527 43 597 96 q 339 -10 457 -10 m 535 1067 l 379 786 l 325 786 l 169 1067 l 242 1067 l 353 844 l 463 1067 l 535 1067 m 397 1246 l 397 1157 l 307 1157 l 307 1246 l 397 1246 z "},"ş":{"ha":683,"x_min":81,"x_max":597,"o":"m 597 181 q 532 47 597 99 q 356 -10 467 -6 l 351 -62 q 393 -57 369 -57 q 463 -81 432 -57 q 494 -154 494 -106 q 455 -235 494 -204 q 347 -267 415 -267 q 284 -260 317 -267 q 228 -240 251 -254 l 247 -192 q 350 -211 292 -211 q 413 -196 392 -211 q 435 -154 435 -181 q 422 -122 435 -133 q 385 -111 410 -111 q 313 -126 351 -111 l 286 -107 l 296 -8 q 81 85 161 4 l 107 133 q 216 67 163 86 q 343 49 269 49 q 485 81 436 49 q 533 176 533 114 q 501 256 533 226 q 399 304 469 286 l 281 332 q 153 400 201 350 q 104 514 104 450 q 172 657 104 603 q 353 711 239 711 q 488 687 426 711 q 588 618 550 663 l 560 568 q 463 633 513 611 q 353 654 413 654 q 217 619 265 654 q 169 522 169 585 q 200 438 169 469 q 294 390 231 406 l 414 361 q 551 294 506 340 q 597 181 597 249 z "},"ŝ":{"ha":683,"x_min":81,"x_max":597,"o":"m 339 -10 q 81 85 175 -10 l 107 133 q 216 67 163 86 q 343 49 269 49 q 485 81 436 49 q 533 176 533 114 q 501 256 533 226 q 399 304 469 286 l 281 332 q 153 400 201 350 q 104 514 104 450 q 172 657 104 603 q 353 711 239 711 q 488 687 426 711 q 588 618 550 663 l 560 568 q 463 633 513 611 q 353 654 413 654 q 217 619 265 654 q 169 522 169 585 q 200 438 169 469 q 294 390 231 406 l 414 361 q 551 294 506 340 q 597 181 597 249 q 527 43 597 96 q 339 -10 457 -10 m 169 786 l 325 1067 l 379 1067 l 535 786 l 463 786 l 353 1007 l 242 786 l 169 786 z "},"ș":{"ha":683,"x_min":81,"x_max":597,"o":"m 339 -10 q 81 85 175 -10 l 107 133 q 216 67 163 86 q 343 49 269 49 q 485 81 436 49 q 533 176 533 114 q 501 256 533 226 q 399 304 469 286 l 281 332 q 153 400 201 350 q 104 514 104 450 q 172 657 104 603 q 353 711 239 711 q 488 687 426 711 q 588 618 550 663 l 560 568 q 463 633 513 611 q 353 654 413 654 q 217 619 265 654 q 169 522 169 585 q 200 438 169 469 q 294 390 231 406 l 414 361 q 551 294 506 340 q 597 181 597 249 q 527 43 597 96 q 339 -10 457 -10 m 388 -107 l 388 -182 q 373 -274 388 -233 q 322 -351 358 -315 l 285 -321 q 323 -261 313 -289 q 335 -197 333 -233 l 289 -197 l 289 -107 l 388 -107 z "},"ṡ":{"ha":683,"x_min":81,"x_max":597,"o":"m 339 -10 q 81 85 175 -10 l 107 133 q 216 67 163 86 q 343 49 269 49 q 485 81 436 49 q 533 176 533 114 q 501 256 533 226 q 399 304 469 286 l 281 332 q 153 400 201 350 q 104 514 104 450 q 172 657 104 603 q 353 711 239 711 q 488 687 426 711 q 588 618 550 663 l 560 568 q 463 633 513 611 q 353 654 413 654 q 217 619 265 654 q 169 522 169 585 q 200 438 169 469 q 294 390 231 406 l 414 361 q 551 294 506 340 q 597 181 597 249 q 527 43 597 96 q 339 -10 457 -10 m 397 972 l 397 883 l 307 883 l 307 972 l 397 972 z "},"ṣ":{"ha":683,"x_min":81,"x_max":597,"o":"m 339 -10 q 81 85 175 -10 l 107 133 q 216 67 163 86 q 343 49 269 49 q 485 81 436 49 q 533 176 533 114 q 501 256 533 226 q 399 304 469 286 l 281 332 q 153 400 201 350 q 104 514 104 450 q 172 657 104 603 q 353 711 239 711 q 488 687 426 711 q 588 618 550 663 l 560 568 q 463 633 513 611 q 353 654 413 654 q 217 619 265 654 q 169 522 169 585 q 200 438 169 469 q 294 390 231 406 l 414 361 q 551 294 506 340 q 597 181 597 249 q 527 43 597 96 q 339 -10 457 -10 m 385 -153 l 385 -243 l 292 -243 l 292 -153 l 385 -153 z "},"ṩ":{"ha":683,"x_min":81,"x_max":597,"o":"m 339 -10 q 81 85 175 -10 l 107 133 q 216 67 163 86 q 343 49 269 49 q 485 81 436 49 q 533 176 533 114 q 501 256 533 226 q 399 304 469 286 l 281 332 q 153 400 201 350 q 104 514 104 450 q 172 657 104 603 q 353 711 239 711 q 488 687 426 711 q 588 618 550 663 l 560 568 q 463 633 513 611 q 353 654 413 654 q 217 619 265 654 q 169 522 169 585 q 200 438 169 469 q 294 390 231 406 l 414 361 q 551 294 506 340 q 597 181 597 249 q 527 43 597 96 q 339 -10 457 -10 m 385 -153 l 385 -243 l 292 -243 l 292 -153 l 385 -153 m 397 972 l 397 883 l 307 883 l 307 972 l 397 972 z "},"ß":{"ha":832,"x_min":122,"x_max":781,"o":"m 429 515 q 696 392 611 471 q 781 211 781 314 q 715 49 781 108 q 538 -10 650 -10 q 399 15 465 -10 q 288 85 333 40 l 317 133 q 428 68 376 88 q 536 47 479 49 q 672 88 625 47 q 718 210 718 129 q 637 362 718 297 q 353 482 556 426 l 353 532 q 544 656 489 588 q 599 817 599 725 q 553 931 599 892 q 422 971 508 971 q 241 906 303 971 q 179 713 179 842 l 179 0 l 122 0 l 122 710 q 200 945 122 864 q 421 1026 278 1026 q 594 971 532 1026 q 657 814 657 915 q 603 642 657 715 q 429 515 550 568 z "},"t":{"ha":450,"x_min":11,"x_max":419,"o":"m 208 644 l 208 201 q 241 80 208 113 q 338 47 274 47 q 415 60 379 47 l 415 3 q 332 -8 374 -8 q 199 38 249 -8 q 150 182 150 85 l 150 644 l 11 644 l 11 694 l 150 694 l 150 883 l 208 908 l 208 694 l 419 694 l 419 644 l 208 644 z "},"ŧ":{"ha":464,"x_min":18,"x_max":426,"o":"m 215 644 l 215 429 l 397 429 l 397 378 l 215 378 l 215 201 q 249 80 215 113 q 344 47 282 47 q 422 60 386 47 l 422 3 q 339 -8 381 -8 q 206 38 254 -8 q 158 182 158 85 l 158 378 l 47 378 l 47 429 l 158 429 l 158 644 l 18 644 l 18 694 l 158 694 l 158 883 l 215 908 l 215 694 l 426 694 l 426 644 l 215 644 z "},"ť":{"ha":450,"x_min":11,"x_max":419,"o":"m 326 754 l 289 754 l 289 992 l 363 992 l 326 754 m 208 644 l 208 201 q 241 80 208 113 q 338 47 274 47 q 415 60 379 47 l 415 3 q 332 -8 374 -8 q 199 38 249 -8 q 150 182 150 85 l 150 644 l 11 644 l 11 694 l 150 694 l 150 883 l 208 908 l 208 694 l 419 694 l 419 644 l 208 644 z "},"ţ":{"ha":450,"x_min":11,"x_max":449,"o":"m 347 -57 q 417 -81 386 -57 q 449 -154 449 -106 q 409 -235 449 -204 q 301 -267 369 -267 q 238 -260 271 -267 q 182 -240 206 -254 l 201 -192 q 304 -211 246 -211 q 367 -196 346 -211 q 389 -154 389 -181 q 376 -122 389 -133 q 339 -111 364 -111 q 267 -126 306 -111 l 240 -107 l 251 6 q 177 67 204 24 q 150 182 150 111 l 150 644 l 11 644 l 11 694 l 150 694 l 150 883 l 208 908 l 208 694 l 419 694 l 419 644 l 208 644 l 208 201 q 241 80 208 113 q 338 47 274 47 q 415 60 379 47 l 415 3 q 332 -8 374 -8 q 311 -7 318 -8 l 306 -62 q 347 -57 324 -57 z "},"ț":{"ha":450,"x_min":11,"x_max":419,"o":"m 208 644 l 208 201 q 241 80 208 113 q 338 47 274 47 q 415 60 379 47 l 415 3 q 332 -8 374 -8 q 199 38 249 -8 q 150 182 150 85 l 150 644 l 11 644 l 11 694 l 150 694 l 150 883 l 208 908 l 208 694 l 419 694 l 419 644 l 208 644 m 342 -107 l 342 -182 q 327 -274 342 -233 q 276 -351 313 -315 l 239 -321 q 277 -261 267 -289 q 289 -197 288 -233 l 243 -197 l 243 -107 l 342 -107 z "},"ẗ":{"ha":450,"x_min":11,"x_max":419,"o":"m 208 644 l 208 201 q 241 80 208 113 q 338 47 274 47 q 415 60 379 47 l 415 3 q 332 -8 374 -8 q 199 38 249 -8 q 150 182 150 85 l 150 644 l 11 644 l 11 694 l 150 694 l 150 883 l 208 908 l 208 694 l 419 694 l 419 644 l 208 644 m 108 1144 l 108 1060 l 22 1060 l 22 1144 l 108 1144 m 335 1144 l 335 1060 l 249 1060 l 249 1144 l 335 1144 z "},"ṭ":{"ha":450,"x_min":11,"x_max":419,"o":"m 208 644 l 208 201 q 241 80 208 113 q 338 47 274 47 q 415 60 379 47 l 415 3 q 332 -8 374 -8 q 199 38 249 -8 q 150 182 150 85 l 150 644 l 11 644 l 11 694 l 150 694 l 150 883 l 208 908 l 208 694 l 419 694 l 419 644 l 208 644 m 339 -153 l 339 -243 l 246 -243 l 246 -153 l 339 -153 z "},"ṯ":{"ha":450,"x_min":11,"x_max":497,"o":"m 208 644 l 208 201 q 241 80 208 113 q 338 47 274 47 q 415 60 379 47 l 415 3 q 332 -8 374 -8 q 199 38 249 -8 q 150 182 150 85 l 150 644 l 11 644 l 11 694 l 150 694 l 150 883 l 208 908 l 208 694 l 419 694 l 419 644 l 208 644 m 88 -167 l 497 -167 l 497 -228 l 88 -228 l 88 -167 z "},"u":{"ha":779,"x_min":118,"x_max":657,"o":"m 657 694 l 657 0 l 601 0 l 601 132 q 505 27 568 64 q 363 -10 442 -10 q 181 58 243 -10 q 118 256 118 125 l 118 694 l 175 694 l 175 261 q 220 99 175 151 q 358 47 265 47 q 534 116 468 47 q 600 299 600 185 l 600 694 l 657 694 z "},"ú":{"ha":779,"x_min":118,"x_max":657,"o":"m 657 694 l 657 0 l 601 0 l 601 132 q 505 27 568 64 q 363 -10 442 -10 q 181 58 243 -10 q 118 256 118 125 l 118 694 l 175 694 l 175 261 q 220 99 175 151 q 358 47 265 47 q 534 116 468 47 q 600 299 600 185 l 600 694 l 657 694 m 364 786 l 504 1067 l 592 1067 l 415 786 l 364 786 z "},"ŭ":{"ha":779,"x_min":118,"x_max":657,"o":"m 657 694 l 657 0 l 601 0 l 601 132 q 505 27 568 64 q 363 -10 442 -10 q 181 58 243 -10 q 118 256 118 125 l 118 694 l 175 694 l 175 261 q 220 99 175 151 q 358 47 265 47 q 534 116 468 47 q 600 299 600 185 l 600 694 l 657 694 m 390 835 q 263 873 319 835 q 174 997 206 911 l 231 1021 q 301 921 261 951 q 390 890 340 890 q 479 921 440 890 q 549 1021 518 951 l 606 999 q 518 874 575 913 q 390 835 461 835 z "},"û":{"ha":779,"x_min":118,"x_max":657,"o":"m 657 694 l 657 0 l 601 0 l 601 132 q 505 27 568 64 q 363 -10 442 -10 q 181 58 243 -10 q 118 256 118 125 l 118 694 l 175 694 l 175 261 q 220 99 175 151 q 358 47 265 47 q 534 116 468 47 q 600 299 600 185 l 600 694 l 657 694 m 207 786 l 363 1067 l 417 1067 l 572 786 l 500 786 l 390 1007 l 279 786 l 207 786 z "},"ȕ":{"ha":779,"x_min":118,"x_max":657,"o":"m 657 694 l 657 0 l 601 0 l 601 132 q 505 27 568 64 q 363 -10 442 -10 q 181 58 243 -10 q 118 256 118 125 l 118 694 l 175 694 l 175 261 q 220 99 175 151 q 358 47 265 47 q 534 116 468 47 q 600 299 600 185 l 600 694 l 657 694 m 181 1067 l 260 1067 l 332 786 l 293 786 l 181 1067 m 336 1067 l 415 1067 l 486 786 l 447 786 l 336 1067 z "},"ü":{"ha":779,"x_min":118,"x_max":657,"o":"m 657 694 l 657 0 l 601 0 l 601 132 q 505 27 568 64 q 363 -10 442 -10 q 181 58 243 -10 q 118 256 118 125 l 118 694 l 175 694 l 175 261 q 220 99 175 151 q 358 47 265 47 q 534 116 468 47 q 600 299 600 185 l 600 694 l 657 694 m 319 969 l 319 885 l 233 885 l 233 969 l 319 969 m 546 969 l 546 885 l 460 885 l 460 969 l 546 969 z "},"ụ":{"ha":779,"x_min":118,"x_max":657,"o":"m 657 694 l 657 0 l 601 0 l 601 132 q 505 27 568 64 q 363 -10 442 -10 q 181 58 243 -10 q 118 256 118 125 l 118 694 l 175 694 l 175 261 q 220 99 175 151 q 358 47 265 47 q 534 116 468 47 q 600 299 600 185 l 600 694 l 657 694 m 436 -153 l 436 -243 l 343 -243 l 343 -153 l 436 -153 z "},"ù":{"ha":779,"x_min":118,"x_max":657,"o":"m 657 694 l 657 0 l 601 0 l 601 132 q 505 27 568 64 q 363 -10 442 -10 q 181 58 243 -10 q 118 256 118 125 l 118 694 l 175 694 l 175 261 q 220 99 175 151 q 358 47 265 47 q 534 116 468 47 q 600 299 600 185 l 600 694 l 657 694 m 188 1067 l 275 1067 l 415 786 l 364 786 l 188 1067 z "},"ủ":{"ha":779,"x_min":118,"x_max":657,"o":"m 657 694 l 657 0 l 601 0 l 601 132 q 505 27 568 64 q 363 -10 442 -10 q 181 58 243 -10 q 118 256 118 125 l 118 694 l 175 694 l 175 261 q 220 99 175 151 q 358 47 265 47 q 534 116 468 47 q 600 299 600 185 l 600 694 l 657 694 m 421 786 l 364 786 l 364 828 q 378 876 364 854 q 419 922 393 897 q 449 953 439 940 q 458 981 458 967 q 442 1006 458 997 q 396 1015 425 1015 q 306 999 351 1015 l 289 1049 q 397 1074 343 1074 q 490 1048 456 1074 q 524 982 524 1022 q 510 931 524 950 q 469 889 497 913 q 433 850 444 867 q 421 807 421 833 l 421 786 z "},"ư":{"ha":790,"x_min":118,"x_max":829,"o":"m 829 883 l 829 856 q 785 713 829 765 q 657 650 740 660 l 657 0 l 601 0 l 601 132 q 505 27 568 64 q 363 -10 442 -10 q 181 58 243 -10 q 118 256 118 125 l 118 694 l 175 694 l 175 261 q 220 99 175 151 q 358 47 265 47 q 534 116 468 47 q 600 299 600 185 l 600 694 l 617 694 q 736 737 699 696 q 774 867 774 778 l 774 883 l 829 883 z "},"ứ":{"ha":790,"x_min":118,"x_max":829,"o":"m 829 883 l 829 856 q 785 713 829 765 q 657 650 740 660 l 657 0 l 601 0 l 601 132 q 505 27 568 64 q 363 -10 442 -10 q 181 58 243 -10 q 118 256 118 125 l 118 694 l 175 694 l 175 261 q 220 99 175 151 q 358 47 265 47 q 534 116 468 47 q 600 299 600 185 l 600 694 l 617 694 q 736 737 699 696 q 774 867 774 778 l 774 883 l 829 883 m 364 786 l 504 1067 l 592 1067 l 415 786 l 364 786 z "},"ự":{"ha":790,"x_min":118,"x_max":829,"o":"m 829 883 l 829 856 q 785 713 829 765 q 657 650 740 660 l 657 0 l 601 0 l 601 132 q 505 27 568 64 q 363 -10 442 -10 q 181 58 243 -10 q 118 256 118 125 l 118 694 l 175 694 l 175 261 q 220 99 175 151 q 358 47 265 47 q 534 116 468 47 q 600 299 600 185 l 600 694 l 617 694 q 736 737 699 696 q 774 867 774 778 l 774 883 l 829 883 m 436 -153 l 436 -243 l 343 -243 l 343 -153 l 436 -153 z "},"ừ":{"ha":790,"x_min":118,"x_max":829,"o":"m 829 883 l 829 856 q 785 713 829 765 q 657 650 740 660 l 657 0 l 601 0 l 601 132 q 505 27 568 64 q 363 -10 442 -10 q 181 58 243 -10 q 118 256 118 125 l 118 694 l 175 694 l 175 261 q 220 99 175 151 q 358 47 265 47 q 534 116 468 47 q 600 299 600 185 l 600 694 l 617 694 q 736 737 699 696 q 774 867 774 778 l 774 883 l 829 883 m 188 1067 l 275 1067 l 415 786 l 364 786 l 188 1067 z "},"ử":{"ha":790,"x_min":118,"x_max":829,"o":"m 829 883 l 829 856 q 785 713 829 765 q 657 650 740 660 l 657 0 l 601 0 l 601 132 q 505 27 568 64 q 363 -10 442 -10 q 181 58 243 -10 q 118 256 118 125 l 118 694 l 175 694 l 175 261 q 220 99 175 151 q 358 47 265 47 q 534 116 468 47 q 600 299 600 185 l 600 694 l 617 694 q 736 737 699 696 q 774 867 774 778 l 774 883 l 829 883 m 421 786 l 364 786 l 364 828 q 378 876 364 854 q 419 922 393 897 q 449 953 439 940 q 458 981 458 967 q 442 1006 458 997 q 396 1015 425 1015 q 306 999 351 1015 l 289 1049 q 397 1074 343 1074 q 490 1048 456 1074 q 524 982 524 1022 q 510 931 524 950 q 469 889 497 913 q 433 850 444 867 q 421 807 421 833 l 421 786 z "},"ữ":{"ha":790,"x_min":118,"x_max":829,"o":"m 829 883 l 829 856 q 785 713 829 765 q 657 650 740 660 l 657 0 l 601 0 l 601 132 q 505 27 568 64 q 363 -10 442 -10 q 181 58 243 -10 q 118 256 118 125 l 118 694 l 175 694 l 175 261 q 220 99 175 151 q 358 47 265 47 q 534 116 468 47 q 600 299 600 185 l 600 694 l 617 694 q 736 737 699 696 q 774 867 774 778 l 774 883 l 829 883 m 174 863 q 203 961 174 924 q 285 999 232 999 q 341 987 315 999 q 407 950 367 975 q 453 923 435 932 q 489 914 472 914 q 542 938 524 914 q 558 994 560 963 l 606 994 q 576 895 606 932 q 494 858 547 858 q 438 870 464 858 q 372 907 413 882 q 326 934 344 925 q 290 943 307 943 q 238 919 256 943 q 221 863 219 894 l 174 863 z "},"ű":{"ha":779,"x_min":118,"x_max":657,"o":"m 657 694 l 657 0 l 601 0 l 601 132 q 505 27 568 64 q 363 -10 442 -10 q 181 58 243 -10 q 118 256 118 125 l 118 694 l 175 694 l 175 261 q 220 99 175 151 q 358 47 265 47 q 534 116 468 47 q 600 299 600 185 l 600 694 l 657 694 m 293 786 l 364 1067 l 443 1067 l 332 786 l 293 786 m 447 786 l 519 1067 l 599 1067 l 486 786 l 447 786 z "},"ȗ":{"ha":779,"x_min":118,"x_max":657,"o":"m 657 694 l 657 0 l 601 0 l 601 132 q 505 27 568 64 q 363 -10 442 -10 q 181 58 243 -10 q 118 256 118 125 l 118 694 l 175 694 l 175 261 q 220 99 175 151 q 358 47 265 47 q 534 116 468 47 q 600 299 600 185 l 600 694 l 657 694 m 390 1021 q 517 982 460 1021 q 606 858 574 943 l 549 833 q 479 935 518 906 q 390 965 440 965 q 300 935 339 965 q 231 833 261 906 l 174 857 q 262 981 204 942 q 390 1021 319 1021 z "},"ū":{"ha":779,"x_min":118,"x_max":657,"o":"m 657 694 l 657 0 l 601 0 l 601 132 q 505 27 568 64 q 363 -10 442 -10 q 181 58 243 -10 q 118 256 118 125 l 118 694 l 175 694 l 175 261 q 220 99 175 151 q 358 47 265 47 q 534 116 468 47 q 600 299 600 185 l 600 694 l 657 694 m 185 958 l 594 958 l 594 897 l 185 897 l 185 958 z "},"ṻ":{"ha":779,"x_min":118,"x_max":657,"o":"m 657 694 l 657 0 l 601 0 l 601 132 q 505 27 568 64 q 363 -10 442 -10 q 181 58 243 -10 q 118 256 118 125 l 118 694 l 175 694 l 175 261 q 220 99 175 151 q 358 47 265 47 q 534 116 468 47 q 600 299 600 185 l 600 694 l 657 694 m 185 958 l 594 958 l 594 897 l 185 897 l 185 958 m 319 1243 l 319 1158 l 233 1158 l 233 1243 l 319 1243 m 546 1243 l 546 1158 l 460 1158 l 460 1243 l 546 1243 z "},"ų":{"ha":779,"x_min":118,"x_max":726,"o":"m 726 -240 q 615 -272 682 -272 q 501 -232 544 -272 q 458 -126 458 -192 q 496 -20 458 -65 q 601 44 533 25 l 601 132 q 505 27 568 64 q 363 -10 442 -10 q 181 58 243 -10 q 118 256 118 125 l 118 694 l 175 694 l 175 261 q 220 99 175 151 q 358 47 265 47 q 534 116 468 47 q 600 299 600 185 l 600 694 l 657 694 l 657 0 l 653 0 q 557 -34 594 0 q 519 -121 519 -68 q 547 -193 519 -167 q 619 -219 574 -219 q 703 -190 656 -219 l 726 -240 z "},"ů":{"ha":779,"x_min":118,"x_max":657,"o":"m 657 694 l 657 0 l 601 0 l 601 132 q 505 27 568 64 q 363 -10 442 -10 q 181 58 243 -10 q 118 256 118 125 l 118 694 l 175 694 l 175 261 q 220 99 175 151 q 358 47 265 47 q 534 116 468 47 q 600 299 600 185 l 600 694 l 657 694 m 390 793 q 294 832 333 793 q 256 926 256 871 q 294 1020 256 982 q 390 1058 333 1058 q 485 1020 446 1058 q 524 926 524 982 q 485 832 524 871 q 390 793 446 793 m 390 851 q 441 873 421 851 q 461 926 461 894 q 441 979 461 958 q 390 1000 421 1000 q 339 979 360 1000 q 318 926 318 958 q 339 873 318 894 q 390 851 360 851 z "},"ũ":{"ha":779,"x_min":118,"x_max":657,"o":"m 657 694 l 657 0 l 601 0 l 601 132 q 505 27 568 64 q 363 -10 442 -10 q 181 58 243 -10 q 118 256 118 125 l 118 694 l 175 694 l 175 261 q 220 99 175 151 q 358 47 265 47 q 534 116 468 47 q 600 299 600 185 l 600 694 l 657 694 m 174 863 q 203 961 174 924 q 285 999 232 999 q 341 987 315 999 q 407 950 367 975 q 453 923 435 932 q 489 914 472 914 q 542 938 524 914 q 558 994 560 963 l 606 994 q 576 895 606 932 q 494 858 547 858 q 438 870 464 858 q 372 907 413 882 q 326 934 344 925 q 290 943 307 943 q 238 919 256 943 q 221 863 219 894 l 174 863 z "},"ṹ":{"ha":779,"x_min":118,"x_max":657,"o":"m 657 694 l 657 0 l 601 0 l 601 132 q 505 27 568 64 q 363 -10 442 -10 q 181 58 243 -10 q 118 256 118 125 l 118 694 l 175 694 l 175 261 q 220 99 175 151 q 358 47 265 47 q 534 116 468 47 q 600 299 600 185 l 600 694 l 657 694 m 174 863 q 203 961 174 924 q 285 999 232 999 q 341 987 315 999 q 407 950 367 975 q 453 923 435 932 q 489 914 472 914 q 542 938 524 914 q 558 994 560 963 l 606 994 q 576 895 606 932 q 494 858 547 858 q 438 870 464 858 q 372 907 413 882 q 326 934 344 925 q 290 943 307 943 q 238 919 256 943 q 221 863 219 894 l 174 863 m 364 1060 l 504 1340 l 592 1340 l 415 1060 l 364 1060 z "},"v":{"ha":722,"x_min":33,"x_max":690,"o":"m 690 694 l 394 0 l 326 0 l 33 694 l 96 694 l 363 53 l 631 694 l 690 694 z "},"w":{"ha":1190,"x_min":58,"x_max":1133,"o":"m 1133 694 l 888 0 l 818 0 l 596 624 l 372 0 l 301 0 l 58 694 l 122 694 l 335 68 l 561 694 l 633 694 l 853 69 l 1072 694 l 1133 694 z "},"ẃ":{"ha":1190,"x_min":58,"x_max":1133,"o":"m 1133 694 l 888 0 l 818 0 l 596 624 l 372 0 l 301 0 l 58 694 l 122 694 l 335 68 l 561 694 l 633 694 l 853 69 l 1072 694 l 1133 694 m 569 786 l 710 1067 l 797 1067 l 621 786 l 569 786 z "}}}
